<?xml version="1.0" encoding="utf-8" standalone="no"?>
<!DOCTYPE svg PUBLIC "-//W3C//DTD SVG 1.1//EN"
  "http://www.w3.org/Graphics/SVG/1.1/DTD/svg11.dtd">
<!-- Created with matplotlib (https://matplotlib.org/) -->
<svg height="520.318125pt" version="1.1" viewBox="0 0 928.942187 520.318125" width="928.942187pt" xmlns="http://www.w3.org/2000/svg" xmlns:xlink="http://www.w3.org/1999/xlink">
 <defs>
  <style type="text/css">
*{stroke-linecap:butt;stroke-linejoin:round;}
  </style>
 </defs>
 <g id="figure_1">
  <g id="patch_1">
   <path d="M 0 520.318125 
L 928.942187 520.318125 
L 928.942187 0 
L 0 0 
z
" style="fill:none;"/>
  </g>
  <g id="axes_1">
   <g id="patch_2">
    <path d="M 28.942188 496.44 
L 921.742188 496.44 
L 921.742188 7.2 
L 28.942188 7.2 
z
" style="fill:#ffffff;"/>
   </g>
   <g id="matplotlib.axis_1">
    <g id="xtick_1">
     <g id="line2d_1">
      <defs>
       <path d="M 0 0 
L 0 3.5 
" id="m5d2c88daea" style="stroke:#000000;stroke-width:0.8;"/>
      </defs>
      <g>
       <use style="stroke:#000000;stroke-width:0.8;" x="69.524006" xlink:href="#m5d2c88daea" y="496.44"/>
      </g>
     </g>
     <g id="text_1">
      <!-- −1.00 -->
      <defs>
       <path d="M 10.59375 35.5 
L 73.1875 35.5 
L 73.1875 27.203125 
L 10.59375 27.203125 
z
" id="DejaVuSans-8722"/>
       <path d="M 12.40625 8.296875 
L 28.515625 8.296875 
L 28.515625 63.921875 
L 10.984375 60.40625 
L 10.984375 69.390625 
L 28.421875 72.90625 
L 38.28125 72.90625 
L 38.28125 8.296875 
L 54.390625 8.296875 
L 54.390625 0 
L 12.40625 0 
z
" id="DejaVuSans-49"/>
       <path d="M 10.6875 12.40625 
L 21 12.40625 
L 21 0 
L 10.6875 0 
z
" id="DejaVuSans-46"/>
       <path d="M 31.78125 66.40625 
Q 24.171875 66.40625 20.328125 58.90625 
Q 16.5 51.421875 16.5 36.375 
Q 16.5 21.390625 20.328125 13.890625 
Q 24.171875 6.390625 31.78125 6.390625 
Q 39.453125 6.390625 43.28125 13.890625 
Q 47.125 21.390625 47.125 36.375 
Q 47.125 51.421875 43.28125 58.90625 
Q 39.453125 66.40625 31.78125 66.40625 
z
M 31.78125 74.21875 
Q 44.046875 74.21875 50.515625 64.515625 
Q 56.984375 54.828125 56.984375 36.375 
Q 56.984375 17.96875 50.515625 8.265625 
Q 44.046875 -1.421875 31.78125 -1.421875 
Q 19.53125 -1.421875 13.0625 8.265625 
Q 6.59375 17.96875 6.59375 36.375 
Q 6.59375 54.828125 13.0625 64.515625 
Q 19.53125 74.21875 31.78125 74.21875 
z
" id="DejaVuSans-48"/>
      </defs>
      <g transform="translate(54.201349 511.038437)scale(0.1 -0.1)">
       <use xlink:href="#DejaVuSans-8722"/>
       <use x="83.789062" xlink:href="#DejaVuSans-49"/>
       <use x="147.412109" xlink:href="#DejaVuSans-46"/>
       <use x="179.199219" xlink:href="#DejaVuSans-48"/>
       <use x="242.822266" xlink:href="#DejaVuSans-48"/>
      </g>
     </g>
    </g>
    <g id="xtick_2">
     <g id="line2d_2">
      <g>
       <use style="stroke:#000000;stroke-width:0.8;" x="170.978551" xlink:href="#m5d2c88daea" y="496.44"/>
      </g>
     </g>
     <g id="text_2">
      <!-- −0.75 -->
      <defs>
       <path d="M 8.203125 72.90625 
L 55.078125 72.90625 
L 55.078125 68.703125 
L 28.609375 0 
L 18.3125 0 
L 43.21875 64.59375 
L 8.203125 64.59375 
z
" id="DejaVuSans-55"/>
       <path d="M 10.796875 72.90625 
L 49.515625 72.90625 
L 49.515625 64.59375 
L 19.828125 64.59375 
L 19.828125 46.734375 
Q 21.96875 47.46875 24.109375 47.828125 
Q 26.265625 48.1875 28.421875 48.1875 
Q 40.625 48.1875 47.75 41.5 
Q 54.890625 34.8125 54.890625 23.390625 
Q 54.890625 11.625 47.5625 5.09375 
Q 40.234375 -1.421875 26.90625 -1.421875 
Q 22.3125 -1.421875 17.546875 -0.640625 
Q 12.796875 0.140625 7.71875 1.703125 
L 7.71875 11.625 
Q 12.109375 9.234375 16.796875 8.0625 
Q 21.484375 6.890625 26.703125 6.890625 
Q 35.15625 6.890625 40.078125 11.328125 
Q 45.015625 15.765625 45.015625 23.390625 
Q 45.015625 31 40.078125 35.4375 
Q 35.15625 39.890625 26.703125 39.890625 
Q 22.75 39.890625 18.8125 39.015625 
Q 14.890625 38.140625 10.796875 36.28125 
z
" id="DejaVuSans-53"/>
      </defs>
      <g transform="translate(155.655895 511.038437)scale(0.1 -0.1)">
       <use xlink:href="#DejaVuSans-8722"/>
       <use x="83.789062" xlink:href="#DejaVuSans-48"/>
       <use x="147.412109" xlink:href="#DejaVuSans-46"/>
       <use x="179.199219" xlink:href="#DejaVuSans-55"/>
       <use x="242.822266" xlink:href="#DejaVuSans-53"/>
      </g>
     </g>
    </g>
    <g id="xtick_3">
     <g id="line2d_3">
      <g>
       <use style="stroke:#000000;stroke-width:0.8;" x="272.433097" xlink:href="#m5d2c88daea" y="496.44"/>
      </g>
     </g>
     <g id="text_3">
      <!-- −0.50 -->
      <g transform="translate(257.11044 511.038437)scale(0.1 -0.1)">
       <use xlink:href="#DejaVuSans-8722"/>
       <use x="83.789062" xlink:href="#DejaVuSans-48"/>
       <use x="147.412109" xlink:href="#DejaVuSans-46"/>
       <use x="179.199219" xlink:href="#DejaVuSans-53"/>
       <use x="242.822266" xlink:href="#DejaVuSans-48"/>
      </g>
     </g>
    </g>
    <g id="xtick_4">
     <g id="line2d_4">
      <g>
       <use style="stroke:#000000;stroke-width:0.8;" x="373.887642" xlink:href="#m5d2c88daea" y="496.44"/>
      </g>
     </g>
     <g id="text_4">
      <!-- −0.25 -->
      <defs>
       <path d="M 19.1875 8.296875 
L 53.609375 8.296875 
L 53.609375 0 
L 7.328125 0 
L 7.328125 8.296875 
Q 12.9375 14.109375 22.625 23.890625 
Q 32.328125 33.6875 34.8125 36.53125 
Q 39.546875 41.84375 41.421875 45.53125 
Q 43.3125 49.21875 43.3125 52.78125 
Q 43.3125 58.59375 39.234375 62.25 
Q 35.15625 65.921875 28.609375 65.921875 
Q 23.96875 65.921875 18.8125 64.3125 
Q 13.671875 62.703125 7.8125 59.421875 
L 7.8125 69.390625 
Q 13.765625 71.78125 18.9375 73 
Q 24.125 74.21875 28.421875 74.21875 
Q 39.75 74.21875 46.484375 68.546875 
Q 53.21875 62.890625 53.21875 53.421875 
Q 53.21875 48.921875 51.53125 44.890625 
Q 49.859375 40.875 45.40625 35.40625 
Q 44.1875 33.984375 37.640625 27.21875 
Q 31.109375 20.453125 19.1875 8.296875 
z
" id="DejaVuSans-50"/>
      </defs>
      <g transform="translate(358.564986 511.038437)scale(0.1 -0.1)">
       <use xlink:href="#DejaVuSans-8722"/>
       <use x="83.789062" xlink:href="#DejaVuSans-48"/>
       <use x="147.412109" xlink:href="#DejaVuSans-46"/>
       <use x="179.199219" xlink:href="#DejaVuSans-50"/>
       <use x="242.822266" xlink:href="#DejaVuSans-53"/>
      </g>
     </g>
    </g>
    <g id="xtick_5">
     <g id="line2d_5">
      <g>
       <use style="stroke:#000000;stroke-width:0.8;" x="475.342188" xlink:href="#m5d2c88daea" y="496.44"/>
      </g>
     </g>
     <g id="text_5">
      <!-- 0.00 -->
      <g transform="translate(464.209375 511.038437)scale(0.1 -0.1)">
       <use xlink:href="#DejaVuSans-48"/>
       <use x="63.623047" xlink:href="#DejaVuSans-46"/>
       <use x="95.410156" xlink:href="#DejaVuSans-48"/>
       <use x="159.033203" xlink:href="#DejaVuSans-48"/>
      </g>
     </g>
    </g>
    <g id="xtick_6">
     <g id="line2d_6">
      <g>
       <use style="stroke:#000000;stroke-width:0.8;" x="576.796733" xlink:href="#m5d2c88daea" y="496.44"/>
      </g>
     </g>
     <g id="text_6">
      <!-- 0.25 -->
      <g transform="translate(565.66392 511.038437)scale(0.1 -0.1)">
       <use xlink:href="#DejaVuSans-48"/>
       <use x="63.623047" xlink:href="#DejaVuSans-46"/>
       <use x="95.410156" xlink:href="#DejaVuSans-50"/>
       <use x="159.033203" xlink:href="#DejaVuSans-53"/>
      </g>
     </g>
    </g>
    <g id="xtick_7">
     <g id="line2d_7">
      <g>
       <use style="stroke:#000000;stroke-width:0.8;" x="678.251278" xlink:href="#m5d2c88daea" y="496.44"/>
      </g>
     </g>
     <g id="text_7">
      <!-- 0.50 -->
      <g transform="translate(667.118466 511.038437)scale(0.1 -0.1)">
       <use xlink:href="#DejaVuSans-48"/>
       <use x="63.623047" xlink:href="#DejaVuSans-46"/>
       <use x="95.410156" xlink:href="#DejaVuSans-53"/>
       <use x="159.033203" xlink:href="#DejaVuSans-48"/>
      </g>
     </g>
    </g>
    <g id="xtick_8">
     <g id="line2d_8">
      <g>
       <use style="stroke:#000000;stroke-width:0.8;" x="779.705824" xlink:href="#m5d2c88daea" y="496.44"/>
      </g>
     </g>
     <g id="text_8">
      <!-- 0.75 -->
      <g transform="translate(768.573011 511.038437)scale(0.1 -0.1)">
       <use xlink:href="#DejaVuSans-48"/>
       <use x="63.623047" xlink:href="#DejaVuSans-46"/>
       <use x="95.410156" xlink:href="#DejaVuSans-55"/>
       <use x="159.033203" xlink:href="#DejaVuSans-53"/>
      </g>
     </g>
    </g>
    <g id="xtick_9">
     <g id="line2d_9">
      <g>
       <use style="stroke:#000000;stroke-width:0.8;" x="881.160369" xlink:href="#m5d2c88daea" y="496.44"/>
      </g>
     </g>
     <g id="text_9">
      <!-- 1.00 -->
      <g transform="translate(870.027557 511.038437)scale(0.1 -0.1)">
       <use xlink:href="#DejaVuSans-49"/>
       <use x="63.623047" xlink:href="#DejaVuSans-46"/>
       <use x="95.410156" xlink:href="#DejaVuSans-48"/>
       <use x="159.033203" xlink:href="#DejaVuSans-48"/>
      </g>
     </g>
    </g>
   </g>
   <g id="matplotlib.axis_2">
    <g id="ytick_1">
     <g id="line2d_10">
      <defs>
       <path d="M 0 0 
L -3.5 0 
" id="m27760e85c9" style="stroke:#000000;stroke-width:0.8;"/>
      </defs>
      <g>
       <use style="stroke:#000000;stroke-width:0.8;" x="28.942188" xlink:href="#m27760e85c9" y="444.278131"/>
      </g>
     </g>
     <g id="text_10">
      <!-- −2 -->
      <g transform="translate(7.2 448.07735)scale(0.1 -0.1)">
       <use xlink:href="#DejaVuSans-8722"/>
       <use x="83.789062" xlink:href="#DejaVuSans-50"/>
      </g>
     </g>
    </g>
    <g id="ytick_2">
     <g id="line2d_11">
      <g>
       <use style="stroke:#000000;stroke-width:0.8;" x="28.942188" xlink:href="#m27760e85c9" y="348.049066"/>
      </g>
     </g>
     <g id="text_11">
      <!-- −1 -->
      <g transform="translate(7.2 351.848284)scale(0.1 -0.1)">
       <use xlink:href="#DejaVuSans-8722"/>
       <use x="83.789062" xlink:href="#DejaVuSans-49"/>
      </g>
     </g>
    </g>
    <g id="ytick_3">
     <g id="line2d_12">
      <g>
       <use style="stroke:#000000;stroke-width:0.8;" x="28.942188" xlink:href="#m27760e85c9" y="251.82"/>
      </g>
     </g>
     <g id="text_12">
      <!-- 0 -->
      <g transform="translate(15.579688 255.619219)scale(0.1 -0.1)">
       <use xlink:href="#DejaVuSans-48"/>
      </g>
     </g>
    </g>
    <g id="ytick_4">
     <g id="line2d_13">
      <g>
       <use style="stroke:#000000;stroke-width:0.8;" x="28.942188" xlink:href="#m27760e85c9" y="155.590934"/>
      </g>
     </g>
     <g id="text_13">
      <!-- 1 -->
      <g transform="translate(15.579688 159.390153)scale(0.1 -0.1)">
       <use xlink:href="#DejaVuSans-49"/>
      </g>
     </g>
    </g>
    <g id="ytick_5">
     <g id="line2d_14">
      <g>
       <use style="stroke:#000000;stroke-width:0.8;" x="28.942188" xlink:href="#m27760e85c9" y="59.361869"/>
      </g>
     </g>
     <g id="text_14">
      <!-- 2 -->
      <g transform="translate(15.579688 63.161088)scale(0.1 -0.1)">
       <use xlink:href="#DejaVuSans-50"/>
      </g>
     </g>
    </g>
   </g>
   <g id="line2d_15">
    <defs>
     <path d="M -3 3 
L 3 -3 
M -3 -3 
L 3 3 
" id="mc10fb0ec1b" style="stroke:#1f77b4;"/>
    </defs>
    <g clip-path="url(#p5ed22f9339)">
     <use style="fill:#1f77b4;stroke:#1f77b4;" x="69.524006" xlink:href="#mc10fb0ec1b" y="296.28123"/>
     <use style="fill:#1f77b4;stroke:#1f77b4;" x="77.722353" xlink:href="#mc10fb0ec1b" y="296.280119"/>
     <use style="fill:#1f77b4;stroke:#1f77b4;" x="85.9207" xlink:href="#mc10fb0ec1b" y="296.278902"/>
     <use style="fill:#1f77b4;stroke:#1f77b4;" x="94.119047" xlink:href="#mc10fb0ec1b" y="296.277563"/>
     <use style="fill:#1f77b4;stroke:#1f77b4;" x="102.317394" xlink:href="#mc10fb0ec1b" y="296.27609"/>
     <use style="fill:#1f77b4;stroke:#1f77b4;" x="110.515741" xlink:href="#mc10fb0ec1b" y="296.274465"/>
     <use style="fill:#1f77b4;stroke:#1f77b4;" x="118.714088" xlink:href="#mc10fb0ec1b" y="296.272668"/>
     <use style="fill:#1f77b4;stroke:#1f77b4;" x="126.912435" xlink:href="#mc10fb0ec1b" y="296.270677"/>
     <use style="fill:#1f77b4;stroke:#1f77b4;" x="135.110783" xlink:href="#mc10fb0ec1b" y="296.268464"/>
     <use style="fill:#1f77b4;stroke:#1f77b4;" x="143.30913" xlink:href="#mc10fb0ec1b" y="296.266"/>
     <use style="fill:#1f77b4;stroke:#1f77b4;" x="151.507477" xlink:href="#mc10fb0ec1b" y="296.263248"/>
     <use style="fill:#1f77b4;stroke:#1f77b4;" x="159.705824" xlink:href="#mc10fb0ec1b" y="296.260165"/>
     <use style="fill:#1f77b4;stroke:#1f77b4;" x="167.904171" xlink:href="#mc10fb0ec1b" y="296.256701"/>
     <use style="fill:#1f77b4;stroke:#1f77b4;" x="176.102518" xlink:href="#mc10fb0ec1b" y="296.252796"/>
     <use style="fill:#1f77b4;stroke:#1f77b4;" x="184.300865" xlink:href="#mc10fb0ec1b" y="296.248378"/>
     <use style="fill:#1f77b4;stroke:#1f77b4;" x="192.499212" xlink:href="#mc10fb0ec1b" y="296.243362"/>
     <use style="fill:#1f77b4;stroke:#1f77b4;" x="200.697559" xlink:href="#mc10fb0ec1b" y="296.237643"/>
     <use style="fill:#1f77b4;stroke:#1f77b4;" x="208.895907" xlink:href="#mc10fb0ec1b" y="296.231097"/>
     <use style="fill:#1f77b4;stroke:#1f77b4;" x="217.094254" xlink:href="#mc10fb0ec1b" y="296.223569"/>
     <use style="fill:#1f77b4;stroke:#1f77b4;" x="225.292601" xlink:href="#mc10fb0ec1b" y="296.21487"/>
     <use style="fill:#1f77b4;stroke:#1f77b4;" x="233.490948" xlink:href="#mc10fb0ec1b" y="296.20477"/>
     <use style="fill:#1f77b4;stroke:#1f77b4;" x="241.689295" xlink:href="#mc10fb0ec1b" y="296.192977"/>
     <use style="fill:#1f77b4;stroke:#1f77b4;" x="249.887642" xlink:href="#mc10fb0ec1b" y="296.179132"/>
     <use style="fill:#1f77b4;stroke:#1f77b4;" x="258.085989" xlink:href="#mc10fb0ec1b" y="296.162779"/>
     <use style="fill:#1f77b4;stroke:#1f77b4;" x="266.284336" xlink:href="#mc10fb0ec1b" y="296.143341"/>
     <use style="fill:#1f77b4;stroke:#1f77b4;" x="274.482683" xlink:href="#mc10fb0ec1b" y="296.120083"/>
     <use style="fill:#1f77b4;stroke:#1f77b4;" x="282.68103" xlink:href="#mc10fb0ec1b" y="296.09206"/>
     <use style="fill:#1f77b4;stroke:#1f77b4;" x="290.879378" xlink:href="#mc10fb0ec1b" y="296.058047"/>
     <use style="fill:#1f77b4;stroke:#1f77b4;" x="299.077725" xlink:href="#mc10fb0ec1b" y="296.01645"/>
     <use style="fill:#1f77b4;stroke:#1f77b4;" x="307.276072" xlink:href="#mc10fb0ec1b" y="295.965173"/>
     <use style="fill:#1f77b4;stroke:#1f77b4;" x="315.474419" xlink:href="#mc10fb0ec1b" y="295.901449"/>
     <use style="fill:#1f77b4;stroke:#1f77b4;" x="323.672766" xlink:href="#mc10fb0ec1b" y="295.821588"/>
     <use style="fill:#1f77b4;stroke:#1f77b4;" x="331.871113" xlink:href="#mc10fb0ec1b" y="295.720649"/>
     <use style="fill:#1f77b4;stroke:#1f77b4;" x="340.06946" xlink:href="#mc10fb0ec1b" y="295.591961"/>
     <use style="fill:#1f77b4;stroke:#1f77b4;" x="348.267807" xlink:href="#mc10fb0ec1b" y="295.426478"/>
     <use style="fill:#1f77b4;stroke:#1f77b4;" x="356.466154" xlink:href="#mc10fb0ec1b" y="295.21186"/>
     <use style="fill:#1f77b4;stroke:#1f77b4;" x="364.664502" xlink:href="#mc10fb0ec1b" y="294.931215"/>
     <use style="fill:#1f77b4;stroke:#1f77b4;" x="372.862849" xlink:href="#mc10fb0ec1b" y="294.561359"/>
     <use style="fill:#1f77b4;stroke:#1f77b4;" x="381.061196" xlink:href="#mc10fb0ec1b" y="294.070458"/>
     <use style="fill:#1f77b4;stroke:#1f77b4;" x="389.259543" xlink:href="#mc10fb0ec1b" y="293.414899"/>
     <use style="fill:#1f77b4;stroke:#1f77b4;" x="397.45789" xlink:href="#mc10fb0ec1b" y="292.535307"/>
     <use style="fill:#1f77b4;stroke:#1f77b4;" x="405.656237" xlink:href="#mc10fb0ec1b" y="291.351816"/>
     <use style="fill:#1f77b4;stroke:#1f77b4;" x="413.854584" xlink:href="#mc10fb0ec1b" y="289.759185"/>
     <use style="fill:#1f77b4;stroke:#1f77b4;" x="422.052931" xlink:href="#mc10fb0ec1b" y="287.623401"/>
     <use style="fill:#1f77b4;stroke:#1f77b4;" x="430.251278" xlink:href="#mc10fb0ec1b" y="284.783226"/>
     <use style="fill:#1f77b4;stroke:#1f77b4;" x="438.449626" xlink:href="#mc10fb0ec1b" y="281.062883"/>
     <use style="fill:#1f77b4;stroke:#1f77b4;" x="446.647973" xlink:href="#mc10fb0ec1b" y="276.304391"/>
     <use style="fill:#1f77b4;stroke:#1f77b4;" x="454.84632" xlink:href="#mc10fb0ec1b" y="270.425972"/>
     <use style="fill:#1f77b4;stroke:#1f77b4;" x="463.044667" xlink:href="#mc10fb0ec1b" y="263.498901"/>
     <use style="fill:#1f77b4;stroke:#1f77b4;" x="471.243014" xlink:href="#mc10fb0ec1b" y="255.807112"/>
     <use style="fill:#1f77b4;stroke:#1f77b4;" x="479.441361" xlink:href="#mc10fb0ec1b" y="247.832888"/>
     <use style="fill:#1f77b4;stroke:#1f77b4;" x="487.639708" xlink:href="#mc10fb0ec1b" y="240.141099"/>
     <use style="fill:#1f77b4;stroke:#1f77b4;" x="495.838055" xlink:href="#mc10fb0ec1b" y="233.214028"/>
     <use style="fill:#1f77b4;stroke:#1f77b4;" x="504.036402" xlink:href="#mc10fb0ec1b" y="227.335609"/>
     <use style="fill:#1f77b4;stroke:#1f77b4;" x="512.234749" xlink:href="#mc10fb0ec1b" y="222.577117"/>
     <use style="fill:#1f77b4;stroke:#1f77b4;" x="520.433097" xlink:href="#mc10fb0ec1b" y="218.856774"/>
     <use style="fill:#1f77b4;stroke:#1f77b4;" x="528.631444" xlink:href="#mc10fb0ec1b" y="216.016599"/>
     <use style="fill:#1f77b4;stroke:#1f77b4;" x="536.829791" xlink:href="#mc10fb0ec1b" y="213.880815"/>
     <use style="fill:#1f77b4;stroke:#1f77b4;" x="545.028138" xlink:href="#mc10fb0ec1b" y="212.288184"/>
     <use style="fill:#1f77b4;stroke:#1f77b4;" x="553.226485" xlink:href="#mc10fb0ec1b" y="211.104693"/>
     <use style="fill:#1f77b4;stroke:#1f77b4;" x="561.424832" xlink:href="#mc10fb0ec1b" y="210.225101"/>
     <use style="fill:#1f77b4;stroke:#1f77b4;" x="569.623179" xlink:href="#mc10fb0ec1b" y="209.569542"/>
     <use style="fill:#1f77b4;stroke:#1f77b4;" x="577.821526" xlink:href="#mc10fb0ec1b" y="209.078641"/>
     <use style="fill:#1f77b4;stroke:#1f77b4;" x="586.019873" xlink:href="#mc10fb0ec1b" y="208.708785"/>
     <use style="fill:#1f77b4;stroke:#1f77b4;" x="594.218221" xlink:href="#mc10fb0ec1b" y="208.42814"/>
     <use style="fill:#1f77b4;stroke:#1f77b4;" x="602.416568" xlink:href="#mc10fb0ec1b" y="208.213522"/>
     <use style="fill:#1f77b4;stroke:#1f77b4;" x="610.614915" xlink:href="#mc10fb0ec1b" y="208.048039"/>
     <use style="fill:#1f77b4;stroke:#1f77b4;" x="618.813262" xlink:href="#mc10fb0ec1b" y="207.919351"/>
     <use style="fill:#1f77b4;stroke:#1f77b4;" x="627.011609" xlink:href="#mc10fb0ec1b" y="207.818412"/>
     <use style="fill:#1f77b4;stroke:#1f77b4;" x="635.209956" xlink:href="#mc10fb0ec1b" y="207.738551"/>
     <use style="fill:#1f77b4;stroke:#1f77b4;" x="643.408303" xlink:href="#mc10fb0ec1b" y="207.674827"/>
     <use style="fill:#1f77b4;stroke:#1f77b4;" x="651.60665" xlink:href="#mc10fb0ec1b" y="207.62355"/>
     <use style="fill:#1f77b4;stroke:#1f77b4;" x="659.804997" xlink:href="#mc10fb0ec1b" y="207.581953"/>
     <use style="fill:#1f77b4;stroke:#1f77b4;" x="668.003345" xlink:href="#mc10fb0ec1b" y="207.54794"/>
     <use style="fill:#1f77b4;stroke:#1f77b4;" x="676.201692" xlink:href="#mc10fb0ec1b" y="207.519917"/>
     <use style="fill:#1f77b4;stroke:#1f77b4;" x="684.400039" xlink:href="#mc10fb0ec1b" y="207.496659"/>
     <use style="fill:#1f77b4;stroke:#1f77b4;" x="692.598386" xlink:href="#mc10fb0ec1b" y="207.477221"/>
     <use style="fill:#1f77b4;stroke:#1f77b4;" x="700.796733" xlink:href="#mc10fb0ec1b" y="207.460868"/>
     <use style="fill:#1f77b4;stroke:#1f77b4;" x="708.99508" xlink:href="#mc10fb0ec1b" y="207.447023"/>
     <use style="fill:#1f77b4;stroke:#1f77b4;" x="717.193427" xlink:href="#mc10fb0ec1b" y="207.43523"/>
     <use style="fill:#1f77b4;stroke:#1f77b4;" x="725.391774" xlink:href="#mc10fb0ec1b" y="207.42513"/>
     <use style="fill:#1f77b4;stroke:#1f77b4;" x="733.590121" xlink:href="#mc10fb0ec1b" y="207.416431"/>
     <use style="fill:#1f77b4;stroke:#1f77b4;" x="741.788468" xlink:href="#mc10fb0ec1b" y="207.408903"/>
     <use style="fill:#1f77b4;stroke:#1f77b4;" x="749.986816" xlink:href="#mc10fb0ec1b" y="207.402357"/>
     <use style="fill:#1f77b4;stroke:#1f77b4;" x="758.185163" xlink:href="#mc10fb0ec1b" y="207.396638"/>
     <use style="fill:#1f77b4;stroke:#1f77b4;" x="766.38351" xlink:href="#mc10fb0ec1b" y="207.391622"/>
     <use style="fill:#1f77b4;stroke:#1f77b4;" x="774.581857" xlink:href="#mc10fb0ec1b" y="207.387204"/>
     <use style="fill:#1f77b4;stroke:#1f77b4;" x="782.780204" xlink:href="#mc10fb0ec1b" y="207.383299"/>
     <use style="fill:#1f77b4;stroke:#1f77b4;" x="790.978551" xlink:href="#mc10fb0ec1b" y="207.379835"/>
     <use style="fill:#1f77b4;stroke:#1f77b4;" x="799.176898" xlink:href="#mc10fb0ec1b" y="207.376752"/>
     <use style="fill:#1f77b4;stroke:#1f77b4;" x="807.375245" xlink:href="#mc10fb0ec1b" y="207.374"/>
     <use style="fill:#1f77b4;stroke:#1f77b4;" x="815.573592" xlink:href="#mc10fb0ec1b" y="207.371536"/>
     <use style="fill:#1f77b4;stroke:#1f77b4;" x="823.77194" xlink:href="#mc10fb0ec1b" y="207.369323"/>
     <use style="fill:#1f77b4;stroke:#1f77b4;" x="831.970287" xlink:href="#mc10fb0ec1b" y="207.367332"/>
     <use style="fill:#1f77b4;stroke:#1f77b4;" x="840.168634" xlink:href="#mc10fb0ec1b" y="207.365535"/>
     <use style="fill:#1f77b4;stroke:#1f77b4;" x="848.366981" xlink:href="#mc10fb0ec1b" y="207.36391"/>
     <use style="fill:#1f77b4;stroke:#1f77b4;" x="856.565328" xlink:href="#mc10fb0ec1b" y="207.362437"/>
     <use style="fill:#1f77b4;stroke:#1f77b4;" x="864.763675" xlink:href="#mc10fb0ec1b" y="207.361098"/>
     <use style="fill:#1f77b4;stroke:#1f77b4;" x="872.962022" xlink:href="#mc10fb0ec1b" y="207.359881"/>
     <use style="fill:#1f77b4;stroke:#1f77b4;" x="881.160369" xlink:href="#mc10fb0ec1b" y="207.35877"/>
    </g>
   </g>
   <g id="line2d_16">
    <defs>
     <path d="M -3 3 
L 3 -3 
M -3 -3 
L 3 3 
" id="m7f8dea8741" style="stroke:#ff7f0e;"/>
    </defs>
    <g clip-path="url(#p5ed22f9339)">
     <use style="fill:#ff7f0e;stroke:#ff7f0e;" x="69.524006" xlink:href="#m7f8dea8741" y="29.438182"/>
     <use style="fill:#ff7f0e;stroke:#ff7f0e;" x="77.722353" xlink:href="#m7f8dea8741" y="29.45998"/>
     <use style="fill:#ff7f0e;stroke:#ff7f0e;" x="85.9207" xlink:href="#m7f8dea8741" y="29.483697"/>
     <use style="fill:#ff7f0e;stroke:#ff7f0e;" x="94.119047" xlink:href="#m7f8dea8741" y="29.509538"/>
     <use style="fill:#ff7f0e;stroke:#ff7f0e;" x="102.317394" xlink:href="#m7f8dea8741" y="29.537733"/>
     <use style="fill:#ff7f0e;stroke:#ff7f0e;" x="110.515741" xlink:href="#m7f8dea8741" y="29.568543"/>
     <use style="fill:#ff7f0e;stroke:#ff7f0e;" x="118.714088" xlink:href="#m7f8dea8741" y="29.602264"/>
     <use style="fill:#ff7f0e;stroke:#ff7f0e;" x="126.912435" xlink:href="#m7f8dea8741" y="29.639232"/>
     <use style="fill:#ff7f0e;stroke:#ff7f0e;" x="135.110783" xlink:href="#m7f8dea8741" y="29.679832"/>
     <use style="fill:#ff7f0e;stroke:#ff7f0e;" x="143.30913" xlink:href="#m7f8dea8741" y="29.724503"/>
     <use style="fill:#ff7f0e;stroke:#ff7f0e;" x="151.507477" xlink:href="#m7f8dea8741" y="29.773748"/>
     <use style="fill:#ff7f0e;stroke:#ff7f0e;" x="159.705824" xlink:href="#m7f8dea8741" y="29.828149"/>
     <use style="fill:#ff7f0e;stroke:#ff7f0e;" x="167.904171" xlink:href="#m7f8dea8741" y="29.888377"/>
     <use style="fill:#ff7f0e;stroke:#ff7f0e;" x="176.102518" xlink:href="#m7f8dea8741" y="29.95521"/>
     <use style="fill:#ff7f0e;stroke:#ff7f0e;" x="184.300865" xlink:href="#m7f8dea8741" y="30.029553"/>
     <use style="fill:#ff7f0e;stroke:#ff7f0e;" x="192.499212" xlink:href="#m7f8dea8741" y="30.112465"/>
     <use style="fill:#ff7f0e;stroke:#ff7f0e;" x="200.697559" xlink:href="#m7f8dea8741" y="30.205184"/>
     <use style="fill:#ff7f0e;stroke:#ff7f0e;" x="208.895907" xlink:href="#m7f8dea8741" y="30.309174"/>
     <use style="fill:#ff7f0e;stroke:#ff7f0e;" x="217.094254" xlink:href="#m7f8dea8741" y="30.426159"/>
     <use style="fill:#ff7f0e;stroke:#ff7f0e;" x="225.292601" xlink:href="#m7f8dea8741" y="30.558193"/>
     <use style="fill:#ff7f0e;stroke:#ff7f0e;" x="233.490948" xlink:href="#m7f8dea8741" y="30.70772"/>
     <use style="fill:#ff7f0e;stroke:#ff7f0e;" x="241.689295" xlink:href="#m7f8dea8741" y="30.877674"/>
     <use style="fill:#ff7f0e;stroke:#ff7f0e;" x="249.887642" xlink:href="#m7f8dea8741" y="31.071585"/>
     <use style="fill:#ff7f0e;stroke:#ff7f0e;" x="258.085989" xlink:href="#m7f8dea8741" y="31.293727"/>
     <use style="fill:#ff7f0e;stroke:#ff7f0e;" x="266.284336" xlink:href="#m7f8dea8741" y="31.549296"/>
     <use style="fill:#ff7f0e;stroke:#ff7f0e;" x="274.482683" xlink:href="#m7f8dea8741" y="31.84465"/>
     <use style="fill:#ff7f0e;stroke:#ff7f0e;" x="282.68103" xlink:href="#m7f8dea8741" y="32.187605"/>
     <use style="fill:#ff7f0e;stroke:#ff7f0e;" x="290.879378" xlink:href="#m7f8dea8741" y="32.587829"/>
     <use style="fill:#ff7f0e;stroke:#ff7f0e;" x="299.077725" xlink:href="#m7f8dea8741" y="33.057351"/>
     <use style="fill:#ff7f0e;stroke:#ff7f0e;" x="307.276072" xlink:href="#m7f8dea8741" y="33.611228"/>
     <use style="fill:#ff7f0e;stroke:#ff7f0e;" x="315.474419" xlink:href="#m7f8dea8741" y="34.268435"/>
     <use style="fill:#ff7f0e;stroke:#ff7f0e;" x="323.672766" xlink:href="#m7f8dea8741" y="35.053036"/>
     <use style="fill:#ff7f0e;stroke:#ff7f0e;" x="331.871113" xlink:href="#m7f8dea8741" y="35.995762"/>
     <use style="fill:#ff7f0e;stroke:#ff7f0e;" x="340.06946" xlink:href="#m7f8dea8741" y="37.136132"/>
     <use style="fill:#ff7f0e;stroke:#ff7f0e;" x="348.267807" xlink:href="#m7f8dea8741" y="38.52532"/>
     <use style="fill:#ff7f0e;stroke:#ff7f0e;" x="356.466154" xlink:href="#m7f8dea8741" y="40.230043"/>
     <use style="fill:#ff7f0e;stroke:#ff7f0e;" x="364.664502" xlink:href="#m7f8dea8741" y="42.337849"/>
     <use style="fill:#ff7f0e;stroke:#ff7f0e;" x="372.862849" xlink:href="#m7f8dea8741" y="44.964249"/>
     <use style="fill:#ff7f0e;stroke:#ff7f0e;" x="381.061196" xlink:href="#m7f8dea8741" y="48.262264"/>
     <use style="fill:#ff7f0e;stroke:#ff7f0e;" x="389.259543" xlink:href="#m7f8dea8741" y="52.434896"/>
     <use style="fill:#ff7f0e;stroke:#ff7f0e;" x="397.45789" xlink:href="#m7f8dea8741" y="57.750748"/>
     <use style="fill:#ff7f0e;stroke:#ff7f0e;" x="405.656237" xlink:href="#m7f8dea8741" y="64.562043"/>
     <use style="fill:#ff7f0e;stroke:#ff7f0e;" x="413.854584" xlink:href="#m7f8dea8741" y="73.321985"/>
     <use style="fill:#ff7f0e;stroke:#ff7f0e;" x="422.052931" xlink:href="#m7f8dea8741" y="84.593783"/>
     <use style="fill:#ff7f0e;stroke:#ff7f0e;" x="430.251278" xlink:href="#m7f8dea8741" y="99.035862"/>
     <use style="fill:#ff7f0e;stroke:#ff7f0e;" x="438.449626" xlink:href="#m7f8dea8741" y="117.337938"/>
     <use style="fill:#ff7f0e;stroke:#ff7f0e;" x="446.647973" xlink:href="#m7f8dea8741" y="140.077764"/>
     <use style="fill:#ff7f0e;stroke:#ff7f0e;" x="454.84632" xlink:href="#m7f8dea8741" y="167.485503"/>
     <use style="fill:#ff7f0e;stroke:#ff7f0e;" x="463.044667" xlink:href="#m7f8dea8741" y="199.162651"/>
     <use style="fill:#ff7f0e;stroke:#ff7f0e;" x="471.243014" xlink:href="#m7f8dea8741" y="233.895339"/>
     <use style="fill:#ff7f0e;stroke:#ff7f0e;" x="479.441361" xlink:href="#m7f8dea8741" y="269.744661"/>
     <use style="fill:#ff7f0e;stroke:#ff7f0e;" x="487.639708" xlink:href="#m7f8dea8741" y="304.477349"/>
     <use style="fill:#ff7f0e;stroke:#ff7f0e;" x="495.838055" xlink:href="#m7f8dea8741" y="336.154497"/>
     <use style="fill:#ff7f0e;stroke:#ff7f0e;" x="504.036402" xlink:href="#m7f8dea8741" y="363.562236"/>
     <use style="fill:#ff7f0e;stroke:#ff7f0e;" x="512.234749" xlink:href="#m7f8dea8741" y="386.302062"/>
     <use style="fill:#ff7f0e;stroke:#ff7f0e;" x="520.433097" xlink:href="#m7f8dea8741" y="404.604138"/>
     <use style="fill:#ff7f0e;stroke:#ff7f0e;" x="528.631444" xlink:href="#m7f8dea8741" y="419.046217"/>
     <use style="fill:#ff7f0e;stroke:#ff7f0e;" x="536.829791" xlink:href="#m7f8dea8741" y="430.318015"/>
     <use style="fill:#ff7f0e;stroke:#ff7f0e;" x="545.028138" xlink:href="#m7f8dea8741" y="439.077957"/>
     <use style="fill:#ff7f0e;stroke:#ff7f0e;" x="553.226485" xlink:href="#m7f8dea8741" y="445.889252"/>
     <use style="fill:#ff7f0e;stroke:#ff7f0e;" x="561.424832" xlink:href="#m7f8dea8741" y="451.205104"/>
     <use style="fill:#ff7f0e;stroke:#ff7f0e;" x="569.623179" xlink:href="#m7f8dea8741" y="455.377736"/>
     <use style="fill:#ff7f0e;stroke:#ff7f0e;" x="577.821526" xlink:href="#m7f8dea8741" y="458.675751"/>
     <use style="fill:#ff7f0e;stroke:#ff7f0e;" x="586.019873" xlink:href="#m7f8dea8741" y="461.302151"/>
     <use style="fill:#ff7f0e;stroke:#ff7f0e;" x="594.218221" xlink:href="#m7f8dea8741" y="463.409957"/>
     <use style="fill:#ff7f0e;stroke:#ff7f0e;" x="602.416568" xlink:href="#m7f8dea8741" y="465.11468"/>
     <use style="fill:#ff7f0e;stroke:#ff7f0e;" x="610.614915" xlink:href="#m7f8dea8741" y="466.503868"/>
     <use style="fill:#ff7f0e;stroke:#ff7f0e;" x="618.813262" xlink:href="#m7f8dea8741" y="467.644238"/>
     <use style="fill:#ff7f0e;stroke:#ff7f0e;" x="627.011609" xlink:href="#m7f8dea8741" y="468.586964"/>
     <use style="fill:#ff7f0e;stroke:#ff7f0e;" x="635.209956" xlink:href="#m7f8dea8741" y="469.371565"/>
     <use style="fill:#ff7f0e;stroke:#ff7f0e;" x="643.408303" xlink:href="#m7f8dea8741" y="470.028772"/>
     <use style="fill:#ff7f0e;stroke:#ff7f0e;" x="651.60665" xlink:href="#m7f8dea8741" y="470.582649"/>
     <use style="fill:#ff7f0e;stroke:#ff7f0e;" x="659.804997" xlink:href="#m7f8dea8741" y="471.052171"/>
     <use style="fill:#ff7f0e;stroke:#ff7f0e;" x="668.003345" xlink:href="#m7f8dea8741" y="471.452395"/>
     <use style="fill:#ff7f0e;stroke:#ff7f0e;" x="676.201692" xlink:href="#m7f8dea8741" y="471.79535"/>
     <use style="fill:#ff7f0e;stroke:#ff7f0e;" x="684.400039" xlink:href="#m7f8dea8741" y="472.090704"/>
     <use style="fill:#ff7f0e;stroke:#ff7f0e;" x="692.598386" xlink:href="#m7f8dea8741" y="472.346273"/>
     <use style="fill:#ff7f0e;stroke:#ff7f0e;" x="700.796733" xlink:href="#m7f8dea8741" y="472.568415"/>
     <use style="fill:#ff7f0e;stroke:#ff7f0e;" x="708.99508" xlink:href="#m7f8dea8741" y="472.762326"/>
     <use style="fill:#ff7f0e;stroke:#ff7f0e;" x="717.193427" xlink:href="#m7f8dea8741" y="472.93228"/>
     <use style="fill:#ff7f0e;stroke:#ff7f0e;" x="725.391774" xlink:href="#m7f8dea8741" y="473.081807"/>
     <use style="fill:#ff7f0e;stroke:#ff7f0e;" x="733.590121" xlink:href="#m7f8dea8741" y="473.213841"/>
     <use style="fill:#ff7f0e;stroke:#ff7f0e;" x="741.788468" xlink:href="#m7f8dea8741" y="473.330826"/>
     <use style="fill:#ff7f0e;stroke:#ff7f0e;" x="749.986816" xlink:href="#m7f8dea8741" y="473.434816"/>
     <use style="fill:#ff7f0e;stroke:#ff7f0e;" x="758.185163" xlink:href="#m7f8dea8741" y="473.527535"/>
     <use style="fill:#ff7f0e;stroke:#ff7f0e;" x="766.38351" xlink:href="#m7f8dea8741" y="473.610447"/>
     <use style="fill:#ff7f0e;stroke:#ff7f0e;" x="774.581857" xlink:href="#m7f8dea8741" y="473.68479"/>
     <use style="fill:#ff7f0e;stroke:#ff7f0e;" x="782.780204" xlink:href="#m7f8dea8741" y="473.751623"/>
     <use style="fill:#ff7f0e;stroke:#ff7f0e;" x="790.978551" xlink:href="#m7f8dea8741" y="473.811851"/>
     <use style="fill:#ff7f0e;stroke:#ff7f0e;" x="799.176898" xlink:href="#m7f8dea8741" y="473.866252"/>
     <use style="fill:#ff7f0e;stroke:#ff7f0e;" x="807.375245" xlink:href="#m7f8dea8741" y="473.915497"/>
     <use style="fill:#ff7f0e;stroke:#ff7f0e;" x="815.573592" xlink:href="#m7f8dea8741" y="473.960168"/>
     <use style="fill:#ff7f0e;stroke:#ff7f0e;" x="823.77194" xlink:href="#m7f8dea8741" y="474.000768"/>
     <use style="fill:#ff7f0e;stroke:#ff7f0e;" x="831.970287" xlink:href="#m7f8dea8741" y="474.037736"/>
     <use style="fill:#ff7f0e;stroke:#ff7f0e;" x="840.168634" xlink:href="#m7f8dea8741" y="474.071457"/>
     <use style="fill:#ff7f0e;stroke:#ff7f0e;" x="848.366981" xlink:href="#m7f8dea8741" y="474.102267"/>
     <use style="fill:#ff7f0e;stroke:#ff7f0e;" x="856.565328" xlink:href="#m7f8dea8741" y="474.130462"/>
     <use style="fill:#ff7f0e;stroke:#ff7f0e;" x="864.763675" xlink:href="#m7f8dea8741" y="474.156303"/>
     <use style="fill:#ff7f0e;stroke:#ff7f0e;" x="872.962022" xlink:href="#m7f8dea8741" y="474.18002"/>
     <use style="fill:#ff7f0e;stroke:#ff7f0e;" x="881.160369" xlink:href="#m7f8dea8741" y="474.201818"/>
    </g>
   </g>
   <g id="patch_3">
    <path d="M 28.942188 496.44 
L 28.942188 7.2 
" style="fill:none;stroke:#000000;stroke-linecap:square;stroke-linejoin:miter;stroke-width:0.8;"/>
   </g>
   <g id="patch_4">
    <path d="M 921.742188 496.44 
L 921.742188 7.2 
" style="fill:none;stroke:#000000;stroke-linecap:square;stroke-linejoin:miter;stroke-width:0.8;"/>
   </g>
   <g id="patch_5">
    <path d="M 28.942188 496.44 
L 921.742188 496.44 
" style="fill:none;stroke:#000000;stroke-linecap:square;stroke-linejoin:miter;stroke-width:0.8;"/>
   </g>
   <g id="patch_6">
    <path d="M 28.942188 7.2 
L 921.742188 7.2 
" style="fill:none;stroke:#000000;stroke-linecap:square;stroke-linejoin:miter;stroke-width:0.8;"/>
   </g>
   <g id="legend_1">
    <g id="patch_7">
     <path d="M 823.540625 44.55625 
L 914.742188 44.55625 
Q 916.742188 44.55625 916.742188 42.55625 
L 916.742188 14.2 
Q 916.742188 12.2 914.742188 12.2 
L 823.540625 12.2 
Q 821.540625 12.2 821.540625 14.2 
L 821.540625 42.55625 
Q 821.540625 44.55625 823.540625 44.55625 
z
" style="fill:#ffffff;opacity:0.8;stroke:#cccccc;stroke-linejoin:miter;"/>
    </g>
    <g id="line2d_17"/>
    <g id="line2d_18">
     <g>
      <use style="fill:#1f77b4;stroke:#1f77b4;" x="835.540625" xlink:href="#mc10fb0ec1b" y="20.298438"/>
     </g>
    </g>
    <g id="text_15">
     <!-- target -->
     <defs>
      <path d="M 18.3125 70.21875 
L 18.3125 54.6875 
L 36.8125 54.6875 
L 36.8125 47.703125 
L 18.3125 47.703125 
L 18.3125 18.015625 
Q 18.3125 11.328125 20.140625 9.421875 
Q 21.96875 7.515625 27.59375 7.515625 
L 36.8125 7.515625 
L 36.8125 0 
L 27.59375 0 
Q 17.1875 0 13.234375 3.875 
Q 9.28125 7.765625 9.28125 18.015625 
L 9.28125 47.703125 
L 2.6875 47.703125 
L 2.6875 54.6875 
L 9.28125 54.6875 
L 9.28125 70.21875 
z
" id="DejaVuSans-116"/>
      <path d="M 34.28125 27.484375 
Q 23.390625 27.484375 19.1875 25 
Q 14.984375 22.515625 14.984375 16.5 
Q 14.984375 11.71875 18.140625 8.90625 
Q 21.296875 6.109375 26.703125 6.109375 
Q 34.1875 6.109375 38.703125 11.40625 
Q 43.21875 16.703125 43.21875 25.484375 
L 43.21875 27.484375 
z
M 52.203125 31.203125 
L 52.203125 0 
L 43.21875 0 
L 43.21875 8.296875 
Q 40.140625 3.328125 35.546875 0.953125 
Q 30.953125 -1.421875 24.3125 -1.421875 
Q 15.921875 -1.421875 10.953125 3.296875 
Q 6 8.015625 6 15.921875 
Q 6 25.140625 12.171875 29.828125 
Q 18.359375 34.515625 30.609375 34.515625 
L 43.21875 34.515625 
L 43.21875 35.40625 
Q 43.21875 41.609375 39.140625 45 
Q 35.0625 48.390625 27.6875 48.390625 
Q 23 48.390625 18.546875 47.265625 
Q 14.109375 46.140625 10.015625 43.890625 
L 10.015625 52.203125 
Q 14.9375 54.109375 19.578125 55.046875 
Q 24.21875 56 28.609375 56 
Q 40.484375 56 46.34375 49.84375 
Q 52.203125 43.703125 52.203125 31.203125 
z
" id="DejaVuSans-97"/>
      <path d="M 41.109375 46.296875 
Q 39.59375 47.171875 37.8125 47.578125 
Q 36.03125 48 33.890625 48 
Q 26.265625 48 22.1875 43.046875 
Q 18.109375 38.09375 18.109375 28.8125 
L 18.109375 0 
L 9.078125 0 
L 9.078125 54.6875 
L 18.109375 54.6875 
L 18.109375 46.1875 
Q 20.953125 51.171875 25.484375 53.578125 
Q 30.03125 56 36.53125 56 
Q 37.453125 56 38.578125 55.875 
Q 39.703125 55.765625 41.0625 55.515625 
z
" id="DejaVuSans-114"/>
      <path d="M 45.40625 27.984375 
Q 45.40625 37.75 41.375 43.109375 
Q 37.359375 48.484375 30.078125 48.484375 
Q 22.859375 48.484375 18.828125 43.109375 
Q 14.796875 37.75 14.796875 27.984375 
Q 14.796875 18.265625 18.828125 12.890625 
Q 22.859375 7.515625 30.078125 7.515625 
Q 37.359375 7.515625 41.375 12.890625 
Q 45.40625 18.265625 45.40625 27.984375 
z
M 54.390625 6.78125 
Q 54.390625 -7.171875 48.1875 -13.984375 
Q 42 -20.796875 29.203125 -20.796875 
Q 24.46875 -20.796875 20.265625 -20.09375 
Q 16.0625 -19.390625 12.109375 -17.921875 
L 12.109375 -9.1875 
Q 16.0625 -11.328125 19.921875 -12.34375 
Q 23.78125 -13.375 27.78125 -13.375 
Q 36.625 -13.375 41.015625 -8.765625 
Q 45.40625 -4.15625 45.40625 5.171875 
L 45.40625 9.625 
Q 42.625 4.78125 38.28125 2.390625 
Q 33.9375 0 27.875 0 
Q 17.828125 0 11.671875 7.65625 
Q 5.515625 15.328125 5.515625 27.984375 
Q 5.515625 40.671875 11.671875 48.328125 
Q 17.828125 56 27.875 56 
Q 33.9375 56 38.28125 53.609375 
Q 42.625 51.21875 45.40625 46.390625 
L 45.40625 54.6875 
L 54.390625 54.6875 
z
" id="DejaVuSans-103"/>
      <path d="M 56.203125 29.59375 
L 56.203125 25.203125 
L 14.890625 25.203125 
Q 15.484375 15.921875 20.484375 11.0625 
Q 25.484375 6.203125 34.421875 6.203125 
Q 39.59375 6.203125 44.453125 7.46875 
Q 49.3125 8.734375 54.109375 11.28125 
L 54.109375 2.78125 
Q 49.265625 0.734375 44.1875 -0.34375 
Q 39.109375 -1.421875 33.890625 -1.421875 
Q 20.796875 -1.421875 13.15625 6.1875 
Q 5.515625 13.8125 5.515625 26.8125 
Q 5.515625 40.234375 12.765625 48.109375 
Q 20.015625 56 32.328125 56 
Q 43.359375 56 49.78125 48.890625 
Q 56.203125 41.796875 56.203125 29.59375 
z
M 47.21875 32.234375 
Q 47.125 39.59375 43.09375 43.984375 
Q 39.0625 48.390625 32.421875 48.390625 
Q 24.90625 48.390625 20.390625 44.140625 
Q 15.875 39.890625 15.1875 32.171875 
z
" id="DejaVuSans-101"/>
     </defs>
     <g transform="translate(853.540625 23.798438)scale(0.1 -0.1)">
      <use xlink:href="#DejaVuSans-116"/>
      <use x="39.208984" xlink:href="#DejaVuSans-97"/>
      <use x="100.488281" xlink:href="#DejaVuSans-114"/>
      <use x="141.585938" xlink:href="#DejaVuSans-103"/>
      <use x="205.0625" xlink:href="#DejaVuSans-101"/>
      <use x="266.585938" xlink:href="#DejaVuSans-116"/>
     </g>
    </g>
    <g id="line2d_19"/>
    <g id="line2d_20">
     <g>
      <use style="fill:#ff7f0e;stroke:#ff7f0e;" x="835.540625" xlink:href="#m7f8dea8741" y="34.976563"/>
     </g>
    </g>
    <g id="text_16">
     <!-- full network -->
     <defs>
      <path d="M 37.109375 75.984375 
L 37.109375 68.5 
L 28.515625 68.5 
Q 23.6875 68.5 21.796875 66.546875 
Q 19.921875 64.59375 19.921875 59.515625 
L 19.921875 54.6875 
L 34.71875 54.6875 
L 34.71875 47.703125 
L 19.921875 47.703125 
L 19.921875 0 
L 10.890625 0 
L 10.890625 47.703125 
L 2.296875 47.703125 
L 2.296875 54.6875 
L 10.890625 54.6875 
L 10.890625 58.5 
Q 10.890625 67.625 15.140625 71.796875 
Q 19.390625 75.984375 28.609375 75.984375 
z
" id="DejaVuSans-102"/>
      <path d="M 8.5 21.578125 
L 8.5 54.6875 
L 17.484375 54.6875 
L 17.484375 21.921875 
Q 17.484375 14.15625 20.5 10.265625 
Q 23.53125 6.390625 29.59375 6.390625 
Q 36.859375 6.390625 41.078125 11.03125 
Q 45.3125 15.671875 45.3125 23.6875 
L 45.3125 54.6875 
L 54.296875 54.6875 
L 54.296875 0 
L 45.3125 0 
L 45.3125 8.40625 
Q 42.046875 3.421875 37.71875 1 
Q 33.40625 -1.421875 27.6875 -1.421875 
Q 18.265625 -1.421875 13.375 4.4375 
Q 8.5 10.296875 8.5 21.578125 
z
M 31.109375 56 
z
" id="DejaVuSans-117"/>
      <path d="M 9.421875 75.984375 
L 18.40625 75.984375 
L 18.40625 0 
L 9.421875 0 
z
" id="DejaVuSans-108"/>
      <path id="DejaVuSans-32"/>
      <path d="M 54.890625 33.015625 
L 54.890625 0 
L 45.90625 0 
L 45.90625 32.71875 
Q 45.90625 40.484375 42.875 44.328125 
Q 39.84375 48.1875 33.796875 48.1875 
Q 26.515625 48.1875 22.3125 43.546875 
Q 18.109375 38.921875 18.109375 30.90625 
L 18.109375 0 
L 9.078125 0 
L 9.078125 54.6875 
L 18.109375 54.6875 
L 18.109375 46.1875 
Q 21.34375 51.125 25.703125 53.5625 
Q 30.078125 56 35.796875 56 
Q 45.21875 56 50.046875 50.171875 
Q 54.890625 44.34375 54.890625 33.015625 
z
" id="DejaVuSans-110"/>
      <path d="M 4.203125 54.6875 
L 13.1875 54.6875 
L 24.421875 12.015625 
L 35.59375 54.6875 
L 46.1875 54.6875 
L 57.421875 12.015625 
L 68.609375 54.6875 
L 77.59375 54.6875 
L 63.28125 0 
L 52.6875 0 
L 40.921875 44.828125 
L 29.109375 0 
L 18.5 0 
z
" id="DejaVuSans-119"/>
      <path d="M 30.609375 48.390625 
Q 23.390625 48.390625 19.1875 42.75 
Q 14.984375 37.109375 14.984375 27.296875 
Q 14.984375 17.484375 19.15625 11.84375 
Q 23.34375 6.203125 30.609375 6.203125 
Q 37.796875 6.203125 41.984375 11.859375 
Q 46.1875 17.53125 46.1875 27.296875 
Q 46.1875 37.015625 41.984375 42.703125 
Q 37.796875 48.390625 30.609375 48.390625 
z
M 30.609375 56 
Q 42.328125 56 49.015625 48.375 
Q 55.71875 40.765625 55.71875 27.296875 
Q 55.71875 13.875 49.015625 6.21875 
Q 42.328125 -1.421875 30.609375 -1.421875 
Q 18.84375 -1.421875 12.171875 6.21875 
Q 5.515625 13.875 5.515625 27.296875 
Q 5.515625 40.765625 12.171875 48.375 
Q 18.84375 56 30.609375 56 
z
" id="DejaVuSans-111"/>
      <path d="M 9.078125 75.984375 
L 18.109375 75.984375 
L 18.109375 31.109375 
L 44.921875 54.6875 
L 56.390625 54.6875 
L 27.390625 29.109375 
L 57.625 0 
L 45.90625 0 
L 18.109375 26.703125 
L 18.109375 0 
L 9.078125 0 
z
" id="DejaVuSans-107"/>
     </defs>
     <g transform="translate(853.540625 38.476563)scale(0.1 -0.1)">
      <use xlink:href="#DejaVuSans-102"/>
      <use x="35.205078" xlink:href="#DejaVuSans-117"/>
      <use x="98.583984" xlink:href="#DejaVuSans-108"/>
      <use x="126.367188" xlink:href="#DejaVuSans-108"/>
      <use x="154.150391" xlink:href="#DejaVuSans-32"/>
      <use x="185.9375" xlink:href="#DejaVuSans-110"/>
      <use x="249.316406" xlink:href="#DejaVuSans-101"/>
      <use x="310.839844" xlink:href="#DejaVuSans-116"/>
      <use x="350.048828" xlink:href="#DejaVuSans-119"/>
      <use x="431.835938" xlink:href="#DejaVuSans-111"/>
      <use x="493.017578" xlink:href="#DejaVuSans-114"/>
      <use x="534.130859" xlink:href="#DejaVuSans-107"/>
     </g>
    </g>
   </g>
  </g>
 </g>
 <defs>
  <clipPath id="p5ed22f9339">
   <rect height="489.24" width="892.8" x="28.942188" y="7.2"/>
  </clipPath>
 </defs>
</svg>
