<?xml version="1.0" encoding="utf-8" standalone="no"?>
<!DOCTYPE svg PUBLIC "-//W3C//DTD SVG 1.1//EN"
  "http://www.w3.org/Graphics/SVG/1.1/DTD/svg11.dtd">
<!-- Created with matplotlib (https://matplotlib.org/) -->
<svg height="520.318125pt" version="1.1" viewBox="0 0 928.942187 520.318125" width="928.942187pt" xmlns="http://www.w3.org/2000/svg" xmlns:xlink="http://www.w3.org/1999/xlink">
 <defs>
  <style type="text/css">
*{stroke-linecap:butt;stroke-linejoin:round;}
  </style>
 </defs>
 <g id="figure_1">
  <g id="patch_1">
   <path d="M 0 520.318125 
L 928.942187 520.318125 
L 928.942187 0 
L 0 0 
z
" style="fill:none;"/>
  </g>
  <g id="axes_1">
   <g id="patch_2">
    <path d="M 28.942188 496.44 
L 921.742188 496.44 
L 921.742188 7.2 
L 28.942188 7.2 
z
" style="fill:#ffffff;"/>
   </g>
   <g id="matplotlib.axis_1">
    <g id="xtick_1">
     <g id="line2d_1">
      <defs>
       <path d="M 0 0 
L 0 3.5 
" id="mecfc193cd2" style="stroke:#000000;stroke-width:0.8;"/>
      </defs>
      <g>
       <use style="stroke:#000000;stroke-width:0.8;" x="69.524006" xlink:href="#mecfc193cd2" y="496.44"/>
      </g>
     </g>
     <g id="text_1">
      <!-- 0 -->
      <defs>
       <path d="M 31.78125 66.40625 
Q 24.171875 66.40625 20.328125 58.90625 
Q 16.5 51.421875 16.5 36.375 
Q 16.5 21.390625 20.328125 13.890625 
Q 24.171875 6.390625 31.78125 6.390625 
Q 39.453125 6.390625 43.28125 13.890625 
Q 47.125 21.390625 47.125 36.375 
Q 47.125 51.421875 43.28125 58.90625 
Q 39.453125 66.40625 31.78125 66.40625 
z
M 31.78125 74.21875 
Q 44.046875 74.21875 50.515625 64.515625 
Q 56.984375 54.828125 56.984375 36.375 
Q 56.984375 17.96875 50.515625 8.265625 
Q 44.046875 -1.421875 31.78125 -1.421875 
Q 19.53125 -1.421875 13.0625 8.265625 
Q 6.59375 17.96875 6.59375 36.375 
Q 6.59375 54.828125 13.0625 64.515625 
Q 19.53125 74.21875 31.78125 74.21875 
z
" id="DejaVuSans-48"/>
      </defs>
      <g transform="translate(66.342756 511.038437)scale(0.1 -0.1)">
       <use xlink:href="#DejaVuSans-48"/>
      </g>
     </g>
    </g>
    <g id="xtick_2">
     <g id="line2d_2">
      <g>
       <use style="stroke:#000000;stroke-width:0.8;" x="171.029304" xlink:href="#mecfc193cd2" y="496.44"/>
      </g>
     </g>
     <g id="text_2">
      <!-- 250 -->
      <defs>
       <path d="M 19.1875 8.296875 
L 53.609375 8.296875 
L 53.609375 0 
L 7.328125 0 
L 7.328125 8.296875 
Q 12.9375 14.109375 22.625 23.890625 
Q 32.328125 33.6875 34.8125 36.53125 
Q 39.546875 41.84375 41.421875 45.53125 
Q 43.3125 49.21875 43.3125 52.78125 
Q 43.3125 58.59375 39.234375 62.25 
Q 35.15625 65.921875 28.609375 65.921875 
Q 23.96875 65.921875 18.8125 64.3125 
Q 13.671875 62.703125 7.8125 59.421875 
L 7.8125 69.390625 
Q 13.765625 71.78125 18.9375 73 
Q 24.125 74.21875 28.421875 74.21875 
Q 39.75 74.21875 46.484375 68.546875 
Q 53.21875 62.890625 53.21875 53.421875 
Q 53.21875 48.921875 51.53125 44.890625 
Q 49.859375 40.875 45.40625 35.40625 
Q 44.1875 33.984375 37.640625 27.21875 
Q 31.109375 20.453125 19.1875 8.296875 
z
" id="DejaVuSans-50"/>
       <path d="M 10.796875 72.90625 
L 49.515625 72.90625 
L 49.515625 64.59375 
L 19.828125 64.59375 
L 19.828125 46.734375 
Q 21.96875 47.46875 24.109375 47.828125 
Q 26.265625 48.1875 28.421875 48.1875 
Q 40.625 48.1875 47.75 41.5 
Q 54.890625 34.8125 54.890625 23.390625 
Q 54.890625 11.625 47.5625 5.09375 
Q 40.234375 -1.421875 26.90625 -1.421875 
Q 22.3125 -1.421875 17.546875 -0.640625 
Q 12.796875 0.140625 7.71875 1.703125 
L 7.71875 11.625 
Q 12.109375 9.234375 16.796875 8.0625 
Q 21.484375 6.890625 26.703125 6.890625 
Q 35.15625 6.890625 40.078125 11.328125 
Q 45.015625 15.765625 45.015625 23.390625 
Q 45.015625 31 40.078125 35.4375 
Q 35.15625 39.890625 26.703125 39.890625 
Q 22.75 39.890625 18.8125 39.015625 
Q 14.890625 38.140625 10.796875 36.28125 
z
" id="DejaVuSans-53"/>
      </defs>
      <g transform="translate(161.485554 511.038437)scale(0.1 -0.1)">
       <use xlink:href="#DejaVuSans-50"/>
       <use x="63.623047" xlink:href="#DejaVuSans-53"/>
       <use x="127.246094" xlink:href="#DejaVuSans-48"/>
      </g>
     </g>
    </g>
    <g id="xtick_3">
     <g id="line2d_3">
      <g>
       <use style="stroke:#000000;stroke-width:0.8;" x="272.534602" xlink:href="#mecfc193cd2" y="496.44"/>
      </g>
     </g>
     <g id="text_3">
      <!-- 500 -->
      <g transform="translate(262.990852 511.038437)scale(0.1 -0.1)">
       <use xlink:href="#DejaVuSans-53"/>
       <use x="63.623047" xlink:href="#DejaVuSans-48"/>
       <use x="127.246094" xlink:href="#DejaVuSans-48"/>
      </g>
     </g>
    </g>
    <g id="xtick_4">
     <g id="line2d_4">
      <g>
       <use style="stroke:#000000;stroke-width:0.8;" x="374.0399" xlink:href="#mecfc193cd2" y="496.44"/>
      </g>
     </g>
     <g id="text_4">
      <!-- 750 -->
      <defs>
       <path d="M 8.203125 72.90625 
L 55.078125 72.90625 
L 55.078125 68.703125 
L 28.609375 0 
L 18.3125 0 
L 43.21875 64.59375 
L 8.203125 64.59375 
z
" id="DejaVuSans-55"/>
      </defs>
      <g transform="translate(364.49615 511.038437)scale(0.1 -0.1)">
       <use xlink:href="#DejaVuSans-55"/>
       <use x="63.623047" xlink:href="#DejaVuSans-53"/>
       <use x="127.246094" xlink:href="#DejaVuSans-48"/>
      </g>
     </g>
    </g>
    <g id="xtick_5">
     <g id="line2d_5">
      <g>
       <use style="stroke:#000000;stroke-width:0.8;" x="475.545198" xlink:href="#mecfc193cd2" y="496.44"/>
      </g>
     </g>
     <g id="text_5">
      <!-- 1000 -->
      <defs>
       <path d="M 12.40625 8.296875 
L 28.515625 8.296875 
L 28.515625 63.921875 
L 10.984375 60.40625 
L 10.984375 69.390625 
L 28.421875 72.90625 
L 38.28125 72.90625 
L 38.28125 8.296875 
L 54.390625 8.296875 
L 54.390625 0 
L 12.40625 0 
z
" id="DejaVuSans-49"/>
      </defs>
      <g transform="translate(462.820198 511.038437)scale(0.1 -0.1)">
       <use xlink:href="#DejaVuSans-49"/>
       <use x="63.623047" xlink:href="#DejaVuSans-48"/>
       <use x="127.246094" xlink:href="#DejaVuSans-48"/>
       <use x="190.869141" xlink:href="#DejaVuSans-48"/>
      </g>
     </g>
    </g>
    <g id="xtick_6">
     <g id="line2d_6">
      <g>
       <use style="stroke:#000000;stroke-width:0.8;" x="577.050496" xlink:href="#mecfc193cd2" y="496.44"/>
      </g>
     </g>
     <g id="text_6">
      <!-- 1250 -->
      <g transform="translate(564.325496 511.038437)scale(0.1 -0.1)">
       <use xlink:href="#DejaVuSans-49"/>
       <use x="63.623047" xlink:href="#DejaVuSans-50"/>
       <use x="127.246094" xlink:href="#DejaVuSans-53"/>
       <use x="190.869141" xlink:href="#DejaVuSans-48"/>
      </g>
     </g>
    </g>
    <g id="xtick_7">
     <g id="line2d_7">
      <g>
       <use style="stroke:#000000;stroke-width:0.8;" x="678.555794" xlink:href="#mecfc193cd2" y="496.44"/>
      </g>
     </g>
     <g id="text_7">
      <!-- 1500 -->
      <g transform="translate(665.830794 511.038437)scale(0.1 -0.1)">
       <use xlink:href="#DejaVuSans-49"/>
       <use x="63.623047" xlink:href="#DejaVuSans-53"/>
       <use x="127.246094" xlink:href="#DejaVuSans-48"/>
       <use x="190.869141" xlink:href="#DejaVuSans-48"/>
      </g>
     </g>
    </g>
    <g id="xtick_8">
     <g id="line2d_8">
      <g>
       <use style="stroke:#000000;stroke-width:0.8;" x="780.061092" xlink:href="#mecfc193cd2" y="496.44"/>
      </g>
     </g>
     <g id="text_8">
      <!-- 1750 -->
      <g transform="translate(767.336092 511.038437)scale(0.1 -0.1)">
       <use xlink:href="#DejaVuSans-49"/>
       <use x="63.623047" xlink:href="#DejaVuSans-55"/>
       <use x="127.246094" xlink:href="#DejaVuSans-53"/>
       <use x="190.869141" xlink:href="#DejaVuSans-48"/>
      </g>
     </g>
    </g>
    <g id="xtick_9">
     <g id="line2d_9">
      <g>
       <use style="stroke:#000000;stroke-width:0.8;" x="881.566391" xlink:href="#mecfc193cd2" y="496.44"/>
      </g>
     </g>
     <g id="text_9">
      <!-- 2000 -->
      <g transform="translate(868.841391 511.038437)scale(0.1 -0.1)">
       <use xlink:href="#DejaVuSans-50"/>
       <use x="63.623047" xlink:href="#DejaVuSans-48"/>
       <use x="127.246094" xlink:href="#DejaVuSans-48"/>
       <use x="190.869141" xlink:href="#DejaVuSans-48"/>
      </g>
     </g>
    </g>
   </g>
   <g id="matplotlib.axis_2">
    <g id="ytick_1">
     <g id="line2d_10">
      <defs>
       <path d="M 0 0 
L -3.5 0 
" id="m0eb0a886ca" style="stroke:#000000;stroke-width:0.8;"/>
      </defs>
      <g>
       <use style="stroke:#000000;stroke-width:0.8;" x="28.942188" xlink:href="#m0eb0a886ca" y="479.058149"/>
      </g>
     </g>
     <g id="text_10">
      <!-- −6 -->
      <defs>
       <path d="M 10.59375 35.5 
L 73.1875 35.5 
L 73.1875 27.203125 
L 10.59375 27.203125 
z
" id="DejaVuSans-8722"/>
       <path d="M 33.015625 40.375 
Q 26.375 40.375 22.484375 35.828125 
Q 18.609375 31.296875 18.609375 23.390625 
Q 18.609375 15.53125 22.484375 10.953125 
Q 26.375 6.390625 33.015625 6.390625 
Q 39.65625 6.390625 43.53125 10.953125 
Q 47.40625 15.53125 47.40625 23.390625 
Q 47.40625 31.296875 43.53125 35.828125 
Q 39.65625 40.375 33.015625 40.375 
z
M 52.59375 71.296875 
L 52.59375 62.3125 
Q 48.875 64.0625 45.09375 64.984375 
Q 41.3125 65.921875 37.59375 65.921875 
Q 27.828125 65.921875 22.671875 59.328125 
Q 17.53125 52.734375 16.796875 39.40625 
Q 19.671875 43.65625 24.015625 45.921875 
Q 28.375 48.1875 33.59375 48.1875 
Q 44.578125 48.1875 50.953125 41.515625 
Q 57.328125 34.859375 57.328125 23.390625 
Q 57.328125 12.15625 50.6875 5.359375 
Q 44.046875 -1.421875 33.015625 -1.421875 
Q 20.359375 -1.421875 13.671875 8.265625 
Q 6.984375 17.96875 6.984375 36.375 
Q 6.984375 53.65625 15.1875 63.9375 
Q 23.390625 74.21875 37.203125 74.21875 
Q 40.921875 74.21875 44.703125 73.484375 
Q 48.484375 72.75 52.59375 71.296875 
z
" id="DejaVuSans-54"/>
      </defs>
      <g transform="translate(7.2 482.857367)scale(0.1 -0.1)">
       <use xlink:href="#DejaVuSans-8722"/>
       <use x="83.789062" xlink:href="#DejaVuSans-54"/>
      </g>
     </g>
    </g>
    <g id="ytick_2">
     <g id="line2d_11">
      <g>
       <use style="stroke:#000000;stroke-width:0.8;" x="28.942188" xlink:href="#m0eb0a886ca" y="404.121488"/>
      </g>
     </g>
     <g id="text_11">
      <!-- −5 -->
      <g transform="translate(7.2 407.920706)scale(0.1 -0.1)">
       <use xlink:href="#DejaVuSans-8722"/>
       <use x="83.789062" xlink:href="#DejaVuSans-53"/>
      </g>
     </g>
    </g>
    <g id="ytick_3">
     <g id="line2d_12">
      <g>
       <use style="stroke:#000000;stroke-width:0.8;" x="28.942188" xlink:href="#m0eb0a886ca" y="329.184826"/>
      </g>
     </g>
     <g id="text_12">
      <!-- −4 -->
      <defs>
       <path d="M 37.796875 64.3125 
L 12.890625 25.390625 
L 37.796875 25.390625 
z
M 35.203125 72.90625 
L 47.609375 72.90625 
L 47.609375 25.390625 
L 58.015625 25.390625 
L 58.015625 17.1875 
L 47.609375 17.1875 
L 47.609375 0 
L 37.796875 0 
L 37.796875 17.1875 
L 4.890625 17.1875 
L 4.890625 26.703125 
z
" id="DejaVuSans-52"/>
      </defs>
      <g transform="translate(7.2 332.984045)scale(0.1 -0.1)">
       <use xlink:href="#DejaVuSans-8722"/>
       <use x="83.789062" xlink:href="#DejaVuSans-52"/>
      </g>
     </g>
    </g>
    <g id="ytick_4">
     <g id="line2d_13">
      <g>
       <use style="stroke:#000000;stroke-width:0.8;" x="28.942188" xlink:href="#m0eb0a886ca" y="254.248165"/>
      </g>
     </g>
     <g id="text_13">
      <!-- −3 -->
      <defs>
       <path d="M 40.578125 39.3125 
Q 47.65625 37.796875 51.625 33 
Q 55.609375 28.21875 55.609375 21.1875 
Q 55.609375 10.40625 48.1875 4.484375 
Q 40.765625 -1.421875 27.09375 -1.421875 
Q 22.515625 -1.421875 17.65625 -0.515625 
Q 12.796875 0.390625 7.625 2.203125 
L 7.625 11.71875 
Q 11.71875 9.328125 16.59375 8.109375 
Q 21.484375 6.890625 26.8125 6.890625 
Q 36.078125 6.890625 40.9375 10.546875 
Q 45.796875 14.203125 45.796875 21.1875 
Q 45.796875 27.640625 41.28125 31.265625 
Q 36.765625 34.90625 28.71875 34.90625 
L 20.21875 34.90625 
L 20.21875 43.015625 
L 29.109375 43.015625 
Q 36.375 43.015625 40.234375 45.921875 
Q 44.09375 48.828125 44.09375 54.296875 
Q 44.09375 59.90625 40.109375 62.90625 
Q 36.140625 65.921875 28.71875 65.921875 
Q 24.65625 65.921875 20.015625 65.03125 
Q 15.375 64.15625 9.8125 62.3125 
L 9.8125 71.09375 
Q 15.4375 72.65625 20.34375 73.4375 
Q 25.25 74.21875 29.59375 74.21875 
Q 40.828125 74.21875 47.359375 69.109375 
Q 53.90625 64.015625 53.90625 55.328125 
Q 53.90625 49.265625 50.4375 45.09375 
Q 46.96875 40.921875 40.578125 39.3125 
z
" id="DejaVuSans-51"/>
      </defs>
      <g transform="translate(7.2 258.047384)scale(0.1 -0.1)">
       <use xlink:href="#DejaVuSans-8722"/>
       <use x="83.789062" xlink:href="#DejaVuSans-51"/>
      </g>
     </g>
    </g>
    <g id="ytick_5">
     <g id="line2d_14">
      <g>
       <use style="stroke:#000000;stroke-width:0.8;" x="28.942188" xlink:href="#m0eb0a886ca" y="179.311504"/>
      </g>
     </g>
     <g id="text_14">
      <!-- −2 -->
      <g transform="translate(7.2 183.110723)scale(0.1 -0.1)">
       <use xlink:href="#DejaVuSans-8722"/>
       <use x="83.789062" xlink:href="#DejaVuSans-50"/>
      </g>
     </g>
    </g>
    <g id="ytick_6">
     <g id="line2d_15">
      <g>
       <use style="stroke:#000000;stroke-width:0.8;" x="28.942188" xlink:href="#m0eb0a886ca" y="104.374843"/>
      </g>
     </g>
     <g id="text_15">
      <!-- −1 -->
      <g transform="translate(7.2 108.174062)scale(0.1 -0.1)">
       <use xlink:href="#DejaVuSans-8722"/>
       <use x="83.789062" xlink:href="#DejaVuSans-49"/>
      </g>
     </g>
    </g>
    <g id="ytick_7">
     <g id="line2d_16">
      <g>
       <use style="stroke:#000000;stroke-width:0.8;" x="28.942188" xlink:href="#m0eb0a886ca" y="29.438182"/>
      </g>
     </g>
     <g id="text_16">
      <!-- 0 -->
      <g transform="translate(15.579688 33.237401)scale(0.1 -0.1)">
       <use xlink:href="#DejaVuSans-48"/>
      </g>
     </g>
    </g>
   </g>
   <g id="line2d_17">
    <path clip-path="url(#p6b5044bc57)" d="M 69.524006 230.286041 
L 69.930027 61.279512 
L 70.336048 140.291144 
L 70.742069 327.917119 
L 71.14809 352.869236 
L 71.554112 295.164837 
L 71.960133 445.409163 
L 72.366154 59.060622 
L 72.772175 247.481303 
L 73.178196 250.702931 
L 73.584218 156.496765 
L 73.990239 89.935163 
L 74.39626 318.983517 
L 74.802281 325.855186 
L 75.208302 31.221853 
L 75.614324 29.524274 
L 76.020345 249.863926 
L 76.426366 279.329625 
L 76.832387 258.708194 
L 77.238408 61.671044 
L 77.64443 259.011406 
L 78.050451 305.56589 
L 78.456472 43.266643 
L 78.862493 32.936369 
L 79.268514 29.438182 
L 79.674535 247.481303 
L 80.080557 250.255091 
L 80.486578 134.580236 
L 80.892599 195.474708 
L 81.29862 361.868185 
L 81.704641 318.046364 
L 82.110663 138.656537 
L 82.516684 444.36751 
L 82.922705 356.697208 
L 83.328726 29.438182 
L 83.734747 293.060561 
L 84.140769 193.226984 
L 84.54679 244.402873 
L 84.952811 90.587241 
L 85.358832 125.305376 
L 85.764853 355.443593 
L 86.170875 29.438182 
L 86.576896 29.438182 
L 86.982917 89.870534 
L 87.388938 316.384202 
L 87.794959 225.498795 
L 88.200981 29.438182 
L 88.607002 68.805335 
L 89.013023 256.652897 
L 89.419044 118.240635 
L 89.825065 38.347183 
L 90.231086 47.105454 
L 90.637108 68.805335 
L 91.043129 128.273539 
L 91.44915 242.063081 
L 91.855171 155.591753 
L 92.261192 251.558108 
L 92.667214 47.099702 
L 93.073235 63.223001 
L 93.479256 300.110992 
L 93.885277 465.673639 
L 94.291298 71.38417 
L 94.69732 465.346274 
L 95.509362 118.726937 
L 95.915383 56.180255 
L 96.321404 33.324861 
L 96.727426 59.922536 
L 97.133447 352.921182 
L 97.539468 156.496765 
L 97.945489 473.073229 
L 98.35151 474.201818 
L 98.757532 56.782093 
L 99.163553 60.693803 
L 99.569574 449.958711 
L 99.975595 56.125494 
L 100.381616 57.234316 
L 100.787637 219.718459 
L 101.193659 257.560975 
L 101.59968 109.132001 
L 102.005701 250.702931 
L 102.411722 46.793545 
L 102.817743 149.998508 
L 103.223765 365.527745 
L 103.629786 449.560209 
L 104.441828 47.095017 
L 104.847849 450.22027 
L 105.253871 29.438182 
L 105.659892 78.968688 
L 106.065913 46.297467 
L 106.471934 359.931309 
L 106.877955 138.139402 
L 107.283977 380.51631 
L 107.689998 323.265373 
L 108.096019 241.718634 
L 108.50204 71.507514 
L 108.908061 431.662404 
L 109.314083 35.538405 
L 109.720104 33.965686 
L 110.126125 124.463083 
L 110.532146 46.759665 
L 110.938167 29.438182 
L 111.344189 318.046364 
L 111.75021 100.015219 
L 112.156231 330.666597 
L 112.562252 298.268591 
L 112.968273 342.365427 
L 113.780316 133.025924 
L 114.186337 137.56036 
L 114.592358 29.438182 
L 114.998379 60.052023 
L 115.4044 109.132001 
L 115.810422 34.101729 
L 116.216443 29.438182 
L 116.622464 331.74953 
L 117.028485 295.347632 
L 117.434506 29.438182 
L 117.840528 47.404385 
L 118.246549 48.66865 
L 119.058591 338.975231 
L 119.464612 97.851305 
L 119.870634 56.125494 
L 120.276655 328.47681 
L 120.682676 46.297467 
L 121.088697 307.544681 
L 121.494718 259.265909 
L 121.90074 251.755704 
L 122.306761 272.824657 
L 122.712782 30.457981 
L 123.118803 39.907732 
L 123.524824 243.85554 
L 123.930845 258.343092 
L 124.336867 202.520408 
L 124.742888 29.438182 
L 125.148909 231.57701 
L 125.55493 112.003921 
L 125.960951 29.438182 
L 126.366973 57.062554 
L 126.772994 29.438182 
L 127.179015 29.438182 
L 127.585036 234.293016 
L 127.991057 53.672796 
L 128.397079 316.384202 
L 128.8031 39.622648 
L 129.209121 125.610442 
L 129.615142 36.319718 
L 130.021163 144.065385 
L 130.427185 80.705172 
L 130.833206 307.245358 
L 131.239227 448.348902 
L 131.645248 29.438182 
L 132.051269 48.801547 
L 132.457291 35.538405 
L 132.863312 47.351046 
L 133.269333 249.056301 
L 133.675354 57.057466 
L 134.081375 243.69559 
L 134.487396 317.608345 
L 134.893418 71.95459 
L 135.299439 247.481303 
L 135.70546 29.438182 
L 136.111481 57.406581 
L 136.517502 139.693002 
L 136.923524 59.922536 
L 137.329545 43.113735 
L 137.735566 61.671044 
L 138.141587 71.507514 
L 138.547608 29.438182 
L 138.95363 47.162145 
L 139.359651 29.438182 
L 139.765672 35.998572 
L 140.171693 29.438182 
L 140.983736 159.279554 
L 141.389757 465.09495 
L 141.795778 29.438182 
L 142.201799 465.471579 
L 142.60782 250.852359 
L 143.013842 293.458505 
L 143.419863 29.438182 
L 143.825884 258.768594 
L 144.231905 29.438182 
L 144.637926 57.059822 
L 145.043947 450.22027 
L 145.449969 39.845675 
L 145.85599 29.438182 
L 146.262011 39.830907 
L 146.668032 127.003388 
L 147.074053 459.019322 
L 147.480075 29.438182 
L 147.886096 29.438182 
L 148.292117 234.292359 
L 148.698138 156.07605 
L 149.104159 259.243062 
L 149.510181 29.438182 
L 149.916202 48.353361 
L 150.322223 42.911769 
L 150.728244 244.022152 
L 151.540287 29.438182 
L 151.946308 84.932069 
L 152.352329 29.438182 
L 152.75835 47.121166 
L 153.164371 369.619966 
L 153.570393 39.622648 
L 153.976414 55.263329 
L 154.382435 122.126491 
L 154.788456 257.669256 
L 155.194477 57.028744 
L 155.600498 36.319718 
L 156.00652 68.024833 
L 156.412541 29.438182 
L 156.818562 444.36751 
L 157.224583 70.367216 
L 157.630604 423.262803 
L 158.036626 351.225259 
L 158.442647 230.725535 
L 158.848668 56.125494 
L 159.254689 60.693803 
L 160.066732 29.52479 
L 160.472753 68.650429 
L 160.878774 48.353361 
L 161.284795 304.856656 
L 161.690816 67.632443 
L 162.096838 354.717586 
L 162.502859 29.438182 
L 162.90888 29.438182 
L 163.314901 51.012869 
L 163.720922 31.221853 
L 164.126944 37.756775 
L 164.532965 56.782093 
L 164.938986 38.647196 
L 165.345007 302.678586 
L 166.157049 60.31114 
L 166.563071 352.869236 
L 166.969092 29.438182 
L 167.375113 340.209542 
L 167.781134 29.438182 
L 168.187155 29.438182 
L 168.593177 57.47061 
L 168.999198 45.247511 
L 169.405219 342.251522 
L 169.81124 42.371932 
L 170.217261 225.498795 
L 170.623283 338.437029 
L 171.029304 70.367216 
L 171.841346 325.039337 
L 172.247367 31.05347 
L 172.653389 29.438182 
L 173.05941 361.868185 
L 173.465431 57.403829 
L 173.871452 36.319718 
L 174.277473 29.438182 
L 174.683495 29.438182 
L 175.089516 47.302761 
L 175.495537 403.995015 
L 175.901558 29.438182 
L 176.307579 292.447111 
L 176.7136 46.759665 
L 177.119622 37.344075 
L 177.525643 61.963271 
L 177.931664 179.392449 
L 178.337685 29.438182 
L 179.149728 29.438182 
L 179.555749 47.259779 
L 179.96177 47.240296 
L 180.367791 301.953603 
L 180.773812 278.553656 
L 181.179834 32.168771 
L 181.585855 53.860685 
L 181.991876 29.438182 
L 182.397897 29.438182 
L 182.803918 63.211243 
L 183.20994 29.438182 
L 183.615961 349.146679 
L 184.021982 365.251397 
L 184.428003 324.431433 
L 184.834024 29.438182 
L 185.240046 101.102127 
L 185.646067 29.524274 
L 186.052088 390.378857 
L 186.458109 244.47568 
L 186.86413 351.770302 
L 187.270151 35.976 
L 187.676173 241.741812 
L 188.082194 85.515139 
L 188.488215 309.552961 
L 188.894236 42.911769 
L 189.300257 374.879244 
L 189.706279 121.896281 
L 190.1123 189.333552 
L 190.518321 237.889067 
L 190.924342 39.874122 
L 191.330363 29.438182 
L 191.736385 29.438182 
L 192.142406 90.192803 
L 192.548427 56.925201 
L 192.954448 245.679432 
L 193.360469 29.438182 
L 193.766491 341.549998 
L 194.172512 29.438182 
L 194.578533 244.341301 
L 194.984554 48.66865 
L 195.390575 60.041914 
L 195.796597 230.725535 
L 196.202618 29.943143 
L 196.608639 245.506205 
L 197.01466 29.438182 
L 197.420681 92.612908 
L 197.826702 46.776298 
L 198.232724 39.907732 
L 198.638745 122.592423 
L 199.044766 325.855186 
L 199.450787 88.107415 
L 199.856808 29.438182 
L 200.26283 64.53538 
L 200.668851 57.033114 
L 201.074872 31.221853 
L 201.480893 303.203204 
L 201.886914 29.438182 
L 202.292936 257.669256 
L 202.698957 29.438182 
L 203.104978 257.978284 
L 203.510999 243.896198 
L 203.91702 224.348608 
L 204.323042 42.371932 
L 204.729063 42.120261 
L 205.135084 70.367216 
L 205.541105 153.346069 
L 205.947126 328.907769 
L 206.353148 39.622648 
L 206.759169 29.438182 
L 207.16519 307.245358 
L 207.571211 346.528245 
L 207.977232 350.482791 
L 208.789275 110.239221 
L 209.195296 47.884781 
L 209.601317 350.859905 
L 210.007338 169.56819 
L 210.413359 85.469215 
L 210.819381 130.547488 
L 211.225402 46.759665 
L 211.631423 42.504311 
L 212.037444 46.62707 
L 212.443465 89.861931 
L 212.849487 38.647196 
L 213.255508 243.508103 
L 213.661529 323.84641 
L 214.06755 63.390144 
L 214.473571 243.826936 
L 214.879593 319.965265 
L 215.285614 52.931101 
L 215.691635 39.622648 
L 216.097656 77.001081 
L 216.503677 251.515246 
L 216.909699 176.567406 
L 217.31572 53.860685 
L 217.721741 91.136572 
L 218.127762 57.028744 
L 218.533783 48.353361 
L 218.939804 32.955617 
L 219.345826 55.629698 
L 219.751847 274.599051 
L 220.157868 224.477947 
L 220.563889 71.006716 
L 220.96991 269.27178 
L 221.375932 91.538691 
L 221.781953 298.268591 
L 222.187974 161.364026 
L 222.593995 123.365459 
L 223.000016 358.140528 
L 223.406038 70.367216 
L 223.812059 46.787114 
L 224.21808 121.570567 
L 224.624101 56.678774 
L 225.030122 345.270704 
L 225.436144 52.052561 
L 225.842165 47.405442 
L 226.248186 47.105454 
L 226.654207 271.658247 
L 227.060228 47.404385 
L 227.46625 47.103389 
L 227.872271 47.69014 
L 228.278292 29.438182 
L 228.684313 47.924572 
L 229.090334 49.783506 
L 229.496355 46.829212 
L 229.902377 89.870534 
L 230.308398 29.438182 
L 230.714419 46.762073 
L 231.12044 29.438182 
L 232.744525 29.438182 
L 233.150546 38.647196 
L 233.556567 55.932845 
L 233.962589 47.156937 
L 234.36861 46.787114 
L 234.774631 29.438182 
L 235.180652 29.438182 
L 235.586673 121.557251 
L 235.992695 464.045068 
L 236.398716 39.859761 
L 236.804737 29.438182 
L 237.210758 46.776298 
L 237.616779 465.868579 
L 238.022801 49.783506 
L 238.428822 344.861984 
L 238.834843 36.319718 
L 239.240864 389.159111 
L 239.646885 320.874405 
L 240.052906 29.438182 
L 240.458928 54.96645 
L 240.864949 47.105454 
L 241.27097 315.785479 
L 241.676991 237.889067 
L 242.083012 258.768594 
L 242.489034 358.444004 
L 242.895055 59.241422 
L 243.301076 320.201537 
L 243.707097 43.796309 
L 244.113118 42.484723 
L 244.51914 42.911769 
L 244.925161 258.57481 
L 245.331182 54.042107 
L 245.737203 135.257687 
L 246.143224 35.976 
L 246.549246 42.371932 
L 246.955267 38.996421 
L 247.361288 29.438182 
L 247.767309 38.163972 
L 248.17333 61.456409 
L 248.579352 29.438182 
L 248.985373 33.744257 
L 249.391394 56.925201 
L 249.797415 272.824657 
L 250.203436 48.801547 
L 250.609457 61.702269 
L 251.015479 29.438182 
L 251.4215 67.659636 
L 251.827521 129.729331 
L 252.233542 29.438182 
L 252.639563 41.914844 
L 253.045585 86.302654 
L 253.451606 29.438182 
L 253.857627 62.273706 
L 254.263648 29.438182 
L 254.669669 339.149989 
L 255.075691 166.675712 
L 255.481712 112.003921 
L 255.887733 120.677623 
L 256.293754 29.438182 
L 256.699775 463.756037 
L 257.105797 46.76997 
L 257.511818 29.438182 
L 257.917839 33.955108 
L 258.32386 29.672926 
L 258.729881 29.438182 
L 259.135903 69.755025 
L 259.541924 29.438182 
L 259.947945 246.864256 
L 260.353966 29.438182 
L 260.759987 34.73489 
L 261.166009 31.221853 
L 261.57203 295.347632 
L 261.978051 64.53538 
L 262.384072 100.343196 
L 262.790093 46.776837 
L 263.196114 57.033114 
L 263.602136 179.392449 
L 264.008157 243.67578 
L 264.414178 57.404479 
L 264.820199 86.294868 
L 265.22622 29.500735 
L 265.632242 314.851343 
L 266.038263 84.52145 
L 266.444284 117.118603 
L 266.850305 68.805335 
L 267.256326 450.283175 
L 267.662348 29.438182 
L 268.47439 448.348902 
L 268.880411 144.271205 
L 269.286432 120.313917 
L 269.692454 70.367216 
L 270.098475 222.466165 
L 270.504496 56.972578 
L 270.910517 39.830907 
L 271.316538 53.672796 
L 271.72256 42.3767 
L 272.128581 220.907739 
L 272.534602 29.438182 
L 272.940623 80.705172 
L 273.346644 464.600779 
L 273.752665 342.400405 
L 274.158687 122.161265 
L 274.970729 447.310369 
L 275.37675 29.438182 
L 275.782771 29.438182 
L 276.188793 46.776837 
L 276.594814 403.235714 
L 277.000835 135.772551 
L 277.406856 234.199995 
L 277.812877 52.052561 
L 278.218899 34.116429 
L 278.62492 31.221853 
L 279.030941 89.542401 
L 279.436962 197.717465 
L 279.842983 195.965003 
L 280.249005 46.793545 
L 280.655026 244.267762 
L 281.061047 234.292452 
L 281.467068 309.552961 
L 282.279111 75.476703 
L 282.685132 452.915736 
L 283.091153 31.876941 
L 283.497174 135.988026 
L 283.903195 317.608345 
L 284.309216 29.438182 
L 284.715238 97.851305 
L 285.121259 56.678774 
L 285.52728 34.790392 
L 286.339322 55.932845 
L 286.745344 88.634865 
L 287.151365 138.025615 
L 287.557386 355.406291 
L 287.963407 53.860685 
L 288.369428 29.438182 
L 288.77545 29.438182 
L 289.181471 65.334333 
L 289.587492 46.684323 
L 289.993513 224.348608 
L 290.399534 39.874122 
L 290.805556 29.438182 
L 291.211577 29.438182 
L 291.617598 340.591175 
L 292.023619 39.830907 
L 292.42964 43.796309 
L 292.835662 104.486311 
L 293.241683 55.263329 
L 293.647704 321.252739 
L 294.053725 30.191561 
L 294.459746 366.08662 
L 294.865767 37.128867 
L 295.271789 38.647196 
L 295.67781 258.666661 
L 296.083831 244.47568 
L 296.489852 459.019322 
L 296.895873 305.503493 
L 297.301895 53.672796 
L 297.707916 29.438182 
L 298.113937 42.356171 
L 298.519958 90.020191 
L 298.925979 242.445161 
L 299.332001 41.054103 
L 299.738022 29.438182 
L 300.144043 58.361908 
L 300.550064 121.570567 
L 300.956085 243.826936 
L 301.362107 29.438182 
L 301.768128 137.822377 
L 302.174149 46.407773 
L 302.58017 38.163972 
L 302.986191 90.587241 
L 303.392213 342.491411 
L 303.798234 57.417457 
L 304.204255 156.496765 
L 304.610276 41.914844 
L 305.016297 92.612908 
L 305.422318 64.53538 
L 305.82834 142.450131 
L 306.234361 46.359746 
L 306.640382 39.792526 
L 307.046403 244.52295 
L 307.452424 34.73489 
L 307.858446 29.524468 
L 308.264467 52.052561 
L 308.670488 39.622648 
L 309.076509 342.251522 
L 309.48253 274.04419 
L 309.888552 29.438182 
L 310.294573 29.438182 
L 310.700594 354.717586 
L 311.106615 56.972578 
L 311.512636 368.252744 
L 311.918658 56.86286 
L 312.324679 51.012869 
L 312.7307 352.020225 
L 313.136721 44.639355 
L 313.542742 29.524065 
L 313.948764 29.438182 
L 314.354785 349.146679 
L 315.166827 35.998572 
L 315.572848 31.05347 
L 315.978869 307.245358 
L 316.384891 305.689565 
L 316.790912 42.484723 
L 317.196933 258.87718 
L 317.602954 46.407773 
L 318.008975 149.149522 
L 318.414997 42.356171 
L 318.821018 303.208431 
L 319.227039 298.699735 
L 319.63306 46.62707 
L 320.039081 234.199995 
L 320.445103 47.259779 
L 320.851124 65.334333 
L 321.257145 151.390743 
L 321.663166 29.522972 
L 322.069187 307.544681 
L 322.475209 29.438182 
L 322.88123 34.667525 
L 323.287251 29.438182 
L 323.693272 37.756775 
L 324.099293 29.438182 
L 324.505315 29.438182 
L 324.911336 48.332498 
L 325.317357 29.520698 
L 325.723378 251.254659 
L 326.129399 57.057466 
L 326.53542 56.925201 
L 326.941442 144.987203 
L 327.347463 47.892327 
L 327.753484 55.263329 
L 328.159505 120.677623 
L 328.565526 78.968688 
L 328.971548 52.312056 
L 329.377569 57.033114 
L 329.78359 29.438182 
L 330.189611 29.524468 
L 330.595632 29.438182 
L 331.001654 47.105454 
L 331.407675 29.438182 
L 332.219717 61.963271 
L 332.625738 39.792526 
L 333.03176 49.47878 
L 333.437781 29.438182 
L 333.843802 29.524274 
L 334.249823 269.971617 
L 334.655844 235.826639 
L 335.061866 42.371932 
L 335.467887 29.500735 
L 335.873908 38.525889 
L 336.279929 29.438182 
L 336.68595 29.52479 
L 337.091971 47.302761 
L 337.497993 38.194543 
L 337.904014 52.931101 
L 338.310035 30.457981 
L 338.716056 60.051674 
L 339.122077 225.233874 
L 339.528099 47.69014 
L 339.93412 47.622422 
L 340.340141 317.608345 
L 340.746162 56.86286 
L 341.152183 47.156937 
L 341.558205 29.438182 
L 342.370247 29.438182 
L 342.776268 47.884781 
L 343.182289 29.438182 
L 343.588311 53.672796 
L 343.994332 257.560975 
L 344.400353 37.641177 
L 344.806374 47.129182 
L 345.212395 29.438182 
L 345.618417 29.438182 
L 346.024438 272.816449 
L 346.430459 179.392449 
L 346.83648 45.247511 
L 347.242501 47.524163 
L 347.648522 72.723403 
L 348.054544 121.896281 
L 348.460565 29.438182 
L 348.866586 47.175329 
L 349.272607 112.588046 
L 349.678628 29.438182 
L 350.08465 47.162145 
L 350.490671 192.192417 
L 350.896692 47.404385 
L 351.302713 31.64835 
L 351.708734 29.438182 
L 352.114756 42.178908 
L 352.520777 33.324861 
L 352.926798 154.090349 
L 353.332819 29.438182 
L 353.73884 47.129182 
L 354.144862 41.914844 
L 354.550883 130.825484 
L 354.956904 29.438182 
L 355.362925 47.622422 
L 355.768946 49.348691 
L 356.174968 47.405442 
L 356.580989 29.438182 
L 356.98701 49.47878 
L 357.393031 41.054103 
L 357.799052 47.462312 
L 358.205073 29.438182 
L 358.611095 47.259779 
L 359.017116 48.66865 
L 359.423137 234.450578 
L 359.829158 47.404385 
L 360.235179 121.557251 
L 360.641201 42.240197 
L 361.047222 47.326251 
L 361.453243 47.884781 
L 361.859264 29.438182 
L 362.265285 149.149522 
L 362.671307 58.361908 
L 363.077328 42.146104 
L 363.483349 42.12105 
L 363.88937 29.438182 
L 364.295391 48.353361 
L 364.701413 42.178908 
L 365.107434 29.438182 
L 365.513455 29.438182 
L 365.919476 33.938836 
L 366.325497 29.438182 
L 366.731519 29.438182 
L 367.13754 47.073741 
L 367.543561 29.438182 
L 367.949582 42.120261 
L 368.355603 29.438182 
L 369.167646 29.438182 
L 369.573667 465.491625 
L 369.979688 47.095017 
L 370.385709 38.194543 
L 370.79173 43.113735 
L 371.197752 318.416265 
L 371.603773 43.796309 
L 372.009794 29.438182 
L 372.415815 47.924572 
L 372.821836 29.438182 
L 373.227858 47.105454 
L 373.633879 29.438182 
L 374.0399 386.458124 
L 374.445921 71.95459 
L 374.851942 68.024833 
L 375.257964 358.140528 
L 375.663985 140.977463 
L 376.070006 47.377108 
L 376.476027 29.438182 
L 376.882048 29.438182 
L 377.28807 47.121166 
L 377.694091 47.892327 
L 378.100112 42.504311 
L 378.506133 29.438182 
L 378.912154 121.896281 
L 379.318175 47.302761 
L 379.724197 47.222139 
L 380.130218 29.438182 
L 380.536239 342.251522 
L 380.94226 377.368215 
L 381.348281 29.438182 
L 381.754303 269.897173 
L 382.160324 249.399789 
L 382.566345 35.998572 
L 382.972366 344.861984 
L 383.378387 29.438182 
L 383.784409 59.241422 
L 384.19043 127.98467 
L 384.596451 29.438182 
L 385.002472 32.168771 
L 385.408493 38.163972 
L 385.814515 29.438182 
L 386.626557 29.438182 
L 387.032578 46.407773 
L 387.438599 40.724035 
L 387.844621 29.438182 
L 388.250642 29.438182 
L 388.656663 354.732661 
L 389.062684 29.438182 
L 389.468705 65.088125 
L 389.874726 29.438182 
L 390.280748 42.911769 
L 390.686769 47.758393 
L 391.09279 29.438182 
L 391.498811 29.438182 
L 391.904832 357.935343 
L 392.310854 46.793545 
L 392.716875 45.927141 
L 393.122896 29.438182 
L 393.528917 50.054032 
L 393.934938 29.438182 
L 394.34096 57.234316 
L 394.746981 29.438182 
L 395.153002 46.776837 
L 395.559023 268.039588 
L 395.965044 34.73489 
L 396.371066 70.367216 
L 396.777087 29.438182 
L 397.183108 29.438182 
L 397.589129 31.221853 
L 397.99515 29.438182 
L 398.401172 42.484723 
L 398.807193 33.937205 
L 399.213214 38.647196 
L 399.619235 37.344075 
L 400.025256 55.263329 
L 400.431277 29.438182 
L 400.837299 49.783506 
L 401.24332 33.955108 
L 401.649341 29.438182 
L 402.055362 51.012869 
L 402.461383 318.416265 
L 402.867405 37.756775 
L 403.273426 56.86286 
L 403.679447 29.438182 
L 404.085468 29.438182 
L 404.491489 31.05347 
L 404.897511 173.804223 
L 405.303532 69.362634 
L 405.709553 274.04419 
L 406.115574 29.438182 
L 406.521595 293.623944 
L 406.927617 42.504311 
L 407.333638 29.438182 
L 409.769765 29.438182 
L 410.175786 121.557251 
L 410.581807 29.438182 
L 412.611913 29.438182 
L 413.017934 257.293701 
L 413.423956 46.762073 
L 413.829977 128.792763 
L 414.235998 359.81491 
L 414.642019 29.438182 
L 415.04804 243.64475 
L 415.454062 32.168771 
L 415.860083 29.438182 
L 416.266104 46.684323 
L 416.672125 44.639355 
L 417.078146 29.438182 
L 418.29621 29.438182 
L 418.702231 367.849934 
L 419.108252 340.591175 
L 419.514274 29.438182 
L 419.920295 46.787114 
L 420.326316 47.175329 
L 420.732337 29.438182 
L 421.138358 109.024373 
L 421.54438 29.438182 
L 422.356422 29.438182 
L 422.762443 33.936642 
L 423.168464 29.438182 
L 423.574485 29.438182 
L 423.980507 46.755489 
L 424.386528 29.438182 
L 424.792549 47.656147 
L 425.19857 57.028744 
L 425.604591 29.524065 
L 426.010613 49.47878 
L 426.416634 47.892327 
L 426.822655 47.095017 
L 427.228676 57.057466 
L 427.634697 56.972578 
L 428.040719 57.033114 
L 428.852761 42.911769 
L 429.258782 30.191561 
L 429.664803 33.324861 
L 430.070825 29.438182 
L 430.476846 29.438182 
L 430.882867 41.054103 
L 431.288888 47.622422 
L 431.694909 48.353361 
L 432.100931 56.782093 
L 432.506952 173.661235 
L 432.912973 39.830907 
L 433.318994 46.407773 
L 433.725015 29.438182 
L 434.131036 59.922536 
L 434.537058 45.927141 
L 434.943079 140.444092 
L 435.3491 29.438182 
L 435.755121 29.438182 
L 436.161142 47.524163 
L 436.567164 33.324861 
L 436.973185 47.892327 
L 437.379206 29.438182 
L 437.785227 160.272535 
L 438.191248 29.438182 
L 438.59727 47.884781 
L 439.003291 29.438182 
L 439.409312 47.405442 
L 439.815333 121.557251 
L 440.221354 42.911769 
L 440.627376 121.816354 
L 441.033397 47.69014 
L 441.439418 29.438182 
L 441.845439 47.129182 
L 442.25146 29.438182 
L 442.657482 29.438182 
L 443.063503 140.977463 
L 443.469524 52.312056 
L 443.875545 60.880607 
L 444.281566 29.520698 
L 444.687587 30.191561 
L 445.093609 42.504311 
L 445.49963 47.622422 
L 445.905651 29.438182 
L 446.311672 60.454617 
L 446.717693 47.656147 
L 447.123715 29.438182 
L 447.529736 29.524274 
L 447.935757 121.896281 
L 448.341778 29.438182 
L 448.747799 39.830907 
L 449.153821 29.438182 
L 449.965863 29.438182 
L 450.371884 49.348691 
L 450.777905 29.438182 
L 451.183927 43.113735 
L 451.589948 29.438182 
L 451.995969 43.796309 
L 452.40199 29.52479 
L 452.808011 47.901242 
L 453.214033 47.326251 
L 453.620054 29.438182 
L 454.432096 45.927141 
L 454.838117 47.103389 
L 455.244138 29.522972 
L 456.056181 29.438182 
L 456.462202 42.371932 
L 456.868223 47.432812 
L 457.274244 59.241422 
L 458.086287 29.524468 
L 458.898329 29.438182 
L 459.30435 57.234316 
L 459.710372 46.407773 
L 460.116393 47.121166 
L 460.522414 29.438182 
L 460.928435 47.404385 
L 461.334456 29.438182 
L 461.740478 47.162145 
L 462.146499 305.030661 
L 462.55252 47.156937 
L 462.958541 48.353361 
L 463.364562 47.105454 
L 463.770584 29.438182 
L 464.176605 48.66865 
L 464.582626 39.874122 
L 464.988647 48.801547 
L 465.394668 32.168771 
L 465.800689 47.095017 
L 466.206711 122.161265 
L 466.612732 61.279512 
L 467.018753 29.438182 
L 467.830795 29.438182 
L 468.236817 41.054103 
L 468.642838 29.438182 
L 469.048859 47.302761 
L 469.45488 41.914844 
L 469.860901 47.222139 
L 470.266923 47.259779 
L 470.672944 29.438182 
L 471.078965 47.377108 
L 471.484986 29.438182 
L 471.891007 49.47878 
L 472.297029 29.438182 
L 472.70305 46.787114 
L 473.109071 35.998572 
L 473.515092 46.684323 
L 473.921113 121.570567 
L 474.327135 56.782093 
L 474.733156 48.778191 
L 475.545198 47.259779 
L 475.951219 47.103389 
L 476.35724 33.938836 
L 476.763262 29.438182 
L 477.169283 46.787114 
L 477.575304 47.656147 
L 477.981325 47.326251 
L 478.387346 44.639355 
L 478.793368 48.778191 
L 479.199389 29.438182 
L 479.60541 47.162145 
L 480.011431 173.804223 
L 480.417452 47.156937 
L 480.823474 29.438182 
L 481.229495 30.191561 
L 481.635516 49.47878 
L 482.041537 29.438182 
L 482.447558 121.557251 
L 482.85358 29.438182 
L 483.259601 33.324861 
L 483.665622 122.161265 
L 484.071643 47.69014 
L 484.477664 47.901242 
L 484.883686 29.438182 
L 485.289707 47.924572 
L 485.695728 29.438182 
L 486.50777 47.884781 
L 486.913791 47.405442 
L 487.319813 39.830907 
L 487.725834 29.438182 
L 488.131855 39.885276 
L 488.537876 29.438182 
L 488.943897 39.867098 
L 489.349919 47.095017 
L 489.75594 33.937038 
L 490.161961 47.432812 
L 490.567982 47.404385 
L 490.974003 29.438182 
L 491.380025 47.105454 
L 491.786046 29.438182 
L 492.192067 48.801547 
L 492.598088 43.113735 
L 493.004109 46.407773 
L 493.410131 29.438182 
L 493.816152 48.66865 
L 494.222173 59.922536 
L 494.628194 57.104905 
L 495.034215 268.039588 
L 495.440237 53.672796 
L 495.846258 47.622422 
L 496.252279 29.438182 
L 496.6583 56.86286 
L 497.064321 34.116429 
L 497.470342 39.792526 
L 497.876364 29.438182 
L 498.282385 173.661235 
L 498.688406 29.438182 
L 499.094427 47.302761 
L 499.500448 34.119839 
L 499.90647 47.175329 
L 500.312491 139.693002 
L 500.718512 46.62707 
L 501.124533 29.438182 
L 501.530554 56.678774 
L 501.936576 38.525889 
L 502.342597 29.438182 
L 502.748618 47.524163 
L 503.154639 47.222139 
L 503.56066 47.129182 
L 504.372703 29.438182 
L 505.184745 29.438182 
L 505.590766 31.221853 
L 505.996788 33.936642 
L 506.402809 29.438182 
L 507.214851 29.438182 
L 507.620872 52.312056 
L 508.026893 29.438182 
L 508.432915 29.438182 
L 508.838936 55.932845 
L 509.244957 56.972578 
L 509.650978 29.438182 
L 510.056999 56.782093 
L 510.463021 173.628226 
L 510.869042 47.377108 
L 511.275063 47.121166 
L 511.681084 29.438182 
L 512.087105 47.462312 
L 512.493127 29.438182 
L 512.899148 42.356171 
L 513.305169 39.871407 
L 513.71119 47.892327 
L 514.117211 51.012869 
L 514.523233 36.319718 
L 514.929254 29.438182 
L 515.335275 29.438182 
L 515.741296 46.776837 
L 516.147317 29.438182 
L 516.95936 47.156937 
L 517.365381 39.792526 
L 517.771402 29.438182 
L 518.177423 47.222139 
L 518.583444 34.022349 
L 518.989466 29.438182 
L 519.395487 33.938836 
L 519.801508 29.438182 
L 520.207529 29.438182 
L 520.61355 173.661235 
L 521.019572 34.116429 
L 521.425593 47.524163 
L 521.831614 29.438182 
L 522.643656 29.438182 
L 523.049678 33.936642 
L 523.455699 29.438182 
L 523.86172 49.47878 
L 524.267741 29.438182 
L 524.673762 36.319718 
L 525.079784 53.672796 
L 525.485805 47.162145 
L 525.891826 47.103389 
L 526.297847 29.438182 
L 526.703868 55.932845 
L 527.10989 47.129182 
L 527.515911 47.924572 
L 527.921932 138.656537 
L 528.327953 47.892327 
L 528.733974 176.567406 
L 529.139995 29.438182 
L 529.546017 47.622422 
L 529.952038 29.438182 
L 530.358059 29.438182 
L 530.76408 52.931101 
L 531.170101 48.332498 
L 531.576123 29.438182 
L 531.982144 47.259779 
L 532.388165 47.69014 
L 533.200207 47.175329 
L 533.606229 56.678774 
L 534.01225 448.347469 
L 534.418271 29.438182 
L 535.636335 29.438182 
L 536.042356 38.194543 
L 536.448377 56.782093 
L 536.854398 29.438182 
L 537.260419 46.62707 
L 537.666441 56.86286 
L 538.072462 31.05347 
L 538.478483 55.629698 
L 538.884504 56.925201 
L 539.290525 29.438182 
L 539.696546 47.432812 
L 540.102568 29.438182 
L 540.508589 55.263329 
L 540.91461 53.860685 
L 541.320631 47.302761 
L 541.726652 29.438182 
L 542.132674 47.105454 
L 542.538695 52.312056 
L 542.944716 47.377108 
L 543.350737 179.392449 
L 543.756758 29.438182 
L 544.16278 49.783506 
L 544.568801 47.656147 
L 544.974822 29.438182 
L 545.380843 37.756775 
L 545.786864 29.438182 
L 546.192886 29.438182 
L 546.598907 47.884781 
L 547.004928 34.73489 
L 547.410949 52.052561 
L 547.81697 47.095017 
L 548.222992 47.121166 
L 548.629013 29.438182 
L 549.035034 51.012869 
L 549.441055 29.438182 
L 549.847076 47.405442 
L 550.253098 42.356171 
L 550.659119 29.438182 
L 551.06514 205.655656 
L 551.471161 47.326251 
L 551.877182 29.438182 
L 552.283203 29.438182 
L 552.689225 44.639355 
L 553.095246 29.438182 
L 553.501267 31.221853 
L 553.907288 38.647196 
L 554.313309 29.438182 
L 554.719331 56.972578 
L 555.125352 29.438182 
L 555.531373 47.404385 
L 555.937394 29.438182 
L 557.561479 29.438182 
L 557.9675 47.222139 
L 558.373521 29.438182 
L 559.185564 29.438182 
L 559.591585 47.121166 
L 559.997606 55.629698 
L 560.403627 29.438182 
L 560.809649 49.783506 
L 561.21567 29.438182 
L 561.621691 31.05347 
L 562.027712 47.924572 
L 562.433733 55.263329 
L 562.839754 42.146104 
L 563.245776 47.162145 
L 563.651797 47.103389 
L 564.057818 47.377108 
L 564.463839 29.438182 
L 564.86986 38.194543 
L 565.681903 47.156937 
L 566.087924 42.371932 
L 566.493945 47.095017 
L 566.899966 47.524163 
L 567.305988 53.672796 
L 567.712009 52.931101 
L 568.11803 51.012869 
L 568.524051 29.438182 
L 568.930072 29.438182 
L 569.336094 47.892327 
L 569.742115 29.438182 
L 570.148136 29.438182 
L 570.554157 47.105454 
L 570.960178 29.438182 
L 571.3662 47.326251 
L 571.772221 55.932845 
L 572.178242 29.438182 
L 572.584263 29.438182 
L 572.990284 34.73489 
L 573.396305 52.312056 
L 573.802327 29.438182 
L 574.208348 47.175329 
L 574.614369 47.656147 
L 575.02039 47.302761 
L 575.426411 29.438182 
L 575.832433 29.438182 
L 576.238454 47.404385 
L 576.644475 29.438182 
L 577.050496 29.438182 
L 577.456517 57.033114 
L 577.862539 39.792526 
L 578.26856 38.647196 
L 578.674581 47.129182 
L 579.080602 36.319718 
L 579.486623 29.438182 
L 579.892645 38.525889 
L 580.298666 29.438182 
L 580.704687 46.62707 
L 581.110708 29.438182 
L 581.516729 48.332498 
L 581.922751 29.438182 
L 582.328772 37.756775 
L 582.734793 29.438182 
L 583.140814 47.259779 
L 583.546835 49.47878 
L 583.952856 29.438182 
L 585.576941 29.438182 
L 585.982962 47.405442 
L 586.388984 52.052561 
L 586.795005 29.438182 
L 587.201026 47.69014 
L 587.607047 44.639355 
L 588.013068 29.438182 
L 589.231132 29.438182 
L 589.637153 56.782093 
L 590.043174 56.972578 
L 590.449196 29.438182 
L 590.855217 29.438182 
L 591.261238 56.678774 
L 591.667259 31.221853 
L 592.07328 47.884781 
L 592.479302 29.438182 
L 592.885323 29.438182 
L 593.291344 47.622422 
L 593.697365 56.86286 
L 594.103386 29.438182 
L 594.509407 56.925201 
L 594.915429 29.438182 
L 595.32145 47.432812 
L 595.727471 29.438182 
L 596.539513 29.438182 
L 596.945535 47.462312 
L 597.351556 29.438182 
L 597.757577 47.129182 
L 598.163598 47.892327 
L 598.569619 29.438182 
L 598.975641 29.438182 
L 599.381662 52.312056 
L 599.787683 46.62707 
L 600.193704 56.86286 
L 600.599725 29.438182 
L 601.005747 56.925201 
L 601.411768 47.462312 
L 601.817789 52.052561 
L 602.22381 49.47878 
L 602.629831 29.438182 
L 603.035853 47.656147 
L 603.441874 29.438182 
L 603.847895 47.69014 
L 604.253916 29.438182 
L 605.065958 29.438182 
L 605.47198 53.672796 
L 605.878001 29.438182 
L 606.284022 31.05347 
L 606.690043 29.438182 
L 607.502086 47.377108 
L 607.908107 29.438182 
L 608.314128 47.405442 
L 608.720149 29.438182 
L 609.532192 29.438182 
L 609.938213 38.194543 
L 610.344234 29.438182 
L 610.750255 46.759665 
L 611.156276 47.326251 
L 611.562298 47.156937 
L 611.968319 42.356171 
L 612.37434 47.259779 
L 612.780361 29.438182 
L 613.186382 29.438182 
L 613.592404 47.105454 
L 614.404446 29.438182 
L 614.810467 48.332498 
L 615.216488 29.438182 
L 615.622509 29.438182 
L 616.028531 52.931101 
L 616.434552 29.438182 
L 617.246594 29.438182 
L 617.652615 55.932845 
L 618.058637 29.438182 
L 618.464658 56.782093 
L 618.870679 29.438182 
L 619.2767 160.272535 
L 619.682721 29.438182 
L 620.088743 34.73489 
L 620.494764 29.438182 
L 620.900785 47.302761 
L 621.306806 29.438182 
L 621.712827 29.438182 
L 622.118849 51.012869 
L 622.52487 42.371932 
L 622.930891 47.924572 
L 623.336912 47.622422 
L 623.742933 29.438182 
L 624.554976 29.438182 
L 624.960997 57.033114 
L 626.17906 29.438182 
L 626.585082 56.678774 
L 626.991103 29.438182 
L 627.397124 47.404385 
L 627.803145 29.438182 
L 628.209166 38.525889 
L 628.615188 29.438182 
L 629.021209 49.783506 
L 629.42723 31.221853 
L 629.833251 29.438182 
L 630.239272 47.884781 
L 630.645294 47.121166 
L 631.051315 29.438182 
L 631.457336 29.438182 
L 631.863357 47.175329 
L 632.269378 47.095017 
L 632.6754 47.524163 
L 633.081421 29.438182 
L 633.487442 29.438182 
L 633.893463 56.972578 
L 634.299484 36.319718 
L 634.705506 44.639355 
L 635.111527 47.432812 
L 635.517548 55.263329 
L 635.923569 47.103389 
L 636.32959 29.438182 
L 636.735611 47.162145 
L 637.141633 29.438182 
L 637.547654 55.629698 
L 637.953675 29.438182 
L 638.359696 47.156937 
L 638.765717 36.319718 
L 639.171739 47.162145 
L 639.57776 29.438182 
L 639.983781 37.756775 
L 640.389802 31.05347 
L 640.795823 47.404385 
L 641.201845 29.438182 
L 641.607866 47.326251 
L 642.013887 29.438182 
L 642.419908 29.438182 
L 642.825929 49.47878 
L 643.231951 51.012869 
L 643.637972 47.175329 
L 644.043993 29.438182 
L 644.450014 29.438182 
L 644.856035 57.033114 
L 645.262057 29.438182 
L 646.48012 29.438182 
L 646.886141 47.524163 
L 647.292162 47.462312 
L 647.698184 56.86286 
L 648.510226 38.647196 
L 648.916247 38.194543 
L 649.322268 56.925201 
L 649.72829 29.438182 
L 650.540332 29.438182 
L 650.946353 52.052561 
L 651.352374 49.783506 
L 651.758396 29.438182 
L 652.164417 29.438182 
L 652.570438 47.69014 
L 652.976459 29.438182 
L 653.38248 56.972578 
L 653.788502 29.438182 
L 654.600544 29.438182 
L 655.006565 56.782093 
L 655.412586 29.438182 
L 655.818608 29.438182 
L 656.224629 52.931101 
L 656.63065 29.438182 
L 657.036671 56.678774 
L 657.442692 39.885276 
L 657.848713 29.438182 
L 659.878819 29.438182 
L 660.284841 48.332498 
L 660.690862 29.438182 
L 661.096883 47.377108 
L 661.502904 55.629698 
L 661.908925 47.622422 
L 662.314947 47.892327 
L 662.720968 31.221853 
L 663.126989 47.405442 
L 663.53301 29.438182 
L 663.939031 29.438182 
L 664.345053 42.371932 
L 664.751074 38.525889 
L 665.157095 47.924572 
L 665.563116 47.432812 
L 665.969137 29.438182 
L 666.375159 47.222139 
L 666.78118 47.129182 
L 667.187201 29.438182 
L 667.593222 29.438182 
L 667.999243 53.672796 
L 668.405264 52.312056 
L 668.811286 47.884781 
L 669.217307 29.438182 
L 669.623328 47.103389 
L 670.029349 29.438182 
L 670.841392 29.438182 
L 671.247413 39.792526 
L 671.653434 29.438182 
L 672.059455 47.121166 
L 672.465476 44.639355 
L 672.871498 46.62707 
L 673.277519 47.302761 
L 673.68354 55.263329 
L 674.089561 29.438182 
L 674.495582 34.73489 
L 674.901604 47.105454 
L 675.307625 29.438182 
L 675.713646 29.438182 
L 676.119667 55.932845 
L 676.525688 29.438182 
L 676.93171 29.438182 
L 677.337731 47.656147 
L 677.743752 47.259779 
L 678.149773 42.356171 
L 678.555794 29.438182 
L 678.961815 55.629698 
L 679.367837 39.792526 
L 679.773858 38.647196 
L 680.179879 29.438182 
L 680.5859 29.438182 
L 680.991921 47.377108 
L 681.397943 46.62707 
L 682.209985 47.924572 
L 682.616006 29.438182 
L 683.022027 36.319718 
L 683.428049 47.524163 
L 683.83407 47.129182 
L 684.240091 60.522845 
L 684.646112 29.438182 
L 685.052133 29.438182 
L 685.458155 47.622422 
L 685.864176 47.105454 
L 686.270197 56.782093 
L 686.676218 55.932845 
L 687.082239 29.438182 
L 687.894282 29.438182 
L 688.300303 42.356171 
L 688.706324 29.438182 
L 689.518366 29.438182 
L 689.924388 56.86286 
L 690.330409 29.438182 
L 690.73643 52.312056 
L 691.142451 47.103389 
L 691.548472 29.438182 
L 692.360515 29.438182 
L 692.766536 44.639355 
L 693.172557 47.892327 
L 693.578578 29.438182 
L 693.9846 48.332498 
L 694.390621 47.69014 
L 694.796642 29.438182 
L 695.202663 29.438182 
L 695.608684 47.462312 
L 696.014706 47.404385 
L 696.420727 29.438182 
L 696.826748 39.885276 
L 697.232769 29.438182 
L 698.044812 29.438182 
L 698.450833 47.884781 
L 698.856854 47.432812 
L 699.262875 53.672796 
L 699.668896 29.438182 
L 700.480939 29.438182 
L 700.88696 47.162145 
L 701.292981 29.438182 
L 702.511045 29.438182 
L 702.917066 49.783506 
L 703.323087 29.438182 
L 703.729108 29.438182 
L 704.135129 47.656147 
L 704.541151 29.438182 
L 704.947172 31.05347 
L 705.353193 31.221853 
L 705.759214 29.438182 
L 706.165235 39.889811 
L 706.571257 29.438182 
L 706.977278 56.925201 
L 707.383299 47.156937 
L 708.195341 47.405442 
L 708.601363 29.438182 
L 709.007384 29.438182 
L 709.413405 38.525889 
L 709.819426 29.438182 
L 710.225447 47.121166 
L 710.631469 47.326251 
L 711.03749 47.095017 
L 711.443511 29.438182 
L 712.661574 29.438182 
L 713.067596 34.73489 
L 713.473617 52.931101 
L 713.879638 47.302761 
L 714.69168 29.438182 
L 715.097702 49.47878 
L 715.503723 47.175329 
L 715.909744 56.972578 
L 716.315765 57.033114 
L 716.721786 52.052561 
L 717.127808 29.438182 
L 717.533829 55.263329 
L 717.93985 56.678774 
L 718.345871 29.438182 
L 718.751892 51.012869 
L 719.157914 53.672796 
L 719.563935 29.438182 
L 719.969956 47.884781 
L 720.375977 29.438182 
L 720.781998 47.121166 
L 721.18802 47.462312 
L 721.594041 31.221853 
L 722.000062 52.931101 
L 722.406083 44.639355 
L 722.812104 29.438182 
L 724.84221 29.438182 
L 725.654253 47.622422 
L 726.060274 29.438182 
L 726.466295 29.438182 
L 726.872316 56.678774 
L 727.278337 52.052561 
L 727.684359 29.438182 
L 728.09038 38.525889 
L 728.496401 29.438182 
L 728.902422 29.438182 
L 729.308443 47.405442 
L 729.714465 29.438182 
L 730.120486 34.73489 
L 730.526507 47.105454 
L 730.932528 36.319718 
L 731.338549 29.438182 
L 731.744571 29.438182 
L 732.150592 47.162145 
L 732.556613 29.438182 
L 733.368655 29.438182 
L 733.774676 46.62707 
L 734.180698 47.095017 
L 734.586719 56.925201 
L 734.99274 47.69014 
L 735.398761 29.438182 
L 735.804782 29.438182 
L 736.210804 31.05347 
L 736.616825 29.438182 
L 738.646931 29.438182 
L 739.052952 52.312056 
L 739.458973 29.438182 
L 739.864994 29.438182 
L 740.271016 47.259779 
L 740.677037 47.302761 
L 741.083058 47.892327 
L 741.489079 47.156937 
L 741.8951 49.47878 
L 742.301122 29.438182 
L 743.519185 29.438182 
L 743.925206 55.263329 
L 744.331227 47.129182 
L 744.737249 29.438182 
L 745.14327 29.438182 
L 745.549291 47.175329 
L 745.955312 29.438182 
L 746.361333 47.103389 
L 746.767355 55.629698 
L 747.173376 42.371932 
L 747.579397 56.972578 
L 747.985418 47.377108 
L 748.391439 29.438182 
L 749.203482 29.438182 
L 749.609503 42.356171 
L 750.015524 47.222139 
L 750.421545 56.86286 
L 750.827567 29.438182 
L 751.233588 51.012869 
L 751.639609 29.438182 
L 752.04563 47.656147 
L 752.451651 29.438182 
L 752.857673 47.524163 
L 753.263694 56.782093 
L 753.669715 57.033114 
L 754.075736 48.332498 
L 754.481757 47.326251 
L 754.887778 29.438182 
L 755.2938 55.932845 
L 755.699821 29.438182 
L 756.105842 38.647196 
L 756.511863 29.438182 
L 756.917884 47.432812 
L 757.323906 39.792526 
L 757.729927 29.438182 
L 758.135948 29.438182 
L 758.541969 49.783506 
L 758.94799 29.438182 
L 759.354012 47.404385 
L 759.760033 48.332498 
L 760.166054 29.438182 
L 760.572075 29.438182 
L 761.384118 47.175329 
L 761.790139 29.438182 
L 762.19616 29.438182 
L 762.602181 47.095017 
L 763.008202 31.221853 
L 763.414224 29.438182 
L 763.820245 29.438182 
L 764.226266 36.319718 
L 764.632287 29.438182 
L 766.662393 29.438182 
L 767.068414 51.012869 
L 767.474435 29.438182 
L 767.880457 47.377108 
L 768.286478 56.678774 
L 768.692499 29.438182 
L 769.09852 29.438182 
L 769.504541 55.629698 
L 769.910563 44.639355 
L 770.316584 47.622422 
L 770.722605 29.438182 
L 771.128626 47.924572 
L 771.534647 55.263329 
L 771.940669 29.438182 
L 773.564753 29.438182 
L 773.970775 49.783506 
L 774.376796 29.438182 
L 774.782817 29.438182 
L 775.188838 52.312056 
L 775.594859 29.438182 
L 776.00088 29.438182 
L 776.406902 47.222139 
L 776.812923 29.438182 
L 777.218944 29.438182 
L 778.030986 52.052561 
L 778.437008 29.438182 
L 778.843029 47.892327 
L 779.24905 56.86286 
L 779.655071 57.033114 
L 780.061092 47.404385 
L 780.467114 29.438182 
L 780.873135 47.129182 
L 781.279156 29.438182 
L 781.685177 47.462312 
L 782.091198 29.438182 
L 782.49722 47.156937 
L 782.903241 47.884781 
L 783.309262 29.438182 
L 783.715283 47.162145 
L 784.121304 29.438182 
L 784.933347 29.438182 
L 785.339368 31.05347 
L 785.745389 49.47878 
L 786.15141 46.62707 
L 786.557431 29.438182 
L 787.369474 47.103389 
L 787.775495 47.302761 
L 788.181516 47.326251 
L 788.587537 29.438182 
L 788.993559 47.105454 
L 789.39958 29.438182 
L 791.429686 29.438182 
L 791.835707 47.432812 
L 792.241728 47.121166 
L 792.647749 47.656147 
L 793.053771 56.782093 
L 793.459792 52.931101 
L 793.865813 29.438182 
L 794.271834 29.438182 
L 794.677855 34.73489 
L 795.083877 29.438182 
L 795.489898 47.405442 
L 795.895919 29.438182 
L 796.30194 53.672796 
L 796.707961 29.438182 
L 797.113982 47.259779 
L 797.520004 56.972578 
L 797.926025 38.647196 
L 798.332046 29.438182 
L 798.738067 47.524163 
L 799.144088 55.932845 
L 799.55011 42.356171 
L 799.956131 56.925201 
L 800.362152 46.62707 
L 800.768173 47.404385 
L 801.174194 29.438182 
L 801.580216 29.438182 
L 801.986237 55.263329 
L 802.392258 34.73489 
L 803.2043 56.678774 
L 803.610322 29.438182 
L 804.016343 47.892327 
L 804.422364 29.438182 
L 805.234406 29.438182 
L 805.640428 47.095017 
L 806.046449 29.438182 
L 808.076555 29.438182 
L 808.482576 39.792526 
L 808.888597 29.438182 
L 809.294618 52.052561 
L 809.700639 53.672796 
L 810.106661 29.438182 
L 810.512682 47.656147 
L 810.918703 57.033114 
L 811.324724 29.438182 
L 813.35483 29.438182 
L 813.760851 47.121166 
L 814.166873 29.438182 
L 814.978915 29.438182 
L 815.384936 49.783506 
L 815.790957 56.782093 
L 816.196979 29.438182 
L 816.603 29.438182 
L 817.009021 51.012869 
L 817.415042 47.259779 
L 817.821063 42.356171 
L 818.227084 29.438182 
L 818.633106 55.629698 
L 819.039127 47.462312 
L 819.445148 29.438182 
L 819.851169 55.932845 
L 820.25719 49.47878 
L 820.663212 47.175329 
L 821.069233 36.319718 
L 821.475254 29.438182 
L 821.881275 56.86286 
L 822.287296 56.972578 
L 822.693318 47.156937 
L 823.099339 29.438182 
L 823.50536 48.332498 
L 824.317402 47.432812 
L 824.723424 29.438182 
L 825.129445 52.931101 
L 825.535466 29.438182 
L 825.941487 47.405442 
L 826.75353 29.438182 
L 828.377614 29.438182 
L 828.783635 47.103389 
L 829.189657 47.524163 
L 829.595678 47.129182 
L 830.40772 29.438182 
L 830.813741 47.622422 
L 831.219763 56.925201 
L 831.625784 29.438182 
L 832.031805 29.438182 
L 832.437826 44.639355 
L 832.843847 29.438182 
L 834.061911 29.438182 
L 834.467932 37.756775 
L 834.873953 29.438182 
L 837.716102 29.438182 
L 838.122123 31.05347 
L 838.528144 29.438182 
L 839.340186 29.438182 
L 839.746208 31.221853 
L 840.152229 29.438182 
L 840.964271 29.438182 
L 841.370292 56.86286 
L 841.776314 29.438182 
L 843.400398 29.438182 
L 843.80642 52.931101 
L 844.212441 29.438182 
L 845.430504 29.438182 
L 845.836526 52.052561 
L 846.242547 29.438182 
L 846.648568 36.319718 
L 847.054589 29.438182 
L 848.272653 29.438182 
L 848.678674 53.672796 
L 849.084695 37.756775 
L 849.490716 29.438182 
L 849.896738 49.47878 
L 850.302759 38.525889 
L 850.70878 48.332498 
L 851.114801 362.478902 
L 851.520822 47.121166 
L 851.926843 31.05347 
L 852.332865 29.438182 
L 852.738886 47.524163 
L 853.144907 29.438182 
L 853.550928 47.302761 
L 853.956949 29.438182 
L 854.362971 29.438182 
L 854.768992 55.263329 
L 855.175013 29.438182 
L 855.987055 29.438182 
L 856.393077 52.312056 
L 856.799098 47.656147 
L 857.205119 29.438182 
L 857.61114 47.259779 
L 858.017161 29.438182 
L 858.829204 29.438182 
L 859.235225 55.932845 
L 859.641246 49.783506 
L 860.047267 47.105454 
L 860.453289 42.356171 
L 860.85931 29.438182 
L 862.077373 29.438182 
L 862.483394 47.404385 
L 862.889416 44.639355 
L 863.295437 47.884781 
L 863.701458 29.438182 
L 864.5135 29.438182 
L 864.919522 47.462312 
L 865.325543 55.629698 
L 865.731564 29.438182 
L 866.543606 47.405442 
L 866.949628 47.156937 
L 867.355649 29.438182 
L 868.167691 29.438182 
L 868.573712 34.73489 
L 868.979734 56.782093 
L 869.385755 29.438182 
L 871.00984 29.438182 
L 871.415861 38.647196 
L 871.821882 29.438182 
L 872.227903 47.326251 
L 872.633924 47.095017 
L 873.039945 29.438182 
L 873.851988 29.438182 
L 874.258009 31.221853 
L 874.66403 29.438182 
L 876.288115 29.438182 
L 876.694136 46.62707 
L 877.100157 29.438182 
L 877.506179 47.129182 
L 877.9122 29.438182 
L 878.318221 51.012869 
L 878.724242 29.438182 
L 879.130263 47.432812 
L 879.536285 47.892327 
L 879.942306 29.438182 
L 880.348327 47.103389 
L 880.754348 47.162145 
L 881.160369 29.438182 
L 881.160369 29.438182 
" style="fill:none;stroke:#1f77b4;stroke-linecap:square;stroke-width:1.5;"/>
   </g>
   <g id="patch_3">
    <path d="M 28.942188 496.44 
L 28.942188 7.2 
" style="fill:none;stroke:#000000;stroke-linecap:square;stroke-linejoin:miter;stroke-width:0.8;"/>
   </g>
   <g id="patch_4">
    <path d="M 921.742188 496.44 
L 921.742188 7.2 
" style="fill:none;stroke:#000000;stroke-linecap:square;stroke-linejoin:miter;stroke-width:0.8;"/>
   </g>
   <g id="patch_5">
    <path d="M 28.942188 496.44 
L 921.742188 496.44 
" style="fill:none;stroke:#000000;stroke-linecap:square;stroke-linejoin:miter;stroke-width:0.8;"/>
   </g>
   <g id="patch_6">
    <path d="M 28.942188 7.2 
L 921.742188 7.2 
" style="fill:none;stroke:#000000;stroke-linecap:square;stroke-linejoin:miter;stroke-width:0.8;"/>
   </g>
  </g>
 </g>
 <defs>
  <clipPath id="p6b5044bc57">
   <rect height="489.24" width="892.8" x="28.942188" y="7.2"/>
  </clipPath>
 </defs>
</svg>
