<?xml version="1.0" encoding="utf-8" standalone="no"?>
<!DOCTYPE svg PUBLIC "-//W3C//DTD SVG 1.1//EN"
  "http://www.w3.org/Graphics/SVG/1.1/DTD/svg11.dtd">
<!-- Created with matplotlib (https://matplotlib.org/) -->
<svg height="520.318125pt" version="1.1" viewBox="0 0 928.942187 520.318125" width="928.942187pt" xmlns="http://www.w3.org/2000/svg" xmlns:xlink="http://www.w3.org/1999/xlink">
 <defs>
  <style type="text/css">
*{stroke-linecap:butt;stroke-linejoin:round;}
  </style>
 </defs>
 <g id="figure_1">
  <g id="patch_1">
   <path d="M 0 520.318125 
L 928.942187 520.318125 
L 928.942187 0 
L 0 0 
z
" style="fill:none;"/>
  </g>
  <g id="axes_1">
   <g id="patch_2">
    <path d="M 28.942188 496.44 
L 921.742188 496.44 
L 921.742188 7.2 
L 28.942188 7.2 
z
" style="fill:#ffffff;"/>
   </g>
   <g id="matplotlib.axis_1">
    <g id="xtick_1">
     <g id="line2d_1">
      <defs>
       <path d="M 0 0 
L 0 3.5 
" id="m3511fb1cb3" style="stroke:#000000;stroke-width:0.8;"/>
      </defs>
      <g>
       <use style="stroke:#000000;stroke-width:0.8;" x="69.524006" xlink:href="#m3511fb1cb3" y="496.44"/>
      </g>
     </g>
     <g id="text_1">
      <!-- −10.0 -->
      <defs>
       <path d="M 10.59375 35.5 
L 73.1875 35.5 
L 73.1875 27.203125 
L 10.59375 27.203125 
z
" id="DejaVuSans-8722"/>
       <path d="M 12.40625 8.296875 
L 28.515625 8.296875 
L 28.515625 63.921875 
L 10.984375 60.40625 
L 10.984375 69.390625 
L 28.421875 72.90625 
L 38.28125 72.90625 
L 38.28125 8.296875 
L 54.390625 8.296875 
L 54.390625 0 
L 12.40625 0 
z
" id="DejaVuSans-49"/>
       <path d="M 31.78125 66.40625 
Q 24.171875 66.40625 20.328125 58.90625 
Q 16.5 51.421875 16.5 36.375 
Q 16.5 21.390625 20.328125 13.890625 
Q 24.171875 6.390625 31.78125 6.390625 
Q 39.453125 6.390625 43.28125 13.890625 
Q 47.125 21.390625 47.125 36.375 
Q 47.125 51.421875 43.28125 58.90625 
Q 39.453125 66.40625 31.78125 66.40625 
z
M 31.78125 74.21875 
Q 44.046875 74.21875 50.515625 64.515625 
Q 56.984375 54.828125 56.984375 36.375 
Q 56.984375 17.96875 50.515625 8.265625 
Q 44.046875 -1.421875 31.78125 -1.421875 
Q 19.53125 -1.421875 13.0625 8.265625 
Q 6.59375 17.96875 6.59375 36.375 
Q 6.59375 54.828125 13.0625 64.515625 
Q 19.53125 74.21875 31.78125 74.21875 
z
" id="DejaVuSans-48"/>
       <path d="M 10.6875 12.40625 
L 21 12.40625 
L 21 0 
L 10.6875 0 
z
" id="DejaVuSans-46"/>
      </defs>
      <g transform="translate(54.201349 511.038437)scale(0.1 -0.1)">
       <use xlink:href="#DejaVuSans-8722"/>
       <use x="83.789062" xlink:href="#DejaVuSans-49"/>
       <use x="147.412109" xlink:href="#DejaVuSans-48"/>
       <use x="211.035156" xlink:href="#DejaVuSans-46"/>
       <use x="242.822266" xlink:href="#DejaVuSans-48"/>
      </g>
     </g>
    </g>
    <g id="xtick_2">
     <g id="line2d_2">
      <g>
       <use style="stroke:#000000;stroke-width:0.8;" x="170.978551" xlink:href="#m3511fb1cb3" y="496.44"/>
      </g>
     </g>
     <g id="text_2">
      <!-- −7.5 -->
      <defs>
       <path d="M 8.203125 72.90625 
L 55.078125 72.90625 
L 55.078125 68.703125 
L 28.609375 0 
L 18.3125 0 
L 43.21875 64.59375 
L 8.203125 64.59375 
z
" id="DejaVuSans-55"/>
       <path d="M 10.796875 72.90625 
L 49.515625 72.90625 
L 49.515625 64.59375 
L 19.828125 64.59375 
L 19.828125 46.734375 
Q 21.96875 47.46875 24.109375 47.828125 
Q 26.265625 48.1875 28.421875 48.1875 
Q 40.625 48.1875 47.75 41.5 
Q 54.890625 34.8125 54.890625 23.390625 
Q 54.890625 11.625 47.5625 5.09375 
Q 40.234375 -1.421875 26.90625 -1.421875 
Q 22.3125 -1.421875 17.546875 -0.640625 
Q 12.796875 0.140625 7.71875 1.703125 
L 7.71875 11.625 
Q 12.109375 9.234375 16.796875 8.0625 
Q 21.484375 6.890625 26.703125 6.890625 
Q 35.15625 6.890625 40.078125 11.328125 
Q 45.015625 15.765625 45.015625 23.390625 
Q 45.015625 31 40.078125 35.4375 
Q 35.15625 39.890625 26.703125 39.890625 
Q 22.75 39.890625 18.8125 39.015625 
Q 14.890625 38.140625 10.796875 36.28125 
z
" id="DejaVuSans-53"/>
      </defs>
      <g transform="translate(158.837145 511.038437)scale(0.1 -0.1)">
       <use xlink:href="#DejaVuSans-8722"/>
       <use x="83.789062" xlink:href="#DejaVuSans-55"/>
       <use x="147.412109" xlink:href="#DejaVuSans-46"/>
       <use x="179.199219" xlink:href="#DejaVuSans-53"/>
      </g>
     </g>
    </g>
    <g id="xtick_3">
     <g id="line2d_3">
      <g>
       <use style="stroke:#000000;stroke-width:0.8;" x="272.433097" xlink:href="#m3511fb1cb3" y="496.44"/>
      </g>
     </g>
     <g id="text_3">
      <!-- −5.0 -->
      <g transform="translate(260.29169 511.038437)scale(0.1 -0.1)">
       <use xlink:href="#DejaVuSans-8722"/>
       <use x="83.789062" xlink:href="#DejaVuSans-53"/>
       <use x="147.412109" xlink:href="#DejaVuSans-46"/>
       <use x="179.199219" xlink:href="#DejaVuSans-48"/>
      </g>
     </g>
    </g>
    <g id="xtick_4">
     <g id="line2d_4">
      <g>
       <use style="stroke:#000000;stroke-width:0.8;" x="373.887642" xlink:href="#m3511fb1cb3" y="496.44"/>
      </g>
     </g>
     <g id="text_4">
      <!-- −2.5 -->
      <defs>
       <path d="M 19.1875 8.296875 
L 53.609375 8.296875 
L 53.609375 0 
L 7.328125 0 
L 7.328125 8.296875 
Q 12.9375 14.109375 22.625 23.890625 
Q 32.328125 33.6875 34.8125 36.53125 
Q 39.546875 41.84375 41.421875 45.53125 
Q 43.3125 49.21875 43.3125 52.78125 
Q 43.3125 58.59375 39.234375 62.25 
Q 35.15625 65.921875 28.609375 65.921875 
Q 23.96875 65.921875 18.8125 64.3125 
Q 13.671875 62.703125 7.8125 59.421875 
L 7.8125 69.390625 
Q 13.765625 71.78125 18.9375 73 
Q 24.125 74.21875 28.421875 74.21875 
Q 39.75 74.21875 46.484375 68.546875 
Q 53.21875 62.890625 53.21875 53.421875 
Q 53.21875 48.921875 51.53125 44.890625 
Q 49.859375 40.875 45.40625 35.40625 
Q 44.1875 33.984375 37.640625 27.21875 
Q 31.109375 20.453125 19.1875 8.296875 
z
" id="DejaVuSans-50"/>
      </defs>
      <g transform="translate(361.746236 511.038437)scale(0.1 -0.1)">
       <use xlink:href="#DejaVuSans-8722"/>
       <use x="83.789062" xlink:href="#DejaVuSans-50"/>
       <use x="147.412109" xlink:href="#DejaVuSans-46"/>
       <use x="179.199219" xlink:href="#DejaVuSans-53"/>
      </g>
     </g>
    </g>
    <g id="xtick_5">
     <g id="line2d_5">
      <g>
       <use style="stroke:#000000;stroke-width:0.8;" x="475.342188" xlink:href="#m3511fb1cb3" y="496.44"/>
      </g>
     </g>
     <g id="text_5">
      <!-- 0.0 -->
      <g transform="translate(467.390625 511.038437)scale(0.1 -0.1)">
       <use xlink:href="#DejaVuSans-48"/>
       <use x="63.623047" xlink:href="#DejaVuSans-46"/>
       <use x="95.410156" xlink:href="#DejaVuSans-48"/>
      </g>
     </g>
    </g>
    <g id="xtick_6">
     <g id="line2d_6">
      <g>
       <use style="stroke:#000000;stroke-width:0.8;" x="576.796733" xlink:href="#m3511fb1cb3" y="496.44"/>
      </g>
     </g>
     <g id="text_6">
      <!-- 2.5 -->
      <g transform="translate(568.84517 511.038437)scale(0.1 -0.1)">
       <use xlink:href="#DejaVuSans-50"/>
       <use x="63.623047" xlink:href="#DejaVuSans-46"/>
       <use x="95.410156" xlink:href="#DejaVuSans-53"/>
      </g>
     </g>
    </g>
    <g id="xtick_7">
     <g id="line2d_7">
      <g>
       <use style="stroke:#000000;stroke-width:0.8;" x="678.251278" xlink:href="#m3511fb1cb3" y="496.44"/>
      </g>
     </g>
     <g id="text_7">
      <!-- 5.0 -->
      <g transform="translate(670.299716 511.038437)scale(0.1 -0.1)">
       <use xlink:href="#DejaVuSans-53"/>
       <use x="63.623047" xlink:href="#DejaVuSans-46"/>
       <use x="95.410156" xlink:href="#DejaVuSans-48"/>
      </g>
     </g>
    </g>
    <g id="xtick_8">
     <g id="line2d_8">
      <g>
       <use style="stroke:#000000;stroke-width:0.8;" x="779.705824" xlink:href="#m3511fb1cb3" y="496.44"/>
      </g>
     </g>
     <g id="text_8">
      <!-- 7.5 -->
      <g transform="translate(771.754261 511.038437)scale(0.1 -0.1)">
       <use xlink:href="#DejaVuSans-55"/>
       <use x="63.623047" xlink:href="#DejaVuSans-46"/>
       <use x="95.410156" xlink:href="#DejaVuSans-53"/>
      </g>
     </g>
    </g>
    <g id="xtick_9">
     <g id="line2d_9">
      <g>
       <use style="stroke:#000000;stroke-width:0.8;" x="881.160369" xlink:href="#m3511fb1cb3" y="496.44"/>
      </g>
     </g>
     <g id="text_9">
      <!-- 10.0 -->
      <g transform="translate(870.027557 511.038437)scale(0.1 -0.1)">
       <use xlink:href="#DejaVuSans-49"/>
       <use x="63.623047" xlink:href="#DejaVuSans-48"/>
       <use x="127.246094" xlink:href="#DejaVuSans-46"/>
       <use x="159.033203" xlink:href="#DejaVuSans-48"/>
      </g>
     </g>
    </g>
   </g>
   <g id="matplotlib.axis_2">
    <g id="ytick_1">
     <g id="line2d_10">
      <defs>
       <path d="M 0 0 
L -3.5 0 
" id="mdb11513c7e" style="stroke:#000000;stroke-width:0.8;"/>
      </defs>
      <g>
       <use style="stroke:#000000;stroke-width:0.8;" x="28.942188" xlink:href="#mdb11513c7e" y="469.346638"/>
      </g>
     </g>
     <g id="text_10">
      <!-- −3 -->
      <defs>
       <path d="M 40.578125 39.3125 
Q 47.65625 37.796875 51.625 33 
Q 55.609375 28.21875 55.609375 21.1875 
Q 55.609375 10.40625 48.1875 4.484375 
Q 40.765625 -1.421875 27.09375 -1.421875 
Q 22.515625 -1.421875 17.65625 -0.515625 
Q 12.796875 0.390625 7.625 2.203125 
L 7.625 11.71875 
Q 11.71875 9.328125 16.59375 8.109375 
Q 21.484375 6.890625 26.8125 6.890625 
Q 36.078125 6.890625 40.9375 10.546875 
Q 45.796875 14.203125 45.796875 21.1875 
Q 45.796875 27.640625 41.28125 31.265625 
Q 36.765625 34.90625 28.71875 34.90625 
L 20.21875 34.90625 
L 20.21875 43.015625 
L 29.109375 43.015625 
Q 36.375 43.015625 40.234375 45.921875 
Q 44.09375 48.828125 44.09375 54.296875 
Q 44.09375 59.90625 40.109375 62.90625 
Q 36.140625 65.921875 28.71875 65.921875 
Q 24.65625 65.921875 20.015625 65.03125 
Q 15.375 64.15625 9.8125 62.3125 
L 9.8125 71.09375 
Q 15.4375 72.65625 20.34375 73.4375 
Q 25.25 74.21875 29.59375 74.21875 
Q 40.828125 74.21875 47.359375 69.109375 
Q 53.90625 64.015625 53.90625 55.328125 
Q 53.90625 49.265625 50.4375 45.09375 
Q 46.96875 40.921875 40.578125 39.3125 
z
" id="DejaVuSans-51"/>
      </defs>
      <g transform="translate(7.2 473.145857)scale(0.1 -0.1)">
       <use xlink:href="#DejaVuSans-8722"/>
       <use x="83.789062" xlink:href="#DejaVuSans-51"/>
      </g>
     </g>
    </g>
    <g id="ytick_2">
     <g id="line2d_11">
      <g>
       <use style="stroke:#000000;stroke-width:0.8;" x="28.942188" xlink:href="#mdb11513c7e" y="396.837759"/>
      </g>
     </g>
     <g id="text_11">
      <!-- −2 -->
      <g transform="translate(7.2 400.636978)scale(0.1 -0.1)">
       <use xlink:href="#DejaVuSans-8722"/>
       <use x="83.789062" xlink:href="#DejaVuSans-50"/>
      </g>
     </g>
    </g>
    <g id="ytick_3">
     <g id="line2d_12">
      <g>
       <use style="stroke:#000000;stroke-width:0.8;" x="28.942188" xlink:href="#mdb11513c7e" y="324.328879"/>
      </g>
     </g>
     <g id="text_12">
      <!-- −1 -->
      <g transform="translate(7.2 328.128098)scale(0.1 -0.1)">
       <use xlink:href="#DejaVuSans-8722"/>
       <use x="83.789062" xlink:href="#DejaVuSans-49"/>
      </g>
     </g>
    </g>
    <g id="ytick_4">
     <g id="line2d_13">
      <g>
       <use style="stroke:#000000;stroke-width:0.8;" x="28.942188" xlink:href="#mdb11513c7e" y="251.82"/>
      </g>
     </g>
     <g id="text_13">
      <!-- 0 -->
      <g transform="translate(15.579688 255.619219)scale(0.1 -0.1)">
       <use xlink:href="#DejaVuSans-48"/>
      </g>
     </g>
    </g>
    <g id="ytick_5">
     <g id="line2d_14">
      <g>
       <use style="stroke:#000000;stroke-width:0.8;" x="28.942188" xlink:href="#mdb11513c7e" y="179.311121"/>
      </g>
     </g>
     <g id="text_14">
      <!-- 1 -->
      <g transform="translate(15.579688 183.110339)scale(0.1 -0.1)">
       <use xlink:href="#DejaVuSans-49"/>
      </g>
     </g>
    </g>
    <g id="ytick_6">
     <g id="line2d_15">
      <g>
       <use style="stroke:#000000;stroke-width:0.8;" x="28.942188" xlink:href="#mdb11513c7e" y="106.802241"/>
      </g>
     </g>
     <g id="text_15">
      <!-- 2 -->
      <g transform="translate(15.579688 110.60146)scale(0.1 -0.1)">
       <use xlink:href="#DejaVuSans-50"/>
      </g>
     </g>
    </g>
    <g id="ytick_7">
     <g id="line2d_16">
      <g>
       <use style="stroke:#000000;stroke-width:0.8;" x="28.942188" xlink:href="#mdb11513c7e" y="34.293362"/>
      </g>
     </g>
     <g id="text_16">
      <!-- 3 -->
      <g transform="translate(15.579688 38.092581)scale(0.1 -0.1)">
       <use xlink:href="#DejaVuSans-51"/>
      </g>
     </g>
    </g>
   </g>
   <g id="line2d_17">
    <defs>
     <path d="M -3 3 
L 3 -3 
M -3 -3 
L 3 3 
" id="m4a744eee96" style="stroke:#1f77b4;"/>
    </defs>
    <g clip-path="url(#pea9208631b)">
     <use style="fill:#1f77b4;stroke:#1f77b4;" x="69.524006" xlink:href="#m4a744eee96" y="471.673462"/>
     <use style="fill:#1f77b4;stroke:#1f77b4;" x="94.119047" xlink:href="#m4a744eee96" y="472.005623"/>
     <use style="fill:#1f77b4;stroke:#1f77b4;" x="102.317394" xlink:href="#m4a744eee96" y="472.116679"/>
     <use style="fill:#1f77b4;stroke:#1f77b4;" x="110.515741" xlink:href="#m4a744eee96" y="472.227245"/>
     <use style="fill:#1f77b4;stroke:#1f77b4;" x="135.110783" xlink:href="#m4a744eee96" y="472.552121"/>
     <use style="fill:#1f77b4;stroke:#1f77b4;" x="143.30913" xlink:href="#m4a744eee96" y="472.656893"/>
     <use style="fill:#1f77b4;stroke:#1f77b4;" x="167.904171" xlink:href="#m4a744eee96" y="472.955909"/>
     <use style="fill:#1f77b4;stroke:#1f77b4;" x="192.499212" xlink:href="#m4a744eee96" y="473.226188"/>
     <use style="fill:#1f77b4;stroke:#1f77b4;" x="200.697559" xlink:href="#m4a744eee96" y="473.308899"/>
     <use style="fill:#1f77b4;stroke:#1f77b4;" x="208.895907" xlink:href="#m4a744eee96" y="473.387678"/>
     <use style="fill:#1f77b4;stroke:#1f77b4;" x="217.094254" xlink:href="#m4a744eee96" y="473.462433"/>
     <use style="fill:#1f77b4;stroke:#1f77b4;" x="225.292601" xlink:href="#m4a744eee96" y="473.533109"/>
     <use style="fill:#1f77b4;stroke:#1f77b4;" x="233.490948" xlink:href="#m4a744eee96" y="473.599685"/>
     <use style="fill:#1f77b4;stroke:#1f77b4;" x="241.689295" xlink:href="#m4a744eee96" y="473.662172"/>
     <use style="fill:#1f77b4;stroke:#1f77b4;" x="249.887642" xlink:href="#m4a744eee96" y="473.720615"/>
     <use style="fill:#1f77b4;stroke:#1f77b4;" x="258.085989" xlink:href="#m4a744eee96" y="473.775085"/>
     <use style="fill:#1f77b4;stroke:#1f77b4;" x="266.284336" xlink:href="#m4a744eee96" y="473.825683"/>
     <use style="fill:#1f77b4;stroke:#1f77b4;" x="290.879378" xlink:href="#m4a744eee96" y="473.95556"/>
     <use style="fill:#1f77b4;stroke:#1f77b4;" x="299.077725" xlink:href="#m4a744eee96" y="473.992071"/>
     <use style="fill:#1f77b4;stroke:#1f77b4;" x="307.276072" xlink:href="#m4a744eee96" y="474.025477"/>
     <use style="fill:#1f77b4;stroke:#1f77b4;" x="340.06946" xlink:href="#m4a744eee96" y="474.131293"/>
     <use style="fill:#1f77b4;stroke:#1f77b4;" x="348.267807" xlink:href="#m4a744eee96" y="474.151341"/>
     <use style="fill:#1f77b4;stroke:#1f77b4;" x="356.466154" xlink:href="#m4a744eee96" y="474.168802"/>
     <use style="fill:#1f77b4;stroke:#1f77b4;" x="364.664502" xlink:href="#m4a744eee96" y="474.183414"/>
     <use style="fill:#1f77b4;stroke:#1f77b4;" x="372.862849" xlink:href="#m4a744eee96" y="474.194626"/>
     <use style="fill:#1f77b4;stroke:#1f77b4;" x="389.259543" xlink:href="#m4a744eee96" y="474.201818"/>
     <use style="fill:#1f77b4;stroke:#1f77b4;" x="422.052931" xlink:href="#m4a744eee96" y="473.966808"/>
     <use style="fill:#1f77b4;stroke:#1f77b4;" x="438.449626" xlink:href="#m4a744eee96" y="472.578334"/>
     <use style="fill:#1f77b4;stroke:#1f77b4;" x="454.84632" xlink:href="#m4a744eee96" y="444.153936"/>
     <use style="fill:#1f77b4;stroke:#1f77b4;" x="463.044667" xlink:href="#m4a744eee96" y="303.805603"/>
     <use style="fill:#1f77b4;stroke:#1f77b4;" x="471.243014" xlink:href="#m4a744eee96" y="216.804126"/>
     <use style="fill:#1f77b4;stroke:#1f77b4;" x="487.639708" xlink:href="#m4a744eee96" y="199.834397"/>
     <use style="fill:#1f77b4;stroke:#1f77b4;" x="495.838055" xlink:href="#m4a744eee96" y="59.486064"/>
     <use style="fill:#1f77b4;stroke:#1f77b4;" x="504.036402" xlink:href="#m4a744eee96" y="35.245931"/>
     <use style="fill:#1f77b4;stroke:#1f77b4;" x="512.234749" xlink:href="#m4a744eee96" y="31.061666"/>
     <use style="fill:#1f77b4;stroke:#1f77b4;" x="520.433097" xlink:href="#m4a744eee96" y="30.018016"/>
     <use style="fill:#1f77b4;stroke:#1f77b4;" x="536.829791" xlink:href="#m4a744eee96" y="29.535565"/>
     <use style="fill:#1f77b4;stroke:#1f77b4;" x="545.028138" xlink:href="#m4a744eee96" y="29.474675"/>
     <use style="fill:#1f77b4;stroke:#1f77b4;" x="553.226485" xlink:href="#m4a744eee96" y="29.447748"/>
     <use style="fill:#1f77b4;stroke:#1f77b4;" x="561.424832" xlink:href="#m4a744eee96" y="29.438182"/>
     <use style="fill:#1f77b4;stroke:#1f77b4;" x="602.416568" xlink:href="#m4a744eee96" y="29.488659"/>
     <use style="fill:#1f77b4;stroke:#1f77b4;" x="627.011609" xlink:href="#m4a744eee96" y="29.556339"/>
     <use style="fill:#1f77b4;stroke:#1f77b4;" x="651.60665" xlink:href="#m4a744eee96" y="29.647929"/>
     <use style="fill:#1f77b4;stroke:#1f77b4;" x="659.804997" xlink:href="#m4a744eee96" y="29.68444"/>
     <use style="fill:#1f77b4;stroke:#1f77b4;" x="684.400039" xlink:href="#m4a744eee96" y="29.814317"/>
     <use style="fill:#1f77b4;stroke:#1f77b4;" x="700.796733" xlink:href="#m4a744eee96" y="29.919385"/>
     <use style="fill:#1f77b4;stroke:#1f77b4;" x="717.193427" xlink:href="#m4a744eee96" y="30.040315"/>
     <use style="fill:#1f77b4;stroke:#1f77b4;" x="725.391774" xlink:href="#m4a744eee96" y="30.106891"/>
     <use style="fill:#1f77b4;stroke:#1f77b4;" x="741.788468" xlink:href="#m4a744eee96" y="30.252322"/>
     <use style="fill:#1f77b4;stroke:#1f77b4;" x="749.986816" xlink:href="#m4a744eee96" y="30.331101"/>
     <use style="fill:#1f77b4;stroke:#1f77b4;" x="758.185163" xlink:href="#m4a744eee96" y="30.413812"/>
     <use style="fill:#1f77b4;stroke:#1f77b4;" x="766.38351" xlink:href="#m4a744eee96" y="30.500329"/>
     <use style="fill:#1f77b4;stroke:#1f77b4;" x="782.780204" xlink:href="#m4a744eee96" y="30.684091"/>
     <use style="fill:#1f77b4;stroke:#1f77b4;" x="807.375245" xlink:href="#m4a744eee96" y="30.983107"/>
     <use style="fill:#1f77b4;stroke:#1f77b4;" x="815.573592" xlink:href="#m4a744eee96" y="31.087879"/>
     <use style="fill:#1f77b4;stroke:#1f77b4;" x="823.77194" xlink:href="#m4a744eee96" y="31.194654"/>
     <use style="fill:#1f77b4;stroke:#1f77b4;" x="872.962022" xlink:href="#m4a744eee96" y="31.856376"/>
     <use style="fill:#1f77b4;stroke:#1f77b4;" x="881.160369" xlink:href="#m4a744eee96" y="31.966538"/>
    </g>
   </g>
   <g id="line2d_18">
    <defs>
     <path d="M -3 3 
L 3 -3 
M -3 -3 
L 3 3 
" id="mfd084b2060" style="stroke:#ff7f0e;"/>
    </defs>
    <g clip-path="url(#pea9208631b)">
     <use style="fill:#ff7f0e;stroke:#ff7f0e;" x="77.722353" xlink:href="#mfd084b2060" y="171.584591"/>
     <use style="fill:#ff7f0e;stroke:#ff7f0e;" x="85.9207" xlink:href="#mfd084b2060" y="171.701295"/>
     <use style="fill:#ff7f0e;stroke:#ff7f0e;" x="118.714088" xlink:href="#mfd084b2060" y="172.239359"/>
     <use style="fill:#ff7f0e;stroke:#ff7f0e;" x="126.912435" xlink:href="#mfd084b2060" y="172.404594"/>
     <use style="fill:#ff7f0e;stroke:#ff7f0e;" x="151.507477" xlink:href="#mfd084b2060" y="173.049118"/>
     <use style="fill:#ff7f0e;stroke:#ff7f0e;" x="159.705824" xlink:href="#mfd084b2060" y="173.344302"/>
     <use style="fill:#ff7f0e;stroke:#ff7f0e;" x="176.102518" xlink:href="#mfd084b2060" y="174.159306"/>
     <use style="fill:#ff7f0e;stroke:#ff7f0e;" x="184.300865" xlink:href="#mfd084b2060" y="174.744329"/>
     <use style="fill:#ff7f0e;stroke:#ff7f0e;" x="274.482683" xlink:href="#mfd084b2060" y="466.698187"/>
     <use style="fill:#ff7f0e;stroke:#ff7f0e;" x="282.68103" xlink:href="#mfd084b2060" y="464.476064"/>
     <use style="fill:#ff7f0e;stroke:#ff7f0e;" x="315.474419" xlink:href="#mfd084b2060" y="464.324037"/>
     <use style="fill:#ff7f0e;stroke:#ff7f0e;" x="323.672766" xlink:href="#mfd084b2060" y="464.323459"/>
     <use style="fill:#ff7f0e;stroke:#ff7f0e;" x="331.871113" xlink:href="#mfd084b2060" y="464.323211"/>
     <use style="fill:#ff7f0e;stroke:#ff7f0e;" x="381.061196" xlink:href="#mfd084b2060" y="464.322979"/>
     <use style="fill:#ff7f0e;stroke:#ff7f0e;" x="397.45789" xlink:href="#mfd084b2060" y="464.32297"/>
     <use style="fill:#ff7f0e;stroke:#ff7f0e;" x="405.656237" xlink:href="#mfd084b2060" y="464.32297"/>
     <use style="fill:#ff7f0e;stroke:#ff7f0e;" x="413.854584" xlink:href="#mfd084b2060" y="464.322976"/>
     <use style="fill:#ff7f0e;stroke:#ff7f0e;" x="430.251278" xlink:href="#mfd084b2060" y="464.32306"/>
     <use style="fill:#ff7f0e;stroke:#ff7f0e;" x="446.647973" xlink:href="#mfd084b2060" y="464.323996"/>
     <use style="fill:#ff7f0e;stroke:#ff7f0e;" x="479.441361" xlink:href="#mfd084b2060" y="464.641476"/>
     <use style="fill:#ff7f0e;stroke:#ff7f0e;" x="528.631444" xlink:href="#mfd084b2060" y="464.323184"/>
     <use style="fill:#ff7f0e;stroke:#ff7f0e;" x="569.623179" xlink:href="#mfd084b2060" y="444.613276"/>
     <use style="fill:#ff7f0e;stroke:#ff7f0e;" x="577.821526" xlink:href="#mfd084b2060" y="373.340559"/>
     <use style="fill:#ff7f0e;stroke:#ff7f0e;" x="586.019873" xlink:href="#mfd084b2060" y="361.170613"/>
     <use style="fill:#ff7f0e;stroke:#ff7f0e;" x="594.218221" xlink:href="#mfd084b2060" y="356.156558"/>
     <use style="fill:#ff7f0e;stroke:#ff7f0e;" x="610.614915" xlink:href="#mfd084b2060" y="349.165444"/>
     <use style="fill:#ff7f0e;stroke:#ff7f0e;" x="618.813262" xlink:href="#mfd084b2060" y="346.074715"/>
     <use style="fill:#ff7f0e;stroke:#ff7f0e;" x="635.209956" xlink:href="#mfd084b2060" y="337.74545"/>
     <use style="fill:#ff7f0e;stroke:#ff7f0e;" x="643.408303" xlink:href="#mfd084b2060" y="330.834681"/>
     <use style="fill:#ff7f0e;stroke:#ff7f0e;" x="668.003345" xlink:href="#mfd084b2060" y="290.922589"/>
     <use style="fill:#ff7f0e;stroke:#ff7f0e;" x="676.201692" xlink:href="#mfd084b2060" y="276.777926"/>
     <use style="fill:#ff7f0e;stroke:#ff7f0e;" x="692.598386" xlink:href="#mfd084b2060" y="266.967903"/>
     <use style="fill:#ff7f0e;stroke:#ff7f0e;" x="708.99508" xlink:href="#mfd084b2060" y="287.811963"/>
     <use style="fill:#ff7f0e;stroke:#ff7f0e;" x="733.590121" xlink:href="#mfd084b2060" y="317.813475"/>
     <use style="fill:#ff7f0e;stroke:#ff7f0e;" x="774.581857" xlink:href="#mfd084b2060" y="330.556864"/>
     <use style="fill:#ff7f0e;stroke:#ff7f0e;" x="790.978551" xlink:href="#mfd084b2060" y="335.481508"/>
     <use style="fill:#ff7f0e;stroke:#ff7f0e;" x="799.176898" xlink:href="#mfd084b2060" y="338.204565"/>
     <use style="fill:#ff7f0e;stroke:#ff7f0e;" x="831.970287" xlink:href="#mfd084b2060" y="350.319016"/>
     <use style="fill:#ff7f0e;stroke:#ff7f0e;" x="840.168634" xlink:href="#mfd084b2060" y="353.414032"/>
     <use style="fill:#ff7f0e;stroke:#ff7f0e;" x="848.366981" xlink:href="#mfd084b2060" y="356.421448"/>
     <use style="fill:#ff7f0e;stroke:#ff7f0e;" x="856.565328" xlink:href="#mfd084b2060" y="359.288266"/>
     <use style="fill:#ff7f0e;stroke:#ff7f0e;" x="864.763675" xlink:href="#mfd084b2060" y="361.969851"/>
    </g>
   </g>
   <g id="patch_3">
    <path d="M 28.942188 496.44 
L 28.942188 7.2 
" style="fill:none;stroke:#000000;stroke-linecap:square;stroke-linejoin:miter;stroke-width:0.8;"/>
   </g>
   <g id="patch_4">
    <path d="M 921.742188 496.44 
L 921.742188 7.2 
" style="fill:none;stroke:#000000;stroke-linecap:square;stroke-linejoin:miter;stroke-width:0.8;"/>
   </g>
   <g id="patch_5">
    <path d="M 28.942188 496.44 
L 921.742188 496.44 
" style="fill:none;stroke:#000000;stroke-linecap:square;stroke-linejoin:miter;stroke-width:0.8;"/>
   </g>
   <g id="patch_6">
    <path d="M 28.942188 7.2 
L 921.742188 7.2 
" style="fill:none;stroke:#000000;stroke-linecap:square;stroke-linejoin:miter;stroke-width:0.8;"/>
   </g>
  </g>
 </g>
 <defs>
  <clipPath id="pea9208631b">
   <rect height="489.24" width="892.8" x="28.942188" y="7.2"/>
  </clipPath>
 </defs>
</svg>
