<?xml version="1.0" encoding="utf-8" standalone="no"?>
<!DOCTYPE svg PUBLIC "-//W3C//DTD SVG 1.1//EN"
  "http://www.w3.org/Graphics/SVG/1.1/DTD/svg11.dtd">
<!-- Created with matplotlib (https://matplotlib.org/) -->
<svg height="520.318125pt" version="1.1" viewBox="0 0 928.942187 520.318125" width="928.942187pt" xmlns="http://www.w3.org/2000/svg" xmlns:xlink="http://www.w3.org/1999/xlink">
 <defs>
  <style type="text/css">
*{stroke-linecap:butt;stroke-linejoin:round;}
  </style>
 </defs>
 <g id="figure_1">
  <g id="patch_1">
   <path d="M 0 520.318125 
L 928.942187 520.318125 
L 928.942187 0 
L 0 0 
z
" style="fill:none;"/>
  </g>
  <g id="axes_1">
   <g id="patch_2">
    <path d="M 28.942188 496.44 
L 921.742188 496.44 
L 921.742188 7.2 
L 28.942188 7.2 
z
" style="fill:#ffffff;"/>
   </g>
   <g id="PolyCollection_1">
    <defs>
     <path d="M 69.524006 -56.578656 
L 69.524006 -56.578656 
L 94.119047 -47.143999 
L 102.317394 -46.332571 
L 110.515741 -46.116307 
L 135.110783 -47.944753 
L 143.30913 -49.300256 
L 167.904171 -55.516502 
L 192.499212 -63.128135 
L 200.697559 -65.403144 
L 208.895907 -67.424413 
L 217.094254 -69.178254 
L 225.292601 -70.676819 
L 233.490948 -71.945711 
L 241.689295 -73.015007 
L 249.887642 -73.914019 
L 258.085989 -70.355457 
L 266.284336 -75.301745 
L 290.879378 -69.526254 
L 299.077725 -74.535924 
L 307.276072 -74.754695 
L 340.06946 -55.264643 
L 348.267807 -52.744877 
L 356.466154 -52.72831 
L 364.664502 -52.714447 
L 372.862849 -52.70381 
L 389.259543 -52.696986 
L 422.052931 -52.919954 
L 438.449626 -54.237281 
L 454.84632 -81.205191 
L 463.044667 -214.361966 
L 471.243014 -296.905421 
L 487.639708 -323.324044 
L 495.838055 -467.161092 
L 504.036402 -487.558133 
L 512.234749 -490.064669 
L 520.433097 -490.614798 
L 536.829791 -490.844394 
L 545.028138 -490.869326 
L 553.226485 -490.878553 
L 561.424832 -490.879943 
L 602.416568 -490.841634 
L 627.011609 -490.799205 
L 651.60665 -490.742568 
L 659.804997 -490.720032 
L 684.400039 -490.639782 
L 700.796733 -490.574652 
L 717.193427 -490.499377 
L 725.391774 -490.457778 
L 741.788468 -490.366486 
L 749.986816 -490.316784 
L 758.185163 -490.264408 
L 766.38351 -490.209407 
L 782.780204 -490.09184 
L 807.375245 -489.89835 
L 815.573592 -489.829907 
L 823.77194 -489.759811 
L 872.962022 -489.317607 
L 881.160369 -489.242692 
L 881.160369 -489.242692 
L 881.160369 -489.242692 
L 872.962022 -489.317607 
L 823.77194 -489.759811 
L 815.573592 -489.829907 
L 807.375245 -489.89835 
L 782.780204 -490.09184 
L 766.38351 -490.209407 
L 758.185163 -490.264408 
L 749.986816 -490.316784 
L 741.788468 -490.366486 
L 725.391774 -490.457778 
L 717.193427 -490.499377 
L 700.796733 -490.574652 
L 684.400039 -490.639782 
L 659.804997 -490.720032 
L 651.60665 -490.742568 
L 627.011609 -490.799205 
L 602.416568 -490.841634 
L 561.424832 -490.879943 
L 553.226485 -490.878553 
L 545.028138 -490.869326 
L 536.829791 -490.844394 
L 520.433097 -490.614798 
L 512.234749 -490.064669 
L 504.036402 -487.558133 
L 495.838055 -467.161092 
L 487.639708 -360.935764 
L 471.243014 -296.905421 
L 463.044667 -214.361966 
L 454.84632 -81.205191 
L 438.449626 -54.237281 
L 422.052931 -52.919954 
L 389.259543 -52.696986 
L 372.862849 -52.70381 
L 364.664502 -52.714447 
L 356.466154 -52.72831 
L 348.267807 -52.744877 
L 340.06946 -62.766878 
L 307.276072 -82.051497 
L 299.077725 -81.749237 
L 290.879378 -80.390643 
L 266.284336 -75.301745 
L 258.085989 -78.98226 
L 249.887642 -73.914019 
L 241.689295 -73.015007 
L 233.490948 -71.945711 
L 225.292601 -70.676819 
L 217.094254 -69.178254 
L 208.895907 -67.424413 
L 200.697559 -65.403144 
L 192.499212 -63.128135 
L 167.904171 -55.516502 
L 143.30913 -49.300256 
L 135.110783 -47.944753 
L 110.515741 -46.116307 
L 102.317394 -46.332571 
L 94.119047 -47.143999 
L 69.524006 -56.578656 
z
" id="mf8a1d11c53" style="stroke:#0000ff;stroke-opacity:0.3;"/>
    </defs>
    <g clip-path="url(#p3997d691f0)">
     <use style="fill:#0000ff;fill-opacity:0.3;stroke:#0000ff;stroke-opacity:0.3;" x="0" xlink:href="#mf8a1d11c53" y="520.318125"/>
    </g>
   </g>
   <g id="PolyCollection_2">
    <defs>
     <path d="M 69.524006 -56.578656 
L 69.524006 -56.578656 
L 94.119047 -47.143999 
L 102.317394 -46.332571 
L 110.515741 -46.116307 
L 135.110783 -47.944753 
L 143.30913 -49.300256 
L 167.904171 -55.516502 
L 192.499212 -63.128135 
L 200.697559 -65.403144 
L 208.895907 -67.424413 
L 217.094254 -69.178254 
L 225.292601 -70.676819 
L 233.490948 -71.945711 
L 241.689295 -73.015007 
L 249.887642 -73.914019 
L 258.085989 -70.355457 
L 266.284336 -75.301745 
L 290.879378 -69.526254 
L 299.077725 -74.535924 
L 307.276072 -74.754695 
L 340.06946 -55.264643 
L 348.267807 -52.744877 
L 356.466154 -52.72831 
L 364.664502 -52.714447 
L 372.862849 -52.70381 
L 389.259543 -52.696986 
L 422.052931 -52.919954 
L 438.449626 -54.237281 
L 454.84632 -81.205191 
L 463.044667 -214.361966 
L 471.243014 -296.905421 
L 487.639708 -323.324044 
L 495.838055 -467.161092 
L 504.036402 -487.558133 
L 512.234749 -490.064669 
L 520.433097 -490.614798 
L 536.829791 -490.844394 
L 545.028138 -490.869326 
L 553.226485 -490.878553 
L 561.424832 -490.879943 
L 602.416568 -490.841634 
L 627.011609 -490.799205 
L 651.60665 -490.742568 
L 659.804997 -490.720032 
L 684.400039 -490.639782 
L 700.796733 -490.574652 
L 717.193427 -490.499377 
L 725.391774 -490.457778 
L 741.788468 -490.366486 
L 749.986816 -490.316784 
L 758.185163 -490.264408 
L 766.38351 -490.209407 
L 782.780204 -490.09184 
L 807.375245 -489.89835 
L 815.573592 -489.829907 
L 823.77194 -489.759811 
L 872.962022 -489.317607 
L 881.160369 -489.242692 
L 881.160369 -489.242692 
L 881.160369 -489.242692 
L 872.962022 -489.317607 
L 823.77194 -489.759811 
L 815.573592 -489.829907 
L 807.375245 -489.89835 
L 782.780204 -490.09184 
L 766.38351 -490.209407 
L 758.185163 -490.264408 
L 749.986816 -490.316784 
L 741.788468 -490.366486 
L 725.391774 -490.457778 
L 717.193427 -490.499377 
L 700.796733 -490.574652 
L 684.400039 -490.639782 
L 659.804997 -490.720032 
L 651.60665 -490.742568 
L 627.011609 -490.799205 
L 602.416568 -490.841634 
L 561.424832 -490.879943 
L 553.226485 -490.878553 
L 545.028138 -490.869326 
L 536.829791 -490.844394 
L 520.433097 -490.614798 
L 512.234749 -490.064669 
L 504.036402 -487.558133 
L 495.838055 -467.161092 
L 487.639708 -285.712325 
L 471.243014 -296.905421 
L 463.044667 -214.361966 
L 454.84632 -81.205191 
L 438.449626 -54.237281 
L 422.052931 -52.919954 
L 389.259543 -52.696986 
L 372.862849 -52.70381 
L 364.664502 -52.714447 
L 356.466154 -52.72831 
L 348.267807 -52.744877 
L 340.06946 -47.762408 
L 307.276072 -67.457894 
L 299.077725 -67.322611 
L 290.879378 -58.661865 
L 266.284336 -75.301745 
L 258.085989 -61.728655 
L 249.887642 -73.914019 
L 241.689295 -73.015007 
L 233.490948 -71.945711 
L 225.292601 -70.676819 
L 217.094254 -69.178254 
L 208.895907 -67.424413 
L 200.697559 -65.403144 
L 192.499212 -63.128135 
L 167.904171 -55.516502 
L 143.30913 -49.300256 
L 135.110783 -47.944753 
L 110.515741 -46.116307 
L 102.317394 -46.332571 
L 94.119047 -47.143999 
L 69.524006 -56.578656 
z
" id="m5cf3d8363d" style="stroke:#0000ff;stroke-opacity:0.3;"/>
    </defs>
    <g clip-path="url(#p3997d691f0)">
     <use style="fill:#0000ff;fill-opacity:0.3;stroke:#0000ff;stroke-opacity:0.3;" x="0" xlink:href="#m5cf3d8363d" y="520.318125"/>
    </g>
   </g>
   <g id="matplotlib.axis_1">
    <g id="xtick_1">
     <g id="line2d_1">
      <defs>
       <path d="M 0 0 
L 0 3.5 
" id="m166f427cc4" style="stroke:#000000;stroke-width:0.8;"/>
      </defs>
      <g>
       <use style="stroke:#000000;stroke-width:0.8;" x="69.524006" xlink:href="#m166f427cc4" y="496.44"/>
      </g>
     </g>
     <g id="text_1">
      <!-- −10.0 -->
      <defs>
       <path d="M 10.59375 35.5 
L 73.1875 35.5 
L 73.1875 27.203125 
L 10.59375 27.203125 
z
" id="DejaVuSans-8722"/>
       <path d="M 12.40625 8.296875 
L 28.515625 8.296875 
L 28.515625 63.921875 
L 10.984375 60.40625 
L 10.984375 69.390625 
L 28.421875 72.90625 
L 38.28125 72.90625 
L 38.28125 8.296875 
L 54.390625 8.296875 
L 54.390625 0 
L 12.40625 0 
z
" id="DejaVuSans-49"/>
       <path d="M 31.78125 66.40625 
Q 24.171875 66.40625 20.328125 58.90625 
Q 16.5 51.421875 16.5 36.375 
Q 16.5 21.390625 20.328125 13.890625 
Q 24.171875 6.390625 31.78125 6.390625 
Q 39.453125 6.390625 43.28125 13.890625 
Q 47.125 21.390625 47.125 36.375 
Q 47.125 51.421875 43.28125 58.90625 
Q 39.453125 66.40625 31.78125 66.40625 
z
M 31.78125 74.21875 
Q 44.046875 74.21875 50.515625 64.515625 
Q 56.984375 54.828125 56.984375 36.375 
Q 56.984375 17.96875 50.515625 8.265625 
Q 44.046875 -1.421875 31.78125 -1.421875 
Q 19.53125 -1.421875 13.0625 8.265625 
Q 6.59375 17.96875 6.59375 36.375 
Q 6.59375 54.828125 13.0625 64.515625 
Q 19.53125 74.21875 31.78125 74.21875 
z
" id="DejaVuSans-48"/>
       <path d="M 10.6875 12.40625 
L 21 12.40625 
L 21 0 
L 10.6875 0 
z
" id="DejaVuSans-46"/>
      </defs>
      <g transform="translate(54.201349 511.038437)scale(0.1 -0.1)">
       <use xlink:href="#DejaVuSans-8722"/>
       <use x="83.789062" xlink:href="#DejaVuSans-49"/>
       <use x="147.412109" xlink:href="#DejaVuSans-48"/>
       <use x="211.035156" xlink:href="#DejaVuSans-46"/>
       <use x="242.822266" xlink:href="#DejaVuSans-48"/>
      </g>
     </g>
    </g>
    <g id="xtick_2">
     <g id="line2d_2">
      <g>
       <use style="stroke:#000000;stroke-width:0.8;" x="170.978551" xlink:href="#m166f427cc4" y="496.44"/>
      </g>
     </g>
     <g id="text_2">
      <!-- −7.5 -->
      <defs>
       <path d="M 8.203125 72.90625 
L 55.078125 72.90625 
L 55.078125 68.703125 
L 28.609375 0 
L 18.3125 0 
L 43.21875 64.59375 
L 8.203125 64.59375 
z
" id="DejaVuSans-55"/>
       <path d="M 10.796875 72.90625 
L 49.515625 72.90625 
L 49.515625 64.59375 
L 19.828125 64.59375 
L 19.828125 46.734375 
Q 21.96875 47.46875 24.109375 47.828125 
Q 26.265625 48.1875 28.421875 48.1875 
Q 40.625 48.1875 47.75 41.5 
Q 54.890625 34.8125 54.890625 23.390625 
Q 54.890625 11.625 47.5625 5.09375 
Q 40.234375 -1.421875 26.90625 -1.421875 
Q 22.3125 -1.421875 17.546875 -0.640625 
Q 12.796875 0.140625 7.71875 1.703125 
L 7.71875 11.625 
Q 12.109375 9.234375 16.796875 8.0625 
Q 21.484375 6.890625 26.703125 6.890625 
Q 35.15625 6.890625 40.078125 11.328125 
Q 45.015625 15.765625 45.015625 23.390625 
Q 45.015625 31 40.078125 35.4375 
Q 35.15625 39.890625 26.703125 39.890625 
Q 22.75 39.890625 18.8125 39.015625 
Q 14.890625 38.140625 10.796875 36.28125 
z
" id="DejaVuSans-53"/>
      </defs>
      <g transform="translate(158.837145 511.038437)scale(0.1 -0.1)">
       <use xlink:href="#DejaVuSans-8722"/>
       <use x="83.789062" xlink:href="#DejaVuSans-55"/>
       <use x="147.412109" xlink:href="#DejaVuSans-46"/>
       <use x="179.199219" xlink:href="#DejaVuSans-53"/>
      </g>
     </g>
    </g>
    <g id="xtick_3">
     <g id="line2d_3">
      <g>
       <use style="stroke:#000000;stroke-width:0.8;" x="272.433097" xlink:href="#m166f427cc4" y="496.44"/>
      </g>
     </g>
     <g id="text_3">
      <!-- −5.0 -->
      <g transform="translate(260.29169 511.038437)scale(0.1 -0.1)">
       <use xlink:href="#DejaVuSans-8722"/>
       <use x="83.789062" xlink:href="#DejaVuSans-53"/>
       <use x="147.412109" xlink:href="#DejaVuSans-46"/>
       <use x="179.199219" xlink:href="#DejaVuSans-48"/>
      </g>
     </g>
    </g>
    <g id="xtick_4">
     <g id="line2d_4">
      <g>
       <use style="stroke:#000000;stroke-width:0.8;" x="373.887642" xlink:href="#m166f427cc4" y="496.44"/>
      </g>
     </g>
     <g id="text_4">
      <!-- −2.5 -->
      <defs>
       <path d="M 19.1875 8.296875 
L 53.609375 8.296875 
L 53.609375 0 
L 7.328125 0 
L 7.328125 8.296875 
Q 12.9375 14.109375 22.625 23.890625 
Q 32.328125 33.6875 34.8125 36.53125 
Q 39.546875 41.84375 41.421875 45.53125 
Q 43.3125 49.21875 43.3125 52.78125 
Q 43.3125 58.59375 39.234375 62.25 
Q 35.15625 65.921875 28.609375 65.921875 
Q 23.96875 65.921875 18.8125 64.3125 
Q 13.671875 62.703125 7.8125 59.421875 
L 7.8125 69.390625 
Q 13.765625 71.78125 18.9375 73 
Q 24.125 74.21875 28.421875 74.21875 
Q 39.75 74.21875 46.484375 68.546875 
Q 53.21875 62.890625 53.21875 53.421875 
Q 53.21875 48.921875 51.53125 44.890625 
Q 49.859375 40.875 45.40625 35.40625 
Q 44.1875 33.984375 37.640625 27.21875 
Q 31.109375 20.453125 19.1875 8.296875 
z
" id="DejaVuSans-50"/>
      </defs>
      <g transform="translate(361.746236 511.038437)scale(0.1 -0.1)">
       <use xlink:href="#DejaVuSans-8722"/>
       <use x="83.789062" xlink:href="#DejaVuSans-50"/>
       <use x="147.412109" xlink:href="#DejaVuSans-46"/>
       <use x="179.199219" xlink:href="#DejaVuSans-53"/>
      </g>
     </g>
    </g>
    <g id="xtick_5">
     <g id="line2d_5">
      <g>
       <use style="stroke:#000000;stroke-width:0.8;" x="475.342188" xlink:href="#m166f427cc4" y="496.44"/>
      </g>
     </g>
     <g id="text_5">
      <!-- 0.0 -->
      <g transform="translate(467.390625 511.038437)scale(0.1 -0.1)">
       <use xlink:href="#DejaVuSans-48"/>
       <use x="63.623047" xlink:href="#DejaVuSans-46"/>
       <use x="95.410156" xlink:href="#DejaVuSans-48"/>
      </g>
     </g>
    </g>
    <g id="xtick_6">
     <g id="line2d_6">
      <g>
       <use style="stroke:#000000;stroke-width:0.8;" x="576.796733" xlink:href="#m166f427cc4" y="496.44"/>
      </g>
     </g>
     <g id="text_6">
      <!-- 2.5 -->
      <g transform="translate(568.84517 511.038437)scale(0.1 -0.1)">
       <use xlink:href="#DejaVuSans-50"/>
       <use x="63.623047" xlink:href="#DejaVuSans-46"/>
       <use x="95.410156" xlink:href="#DejaVuSans-53"/>
      </g>
     </g>
    </g>
    <g id="xtick_7">
     <g id="line2d_7">
      <g>
       <use style="stroke:#000000;stroke-width:0.8;" x="678.251278" xlink:href="#m166f427cc4" y="496.44"/>
      </g>
     </g>
     <g id="text_7">
      <!-- 5.0 -->
      <g transform="translate(670.299716 511.038437)scale(0.1 -0.1)">
       <use xlink:href="#DejaVuSans-53"/>
       <use x="63.623047" xlink:href="#DejaVuSans-46"/>
       <use x="95.410156" xlink:href="#DejaVuSans-48"/>
      </g>
     </g>
    </g>
    <g id="xtick_8">
     <g id="line2d_8">
      <g>
       <use style="stroke:#000000;stroke-width:0.8;" x="779.705824" xlink:href="#m166f427cc4" y="496.44"/>
      </g>
     </g>
     <g id="text_8">
      <!-- 7.5 -->
      <g transform="translate(771.754261 511.038437)scale(0.1 -0.1)">
       <use xlink:href="#DejaVuSans-55"/>
       <use x="63.623047" xlink:href="#DejaVuSans-46"/>
       <use x="95.410156" xlink:href="#DejaVuSans-53"/>
      </g>
     </g>
    </g>
    <g id="xtick_9">
     <g id="line2d_9">
      <g>
       <use style="stroke:#000000;stroke-width:0.8;" x="881.160369" xlink:href="#m166f427cc4" y="496.44"/>
      </g>
     </g>
     <g id="text_9">
      <!-- 10.0 -->
      <g transform="translate(870.027557 511.038437)scale(0.1 -0.1)">
       <use xlink:href="#DejaVuSans-49"/>
       <use x="63.623047" xlink:href="#DejaVuSans-48"/>
       <use x="127.246094" xlink:href="#DejaVuSans-46"/>
       <use x="159.033203" xlink:href="#DejaVuSans-48"/>
      </g>
     </g>
    </g>
   </g>
   <g id="matplotlib.axis_2">
    <g id="ytick_1">
     <g id="line2d_10">
      <defs>
       <path d="M 0 0 
L -3.5 0 
" id="mcbaa0c1d87" style="stroke:#000000;stroke-width:0.8;"/>
      </defs>
      <g>
       <use style="stroke:#000000;stroke-width:0.8;" x="28.942188" xlink:href="#mcbaa0c1d87" y="463.014742"/>
      </g>
     </g>
     <g id="text_10">
      <!-- −3 -->
      <defs>
       <path d="M 40.578125 39.3125 
Q 47.65625 37.796875 51.625 33 
Q 55.609375 28.21875 55.609375 21.1875 
Q 55.609375 10.40625 48.1875 4.484375 
Q 40.765625 -1.421875 27.09375 -1.421875 
Q 22.515625 -1.421875 17.65625 -0.515625 
Q 12.796875 0.390625 7.625 2.203125 
L 7.625 11.71875 
Q 11.71875 9.328125 16.59375 8.109375 
Q 21.484375 6.890625 26.8125 6.890625 
Q 36.078125 6.890625 40.9375 10.546875 
Q 45.796875 14.203125 45.796875 21.1875 
Q 45.796875 27.640625 41.28125 31.265625 
Q 36.765625 34.90625 28.71875 34.90625 
L 20.21875 34.90625 
L 20.21875 43.015625 
L 29.109375 43.015625 
Q 36.375 43.015625 40.234375 45.921875 
Q 44.09375 48.828125 44.09375 54.296875 
Q 44.09375 59.90625 40.109375 62.90625 
Q 36.140625 65.921875 28.71875 65.921875 
Q 24.65625 65.921875 20.015625 65.03125 
Q 15.375 64.15625 9.8125 62.3125 
L 9.8125 71.09375 
Q 15.4375 72.65625 20.34375 73.4375 
Q 25.25 74.21875 29.59375 74.21875 
Q 40.828125 74.21875 47.359375 69.109375 
Q 53.90625 64.015625 53.90625 55.328125 
Q 53.90625 49.265625 50.4375 45.09375 
Q 46.96875 40.921875 40.578125 39.3125 
z
" id="DejaVuSans-51"/>
      </defs>
      <g transform="translate(7.2 466.813961)scale(0.1 -0.1)">
       <use xlink:href="#DejaVuSans-8722"/>
       <use x="83.789062" xlink:href="#DejaVuSans-51"/>
      </g>
     </g>
    </g>
    <g id="ytick_2">
     <g id="line2d_11">
      <g>
       <use style="stroke:#000000;stroke-width:0.8;" x="28.942188" xlink:href="#mcbaa0c1d87" y="394.221274"/>
      </g>
     </g>
     <g id="text_11">
      <!-- −2 -->
      <g transform="translate(7.2 398.020493)scale(0.1 -0.1)">
       <use xlink:href="#DejaVuSans-8722"/>
       <use x="83.789062" xlink:href="#DejaVuSans-50"/>
      </g>
     </g>
    </g>
    <g id="ytick_3">
     <g id="line2d_12">
      <g>
       <use style="stroke:#000000;stroke-width:0.8;" x="28.942188" xlink:href="#mcbaa0c1d87" y="325.427806"/>
      </g>
     </g>
     <g id="text_12">
      <!-- −1 -->
      <g transform="translate(7.2 329.227025)scale(0.1 -0.1)">
       <use xlink:href="#DejaVuSans-8722"/>
       <use x="83.789062" xlink:href="#DejaVuSans-49"/>
      </g>
     </g>
    </g>
    <g id="ytick_4">
     <g id="line2d_13">
      <g>
       <use style="stroke:#000000;stroke-width:0.8;" x="28.942188" xlink:href="#mcbaa0c1d87" y="256.634338"/>
      </g>
     </g>
     <g id="text_13">
      <!-- 0 -->
      <g transform="translate(15.579688 260.433557)scale(0.1 -0.1)">
       <use xlink:href="#DejaVuSans-48"/>
      </g>
     </g>
    </g>
    <g id="ytick_5">
     <g id="line2d_14">
      <g>
       <use style="stroke:#000000;stroke-width:0.8;" x="28.942188" xlink:href="#mcbaa0c1d87" y="187.84087"/>
      </g>
     </g>
     <g id="text_14">
      <!-- 1 -->
      <g transform="translate(15.579688 191.640088)scale(0.1 -0.1)">
       <use xlink:href="#DejaVuSans-49"/>
      </g>
     </g>
    </g>
    <g id="ytick_6">
     <g id="line2d_15">
      <g>
       <use style="stroke:#000000;stroke-width:0.8;" x="28.942188" xlink:href="#mcbaa0c1d87" y="119.047402"/>
      </g>
     </g>
     <g id="text_15">
      <!-- 2 -->
      <g transform="translate(15.579688 122.84662)scale(0.1 -0.1)">
       <use xlink:href="#DejaVuSans-50"/>
      </g>
     </g>
    </g>
    <g id="ytick_7">
     <g id="line2d_16">
      <g>
       <use style="stroke:#000000;stroke-width:0.8;" x="28.942188" xlink:href="#mcbaa0c1d87" y="50.253933"/>
      </g>
     </g>
     <g id="text_16">
      <!-- 3 -->
      <g transform="translate(15.579688 54.053152)scale(0.1 -0.1)">
       <use xlink:href="#DejaVuSans-51"/>
      </g>
     </g>
    </g>
   </g>
   <g id="line2d_17">
    <path clip-path="url(#p3997d691f0)" d="M 69.524006 463.739469 
L 94.119047 473.174126 
L 102.317394 473.985554 
L 110.515741 474.201818 
L 135.110783 472.373372 
L 143.30913 471.017869 
L 167.904171 464.801623 
L 192.499212 457.18999 
L 200.697559 454.914981 
L 208.895907 452.893712 
L 217.094254 451.139871 
L 225.292601 449.641306 
L 233.490948 448.372414 
L 241.689295 447.303118 
L 249.887642 446.404106 
L 258.085989 449.962668 
L 266.284336 445.01638 
L 290.879378 450.791871 
L 299.077725 445.782201 
L 307.276072 445.56343 
L 340.06946 465.053482 
L 348.267807 467.573248 
L 356.466154 467.589815 
L 364.664502 467.603678 
L 372.862849 467.614315 
L 389.259543 467.621139 
L 422.052931 467.398171 
L 438.449626 466.080844 
L 454.84632 439.112934 
L 463.044667 305.956159 
L 471.243014 223.412704 
L 487.639708 196.994081 
L 495.838055 53.157033 
L 504.036402 32.759992 
L 512.234749 30.253456 
L 520.433097 29.703327 
L 536.829791 29.473731 
L 545.028138 29.448799 
L 553.226485 29.439572 
L 561.424832 29.438182 
L 602.416568 29.476491 
L 627.011609 29.51892 
L 651.60665 29.575557 
L 659.804997 29.598093 
L 684.400039 29.678343 
L 700.796733 29.743473 
L 717.193427 29.818748 
L 725.391774 29.860347 
L 741.788468 29.951639 
L 749.986816 30.001341 
L 758.185163 30.053717 
L 766.38351 30.108718 
L 782.780204 30.226285 
L 807.375245 30.419775 
L 815.573592 30.488218 
L 823.77194 30.558314 
L 872.962022 31.000518 
L 881.160369 31.075433 
" style="fill:none;stroke:#1f77b4;stroke-linecap:square;stroke-width:1.5;"/>
   </g>
   <g id="line2d_18">
    <path clip-path="url(#p3997d691f0)" d="M 69.524006 465.222338 
L 94.119047 465.537479 
L 102.317394 465.642844 
L 110.515741 465.747745 
L 135.110783 466.055973 
L 143.30913 466.155377 
L 167.904171 466.439071 
L 192.499212 466.695501 
L 200.697559 466.773974 
L 208.895907 466.848716 
L 217.094254 466.919641 
L 225.292601 466.986695 
L 233.490948 467.04986 
L 241.689295 467.109145 
L 249.887642 467.164593 
L 258.085989 467.216272 
L 266.284336 467.264277 
L 290.879378 467.3875 
L 299.077725 467.42214 
L 307.276072 467.453834 
L 340.06946 467.554227 
L 348.267807 467.573248 
L 356.466154 467.589815 
L 364.664502 467.603678 
L 372.862849 467.614315 
L 389.259543 467.621139 
L 422.052931 467.398171 
L 438.449626 466.080844 
L 454.84632 439.112934 
L 463.044667 305.956159 
L 471.243014 223.412704 
L 487.639708 207.312517 
L 495.838055 74.155742 
L 504.036402 51.157693 
L 512.234749 47.187832 
L 520.433097 46.197659 
L 536.829791 45.73993 
L 545.028138 45.682159 
L 553.226485 45.656612 
L 561.424832 45.647537 
L 602.416568 45.695428 
L 627.011609 45.759639 
L 651.60665 45.846536 
L 659.804997 45.881176 
L 684.400039 46.004398 
L 700.796733 46.104083 
L 717.193427 46.218816 
L 725.391774 46.28198 
L 741.788468 46.41996 
L 749.986816 46.494702 
L 758.185163 46.573175 
L 766.38351 46.655258 
L 782.780204 46.829604 
L 807.375245 47.113299 
L 815.573592 47.212702 
L 823.77194 47.314005 
L 872.962022 47.94182 
L 881.160369 48.046337 
" style="fill:none;stroke:#ff7f0e;stroke-linecap:square;stroke-width:1.5;"/>
   </g>
   <g id="line2d_19">
    <path clip-path="url(#p3997d691f0)" d="M 77.722353 180.510253 
L 85.9207 180.620978 
L 118.714088 181.13147 
L 126.912435 181.288238 
L 151.507477 181.899737 
L 159.705824 182.179795 
L 176.102518 182.953038 
L 184.300865 183.508084 
L 274.482683 460.502 
L 282.68103 458.39374 
L 315.474419 458.249503 
L 323.672766 458.248954 
L 331.871113 458.24872 
L 381.061196 458.248499 
L 397.45789 458.248491 
L 405.656237 458.248491 
L 413.854584 458.248496 
L 430.251278 458.248576 
L 446.647973 458.249464 
L 479.441361 458.550677 
L 528.631444 458.248694 
L 569.623179 439.548737 
L 577.821526 371.928089 
L 586.019873 360.38174 
L 594.218221 355.624609 
L 610.614915 348.991726 
L 618.813262 346.059369 
L 635.209956 338.156901 
L 643.408303 331.600245 
L 668.003345 293.73328 
L 676.201692 280.3134 
L 692.598386 271.006051 
L 708.99508 290.782045 
L 733.590121 319.246256 
L 774.581857 331.336664 
L 790.978551 336.008965 
L 799.176898 338.592491 
L 831.970287 350.086188 
L 840.168634 353.022613 
L 848.366981 355.875927 
L 856.565328 358.595847 
L 864.763675 361.140025 
" style="fill:none;stroke:#2ca02c;stroke-linecap:square;stroke-width:1.5;"/>
   </g>
   <g id="line2d_20">
    <defs>
     <path d="M -3 3 
L 3 -3 
M -3 -3 
L 3 3 
" id="mb7abb08f79" style="stroke:#d62728;"/>
    </defs>
    <g clip-path="url(#p3997d691f0)">
     <use style="fill:#d62728;stroke:#d62728;" x="69.524006" xlink:href="#mb7abb08f79" y="170.150277"/>
     <use style="fill:#d62728;stroke:#d62728;" x="77.722353" xlink:href="#mb7abb08f79" y="189.284922"/>
     <use style="fill:#d62728;stroke:#d62728;" x="85.9207" xlink:href="#mb7abb08f79" y="189.23584"/>
     <use style="fill:#d62728;stroke:#d62728;" x="94.119047" xlink:href="#mb7abb08f79" y="179.07669"/>
     <use style="fill:#d62728;stroke:#d62728;" x="102.317394" xlink:href="#mb7abb08f79" y="183.672241"/>
     <use style="fill:#d62728;stroke:#d62728;" x="110.515741" xlink:href="#mb7abb08f79" y="189.213575"/>
     <use style="fill:#d62728;stroke:#d62728;" x="118.714088" xlink:href="#mb7abb08f79" y="188.661996"/>
     <use style="fill:#d62728;stroke:#d62728;" x="126.912435" xlink:href="#mb7abb08f79" y="188.348982"/>
     <use style="fill:#d62728;stroke:#d62728;" x="135.110783" xlink:href="#mb7abb08f79" y="211.023005"/>
     <use style="fill:#d62728;stroke:#d62728;" x="143.30913" xlink:href="#mb7abb08f79" y="219.363274"/>
     <use style="fill:#d62728;stroke:#d62728;" x="151.507477" xlink:href="#mb7abb08f79" y="186.534841"/>
     <use style="fill:#d62728;stroke:#d62728;" x="159.705824" xlink:href="#mb7abb08f79" y="185.511726"/>
     <use style="fill:#d62728;stroke:#d62728;" x="167.904171" xlink:href="#mb7abb08f79" y="243.012582"/>
     <use style="fill:#d62728;stroke:#d62728;" x="176.102518" xlink:href="#mb7abb08f79" y="183.168538"/>
     <use style="fill:#d62728;stroke:#d62728;" x="184.300865" xlink:href="#mb7abb08f79" y="183.044518"/>
     <use style="fill:#d62728;stroke:#d62728;" x="192.499212" xlink:href="#mb7abb08f79" y="259.335313"/>
     <use style="fill:#d62728;stroke:#d62728;" x="200.697559" xlink:href="#mb7abb08f79" y="262.805865"/>
     <use style="fill:#d62728;stroke:#d62728;" x="208.895907" xlink:href="#mb7abb08f79" y="265.422383"/>
     <use style="fill:#d62728;stroke:#d62728;" x="217.094254" xlink:href="#mb7abb08f79" y="267.317824"/>
     <use style="fill:#d62728;stroke:#d62728;" x="225.292601" xlink:href="#mb7abb08f79" y="268.631599"/>
     <use style="fill:#d62728;stroke:#d62728;" x="233.490948" xlink:href="#mb7abb08f79" y="269.495845"/>
     <use style="fill:#d62728;stroke:#d62728;" x="241.689295" xlink:href="#mb7abb08f79" y="270.027477"/>
     <use style="fill:#d62728;stroke:#d62728;" x="249.887642" xlink:href="#mb7abb08f79" y="270.324842"/>
     <use style="fill:#d62728;stroke:#d62728;" x="258.085989" xlink:href="#mb7abb08f79" y="270.467544"/>
     <use style="fill:#d62728;stroke:#d62728;" x="266.284336" xlink:href="#mb7abb08f79" y="270.518196"/>
     <use style="fill:#d62728;stroke:#d62728;" x="274.482683" xlink:href="#mb7abb08f79" y="456.754139"/>
     <use style="fill:#d62728;stroke:#d62728;" x="282.68103" xlink:href="#mb7abb08f79" y="454.112503"/>
     <use style="fill:#d62728;stroke:#d62728;" x="290.879378" xlink:href="#mb7abb08f79" y="270.548912"/>
     <use style="fill:#d62728;stroke:#d62728;" x="299.077725" xlink:href="#mb7abb08f79" y="270.619589"/>
     <use style="fill:#d62728;stroke:#d62728;" x="307.276072" xlink:href="#mb7abb08f79" y="270.76092"/>
     <use style="fill:#d62728;stroke:#d62728;" x="315.474419" xlink:href="#mb7abb08f79" y="452.006986"/>
     <use style="fill:#d62728;stroke:#d62728;" x="323.672766" xlink:href="#mb7abb08f79" y="451.967026"/>
     <use style="fill:#d62728;stroke:#d62728;" x="331.871113" xlink:href="#mb7abb08f79" y="451.946215"/>
     <use style="fill:#d62728;stroke:#d62728;" x="340.06946" xlink:href="#mb7abb08f79" y="272.703666"/>
     <use style="fill:#d62728;stroke:#d62728;" x="348.267807" xlink:href="#mb7abb08f79" y="273.859852"/>
     <use style="fill:#d62728;stroke:#d62728;" x="356.466154" xlink:href="#mb7abb08f79" y="275.563178"/>
     <use style="fill:#d62728;stroke:#d62728;" x="364.664502" xlink:href="#mb7abb08f79" y="278.119188"/>
     <use style="fill:#d62728;stroke:#d62728;" x="372.862849" xlink:href="#mb7abb08f79" y="282.046519"/>
     <use style="fill:#d62728;stroke:#d62728;" x="381.061196" xlink:href="#mb7abb08f79" y="451.929346"/>
     <use style="fill:#d62728;stroke:#d62728;" x="389.259543" xlink:href="#mb7abb08f79" y="298.328735"/>
     <use style="fill:#d62728;stroke:#d62728;" x="397.45789" xlink:href="#mb7abb08f79" y="451.938338"/>
     <use style="fill:#d62728;stroke:#d62728;" x="405.656237" xlink:href="#mb7abb08f79" y="451.943859"/>
     <use style="fill:#d62728;stroke:#d62728;" x="413.854584" xlink:href="#mb7abb08f79" y="451.949627"/>
     <use style="fill:#d62728;stroke:#d62728;" x="422.052931" xlink:href="#mb7abb08f79" y="436.393774"/>
     <use style="fill:#d62728;stroke:#d62728;" x="430.251278" xlink:href="#mb7abb08f79" y="451.962778"/>
     <use style="fill:#d62728;stroke:#d62728;" x="438.449626" xlink:href="#mb7abb08f79" y="452.400513"/>
     <use style="fill:#d62728;stroke:#d62728;" x="446.647973" xlink:href="#mb7abb08f79" y="452.01153"/>
     <use style="fill:#d62728;stroke:#d62728;" x="454.84632" xlink:href="#mb7abb08f79" y="431.121507"/>
     <use style="fill:#d62728;stroke:#d62728;" x="463.044667" xlink:href="#mb7abb08f79" y="380.945718"/>
     <use style="fill:#d62728;stroke:#d62728;" x="471.243014" xlink:href="#mb7abb08f79" y="334.899074"/>
     <use style="fill:#d62728;stroke:#d62728;" x="479.441361" xlink:href="#mb7abb08f79" y="454.537079"/>
     <use style="fill:#d62728;stroke:#d62728;" x="487.639708" xlink:href="#mb7abb08f79" y="132.322957"/>
     <use style="fill:#d62728;stroke:#d62728;" x="495.838055" xlink:href="#mb7abb08f79" y="82.147169"/>
     <use style="fill:#d62728;stroke:#d62728;" x="504.036402" xlink:href="#mb7abb08f79" y="66.110722"/>
     <use style="fill:#d62728;stroke:#d62728;" x="512.234749" xlink:href="#mb7abb08f79" y="60.868163"/>
     <use style="fill:#d62728;stroke:#d62728;" x="520.433097" xlink:href="#mb7abb08f79" y="59.142498"/>
     <use style="fill:#d62728;stroke:#d62728;" x="528.631444" xlink:href="#mb7abb08f79" y="452.44526"/>
     <use style="fill:#d62728;stroke:#d62728;" x="536.829791" xlink:href="#mb7abb08f79" y="124.465813"/>
     <use style="fill:#d62728;stroke:#d62728;" x="545.028138" xlink:href="#mb7abb08f79" y="169.506375"/>
     <use style="fill:#d62728;stroke:#d62728;" x="553.226485" xlink:href="#mb7abb08f79" y="198.081718"/>
     <use style="fill:#d62728;stroke:#d62728;" x="561.424832" xlink:href="#mb7abb08f79" y="214.93994"/>
     <use style="fill:#d62728;stroke:#d62728;" x="569.623179" xlink:href="#mb7abb08f79" y="406.8039"/>
     <use style="fill:#d62728;stroke:#d62728;" x="577.821526" xlink:href="#mb7abb08f79" y="386.483376"/>
     <use style="fill:#d62728;stroke:#d62728;" x="586.019873" xlink:href="#mb7abb08f79" y="357.170329"/>
     <use style="fill:#d62728;stroke:#d62728;" x="594.218221" xlink:href="#mb7abb08f79" y="315.49554"/>
     <use style="fill:#d62728;stroke:#d62728;" x="602.416568" xlink:href="#mb7abb08f79" y="239.408823"/>
     <use style="fill:#d62728;stroke:#d62728;" x="610.614915" xlink:href="#mb7abb08f79" y="259.971213"/>
     <use style="fill:#d62728;stroke:#d62728;" x="618.813262" xlink:href="#mb7abb08f79" y="247.966444"/>
     <use style="fill:#d62728;stroke:#d62728;" x="627.011609" xlink:href="#mb7abb08f79" y="241.902665"/>
     <use style="fill:#d62728;stroke:#d62728;" x="635.209956" xlink:href="#mb7abb08f79" y="238.898414"/>
     <use style="fill:#d62728;stroke:#d62728;" x="643.408303" xlink:href="#mb7abb08f79" y="238.779725"/>
     <use style="fill:#d62728;stroke:#d62728;" x="651.60665" xlink:href="#mb7abb08f79" y="242.649086"/>
     <use style="fill:#d62728;stroke:#d62728;" x="659.804997" xlink:href="#mb7abb08f79" y="242.719764"/>
     <use style="fill:#d62728;stroke:#d62728;" x="668.003345" xlink:href="#mb7abb08f79" y="248.663665"/>
     <use style="fill:#d62728;stroke:#d62728;" x="676.201692" xlink:href="#mb7abb08f79" y="253.671952"/>
     <use style="fill:#d62728;stroke:#d62728;" x="684.400039" xlink:href="#mb7abb08f79" y="242.750479"/>
     <use style="fill:#d62728;stroke:#d62728;" x="692.598386" xlink:href="#mb7abb08f79" y="262.827396"/>
     <use style="fill:#d62728;stroke:#d62728;" x="700.796733" xlink:href="#mb7abb08f79" y="242.943833"/>
     <use style="fill:#d62728;stroke:#d62728;" x="708.99508" xlink:href="#mb7abb08f79" y="268.844254"/>
     <use style="fill:#d62728;stroke:#d62728;" x="717.193427" xlink:href="#mb7abb08f79" y="243.772831"/>
     <use style="fill:#d62728;stroke:#d62728;" x="725.391774" xlink:href="#mb7abb08f79" y="244.637077"/>
     <use style="fill:#d62728;stroke:#d62728;" x="733.590121" xlink:href="#mb7abb08f79" y="273.032378"/>
     <use style="fill:#d62728;stroke:#d62728;" x="741.788468" xlink:href="#mb7abb08f79" y="247.846292"/>
     <use style="fill:#d62728;stroke:#d62728;" x="749.986816" xlink:href="#mb7abb08f79" y="250.462811"/>
     <use style="fill:#d62728;stroke:#d62728;" x="758.185163" xlink:href="#mb7abb08f79" y="253.933363"/>
     <use style="fill:#d62728;stroke:#d62728;" x="766.38351" xlink:href="#mb7abb08f79" y="258.364596"/>
     <use style="fill:#d62728;stroke:#d62728;" x="774.581857" xlink:href="#mb7abb08f79" y="277.261056"/>
     <use style="fill:#d62728;stroke:#d62728;" x="782.780204" xlink:href="#mb7abb08f79" y="270.256093"/>
     <use style="fill:#d62728;stroke:#d62728;" x="790.978551" xlink:href="#mb7abb08f79" y="279.884679"/>
     <use style="fill:#d62728;stroke:#d62728;" x="799.176898" xlink:href="#mb7abb08f79" y="281.582886"/>
     <use style="fill:#d62728;stroke:#d62728;" x="807.375245" xlink:href="#mb7abb08f79" y="293.905402"/>
     <use style="fill:#d62728;stroke:#d62728;" x="815.573592" xlink:href="#mb7abb08f79" y="302.24567"/>
     <use style="fill:#d62728;stroke:#d62728;" x="823.77194" xlink:href="#mb7abb08f79" y="310.232192"/>
     <use style="fill:#d62728;stroke:#d62728;" x="831.970287" xlink:href="#mb7abb08f79" y="292.090429"/>
     <use style="fill:#d62728;stroke:#d62728;" x="840.168634" xlink:href="#mb7abb08f79" y="295.852441"/>
     <use style="fill:#d62728;stroke:#d62728;" x="848.366981" xlink:href="#mb7abb08f79" y="300.08578"/>
     <use style="fill:#d62728;stroke:#d62728;" x="856.565328" xlink:href="#mb7abb08f79" y="304.736228"/>
     <use style="fill:#d62728;stroke:#d62728;" x="864.763675" xlink:href="#mb7abb08f79" y="309.702331"/>
     <use style="fill:#d62728;stroke:#d62728;" x="872.962022" xlink:href="#mb7abb08f79" y="340.843865"/>
     <use style="fill:#d62728;stroke:#d62728;" x="881.160369" xlink:href="#mb7abb08f79" y="343.118399"/>
    </g>
   </g>
   <g id="patch_3">
    <path d="M 28.942188 496.44 
L 28.942188 7.2 
" style="fill:none;stroke:#000000;stroke-linecap:square;stroke-linejoin:miter;stroke-width:0.8;"/>
   </g>
   <g id="patch_4">
    <path d="M 921.742188 496.44 
L 921.742188 7.2 
" style="fill:none;stroke:#000000;stroke-linecap:square;stroke-linejoin:miter;stroke-width:0.8;"/>
   </g>
   <g id="patch_5">
    <path d="M 28.942188 496.44 
L 921.742188 496.44 
" style="fill:none;stroke:#000000;stroke-linecap:square;stroke-linejoin:miter;stroke-width:0.8;"/>
   </g>
   <g id="patch_6">
    <path d="M 28.942188 7.2 
L 921.742188 7.2 
" style="fill:none;stroke:#000000;stroke-linecap:square;stroke-linejoin:miter;stroke-width:0.8;"/>
   </g>
   <g id="legend_1">
    <g id="patch_7">
     <path d="M 35.942188 103.26875 
L 180.710938 103.26875 
Q 182.710938 103.26875 182.710938 101.26875 
L 182.710938 14.2 
Q 182.710938 12.2 180.710938 12.2 
L 35.942188 12.2 
Q 33.942188 12.2 33.942188 14.2 
L 33.942188 101.26875 
Q 33.942188 103.26875 35.942188 103.26875 
z
" style="fill:#ffffff;opacity:0.8;stroke:#cccccc;stroke-linejoin:miter;"/>
    </g>
    <g id="line2d_21">
     <path d="M 37.942188 20.298438 
L 57.942188 20.298438 
" style="fill:none;stroke:#1f77b4;stroke-linecap:square;stroke-width:1.5;"/>
    </g>
    <g id="line2d_22"/>
    <g id="text_17">
     <!-- ts network prediction -->
     <defs>
      <path d="M 18.3125 70.21875 
L 18.3125 54.6875 
L 36.8125 54.6875 
L 36.8125 47.703125 
L 18.3125 47.703125 
L 18.3125 18.015625 
Q 18.3125 11.328125 20.140625 9.421875 
Q 21.96875 7.515625 27.59375 7.515625 
L 36.8125 7.515625 
L 36.8125 0 
L 27.59375 0 
Q 17.1875 0 13.234375 3.875 
Q 9.28125 7.765625 9.28125 18.015625 
L 9.28125 47.703125 
L 2.6875 47.703125 
L 2.6875 54.6875 
L 9.28125 54.6875 
L 9.28125 70.21875 
z
" id="DejaVuSans-116"/>
      <path d="M 44.28125 53.078125 
L 44.28125 44.578125 
Q 40.484375 46.53125 36.375 47.5 
Q 32.28125 48.484375 27.875 48.484375 
Q 21.1875 48.484375 17.84375 46.4375 
Q 14.5 44.390625 14.5 40.28125 
Q 14.5 37.15625 16.890625 35.375 
Q 19.28125 33.59375 26.515625 31.984375 
L 29.59375 31.296875 
Q 39.15625 29.25 43.1875 25.515625 
Q 47.21875 21.78125 47.21875 15.09375 
Q 47.21875 7.46875 41.1875 3.015625 
Q 35.15625 -1.421875 24.609375 -1.421875 
Q 20.21875 -1.421875 15.453125 -0.5625 
Q 10.6875 0.296875 5.421875 2 
L 5.421875 11.28125 
Q 10.40625 8.6875 15.234375 7.390625 
Q 20.0625 6.109375 24.8125 6.109375 
Q 31.15625 6.109375 34.5625 8.28125 
Q 37.984375 10.453125 37.984375 14.40625 
Q 37.984375 18.0625 35.515625 20.015625 
Q 33.0625 21.96875 24.703125 23.78125 
L 21.578125 24.515625 
Q 13.234375 26.265625 9.515625 29.90625 
Q 5.8125 33.546875 5.8125 39.890625 
Q 5.8125 47.609375 11.28125 51.796875 
Q 16.75 56 26.8125 56 
Q 31.78125 56 36.171875 55.265625 
Q 40.578125 54.546875 44.28125 53.078125 
z
" id="DejaVuSans-115"/>
      <path id="DejaVuSans-32"/>
      <path d="M 54.890625 33.015625 
L 54.890625 0 
L 45.90625 0 
L 45.90625 32.71875 
Q 45.90625 40.484375 42.875 44.328125 
Q 39.84375 48.1875 33.796875 48.1875 
Q 26.515625 48.1875 22.3125 43.546875 
Q 18.109375 38.921875 18.109375 30.90625 
L 18.109375 0 
L 9.078125 0 
L 9.078125 54.6875 
L 18.109375 54.6875 
L 18.109375 46.1875 
Q 21.34375 51.125 25.703125 53.5625 
Q 30.078125 56 35.796875 56 
Q 45.21875 56 50.046875 50.171875 
Q 54.890625 44.34375 54.890625 33.015625 
z
" id="DejaVuSans-110"/>
      <path d="M 56.203125 29.59375 
L 56.203125 25.203125 
L 14.890625 25.203125 
Q 15.484375 15.921875 20.484375 11.0625 
Q 25.484375 6.203125 34.421875 6.203125 
Q 39.59375 6.203125 44.453125 7.46875 
Q 49.3125 8.734375 54.109375 11.28125 
L 54.109375 2.78125 
Q 49.265625 0.734375 44.1875 -0.34375 
Q 39.109375 -1.421875 33.890625 -1.421875 
Q 20.796875 -1.421875 13.15625 6.1875 
Q 5.515625 13.8125 5.515625 26.8125 
Q 5.515625 40.234375 12.765625 48.109375 
Q 20.015625 56 32.328125 56 
Q 43.359375 56 49.78125 48.890625 
Q 56.203125 41.796875 56.203125 29.59375 
z
M 47.21875 32.234375 
Q 47.125 39.59375 43.09375 43.984375 
Q 39.0625 48.390625 32.421875 48.390625 
Q 24.90625 48.390625 20.390625 44.140625 
Q 15.875 39.890625 15.1875 32.171875 
z
" id="DejaVuSans-101"/>
      <path d="M 4.203125 54.6875 
L 13.1875 54.6875 
L 24.421875 12.015625 
L 35.59375 54.6875 
L 46.1875 54.6875 
L 57.421875 12.015625 
L 68.609375 54.6875 
L 77.59375 54.6875 
L 63.28125 0 
L 52.6875 0 
L 40.921875 44.828125 
L 29.109375 0 
L 18.5 0 
z
" id="DejaVuSans-119"/>
      <path d="M 30.609375 48.390625 
Q 23.390625 48.390625 19.1875 42.75 
Q 14.984375 37.109375 14.984375 27.296875 
Q 14.984375 17.484375 19.15625 11.84375 
Q 23.34375 6.203125 30.609375 6.203125 
Q 37.796875 6.203125 41.984375 11.859375 
Q 46.1875 17.53125 46.1875 27.296875 
Q 46.1875 37.015625 41.984375 42.703125 
Q 37.796875 48.390625 30.609375 48.390625 
z
M 30.609375 56 
Q 42.328125 56 49.015625 48.375 
Q 55.71875 40.765625 55.71875 27.296875 
Q 55.71875 13.875 49.015625 6.21875 
Q 42.328125 -1.421875 30.609375 -1.421875 
Q 18.84375 -1.421875 12.171875 6.21875 
Q 5.515625 13.875 5.515625 27.296875 
Q 5.515625 40.765625 12.171875 48.375 
Q 18.84375 56 30.609375 56 
z
" id="DejaVuSans-111"/>
      <path d="M 41.109375 46.296875 
Q 39.59375 47.171875 37.8125 47.578125 
Q 36.03125 48 33.890625 48 
Q 26.265625 48 22.1875 43.046875 
Q 18.109375 38.09375 18.109375 28.8125 
L 18.109375 0 
L 9.078125 0 
L 9.078125 54.6875 
L 18.109375 54.6875 
L 18.109375 46.1875 
Q 20.953125 51.171875 25.484375 53.578125 
Q 30.03125 56 36.53125 56 
Q 37.453125 56 38.578125 55.875 
Q 39.703125 55.765625 41.0625 55.515625 
z
" id="DejaVuSans-114"/>
      <path d="M 9.078125 75.984375 
L 18.109375 75.984375 
L 18.109375 31.109375 
L 44.921875 54.6875 
L 56.390625 54.6875 
L 27.390625 29.109375 
L 57.625 0 
L 45.90625 0 
L 18.109375 26.703125 
L 18.109375 0 
L 9.078125 0 
z
" id="DejaVuSans-107"/>
      <path d="M 18.109375 8.203125 
L 18.109375 -20.796875 
L 9.078125 -20.796875 
L 9.078125 54.6875 
L 18.109375 54.6875 
L 18.109375 46.390625 
Q 20.953125 51.265625 25.265625 53.625 
Q 29.59375 56 35.59375 56 
Q 45.5625 56 51.78125 48.09375 
Q 58.015625 40.1875 58.015625 27.296875 
Q 58.015625 14.40625 51.78125 6.484375 
Q 45.5625 -1.421875 35.59375 -1.421875 
Q 29.59375 -1.421875 25.265625 0.953125 
Q 20.953125 3.328125 18.109375 8.203125 
z
M 48.6875 27.296875 
Q 48.6875 37.203125 44.609375 42.84375 
Q 40.53125 48.484375 33.40625 48.484375 
Q 26.265625 48.484375 22.1875 42.84375 
Q 18.109375 37.203125 18.109375 27.296875 
Q 18.109375 17.390625 22.1875 11.75 
Q 26.265625 6.109375 33.40625 6.109375 
Q 40.53125 6.109375 44.609375 11.75 
Q 48.6875 17.390625 48.6875 27.296875 
z
" id="DejaVuSans-112"/>
      <path d="M 45.40625 46.390625 
L 45.40625 75.984375 
L 54.390625 75.984375 
L 54.390625 0 
L 45.40625 0 
L 45.40625 8.203125 
Q 42.578125 3.328125 38.25 0.953125 
Q 33.9375 -1.421875 27.875 -1.421875 
Q 17.96875 -1.421875 11.734375 6.484375 
Q 5.515625 14.40625 5.515625 27.296875 
Q 5.515625 40.1875 11.734375 48.09375 
Q 17.96875 56 27.875 56 
Q 33.9375 56 38.25 53.625 
Q 42.578125 51.265625 45.40625 46.390625 
z
M 14.796875 27.296875 
Q 14.796875 17.390625 18.875 11.75 
Q 22.953125 6.109375 30.078125 6.109375 
Q 37.203125 6.109375 41.296875 11.75 
Q 45.40625 17.390625 45.40625 27.296875 
Q 45.40625 37.203125 41.296875 42.84375 
Q 37.203125 48.484375 30.078125 48.484375 
Q 22.953125 48.484375 18.875 42.84375 
Q 14.796875 37.203125 14.796875 27.296875 
z
" id="DejaVuSans-100"/>
      <path d="M 9.421875 54.6875 
L 18.40625 54.6875 
L 18.40625 0 
L 9.421875 0 
z
M 9.421875 75.984375 
L 18.40625 75.984375 
L 18.40625 64.59375 
L 9.421875 64.59375 
z
" id="DejaVuSans-105"/>
      <path d="M 48.78125 52.59375 
L 48.78125 44.1875 
Q 44.96875 46.296875 41.140625 47.34375 
Q 37.3125 48.390625 33.40625 48.390625 
Q 24.65625 48.390625 19.8125 42.84375 
Q 14.984375 37.3125 14.984375 27.296875 
Q 14.984375 17.28125 19.8125 11.734375 
Q 24.65625 6.203125 33.40625 6.203125 
Q 37.3125 6.203125 41.140625 7.25 
Q 44.96875 8.296875 48.78125 10.40625 
L 48.78125 2.09375 
Q 45.015625 0.34375 40.984375 -0.53125 
Q 36.96875 -1.421875 32.421875 -1.421875 
Q 20.0625 -1.421875 12.78125 6.34375 
Q 5.515625 14.109375 5.515625 27.296875 
Q 5.515625 40.671875 12.859375 48.328125 
Q 20.21875 56 33.015625 56 
Q 37.15625 56 41.109375 55.140625 
Q 45.0625 54.296875 48.78125 52.59375 
z
" id="DejaVuSans-99"/>
     </defs>
     <g transform="translate(65.942188 23.798438)scale(0.1 -0.1)">
      <use xlink:href="#DejaVuSans-116"/>
      <use x="39.208984" xlink:href="#DejaVuSans-115"/>
      <use x="91.308594" xlink:href="#DejaVuSans-32"/>
      <use x="123.095703" xlink:href="#DejaVuSans-110"/>
      <use x="186.474609" xlink:href="#DejaVuSans-101"/>
      <use x="247.998047" xlink:href="#DejaVuSans-116"/>
      <use x="287.207031" xlink:href="#DejaVuSans-119"/>
      <use x="368.994141" xlink:href="#DejaVuSans-111"/>
      <use x="430.175781" xlink:href="#DejaVuSans-114"/>
      <use x="471.289062" xlink:href="#DejaVuSans-107"/>
      <use x="529.199219" xlink:href="#DejaVuSans-32"/>
      <use x="560.986328" xlink:href="#DejaVuSans-112"/>
      <use x="624.462891" xlink:href="#DejaVuSans-114"/>
      <use x="665.544922" xlink:href="#DejaVuSans-101"/>
      <use x="727.068359" xlink:href="#DejaVuSans-100"/>
      <use x="790.544922" xlink:href="#DejaVuSans-105"/>
      <use x="818.328125" xlink:href="#DejaVuSans-99"/>
      <use x="873.308594" xlink:href="#DejaVuSans-116"/>
      <use x="912.517578" xlink:href="#DejaVuSans-105"/>
      <use x="940.300781" xlink:href="#DejaVuSans-111"/>
      <use x="1001.482422" xlink:href="#DejaVuSans-110"/>
     </g>
    </g>
    <g id="line2d_23">
     <path d="M 37.942188 34.976563 
L 57.942188 34.976563 
" style="fill:none;stroke:#ff7f0e;stroke-linecap:square;stroke-width:1.5;"/>
    </g>
    <g id="line2d_24"/>
    <g id="text_18">
     <!-- target1 -->
     <defs>
      <path d="M 34.28125 27.484375 
Q 23.390625 27.484375 19.1875 25 
Q 14.984375 22.515625 14.984375 16.5 
Q 14.984375 11.71875 18.140625 8.90625 
Q 21.296875 6.109375 26.703125 6.109375 
Q 34.1875 6.109375 38.703125 11.40625 
Q 43.21875 16.703125 43.21875 25.484375 
L 43.21875 27.484375 
z
M 52.203125 31.203125 
L 52.203125 0 
L 43.21875 0 
L 43.21875 8.296875 
Q 40.140625 3.328125 35.546875 0.953125 
Q 30.953125 -1.421875 24.3125 -1.421875 
Q 15.921875 -1.421875 10.953125 3.296875 
Q 6 8.015625 6 15.921875 
Q 6 25.140625 12.171875 29.828125 
Q 18.359375 34.515625 30.609375 34.515625 
L 43.21875 34.515625 
L 43.21875 35.40625 
Q 43.21875 41.609375 39.140625 45 
Q 35.0625 48.390625 27.6875 48.390625 
Q 23 48.390625 18.546875 47.265625 
Q 14.109375 46.140625 10.015625 43.890625 
L 10.015625 52.203125 
Q 14.9375 54.109375 19.578125 55.046875 
Q 24.21875 56 28.609375 56 
Q 40.484375 56 46.34375 49.84375 
Q 52.203125 43.703125 52.203125 31.203125 
z
" id="DejaVuSans-97"/>
      <path d="M 45.40625 27.984375 
Q 45.40625 37.75 41.375 43.109375 
Q 37.359375 48.484375 30.078125 48.484375 
Q 22.859375 48.484375 18.828125 43.109375 
Q 14.796875 37.75 14.796875 27.984375 
Q 14.796875 18.265625 18.828125 12.890625 
Q 22.859375 7.515625 30.078125 7.515625 
Q 37.359375 7.515625 41.375 12.890625 
Q 45.40625 18.265625 45.40625 27.984375 
z
M 54.390625 6.78125 
Q 54.390625 -7.171875 48.1875 -13.984375 
Q 42 -20.796875 29.203125 -20.796875 
Q 24.46875 -20.796875 20.265625 -20.09375 
Q 16.0625 -19.390625 12.109375 -17.921875 
L 12.109375 -9.1875 
Q 16.0625 -11.328125 19.921875 -12.34375 
Q 23.78125 -13.375 27.78125 -13.375 
Q 36.625 -13.375 41.015625 -8.765625 
Q 45.40625 -4.15625 45.40625 5.171875 
L 45.40625 9.625 
Q 42.625 4.78125 38.28125 2.390625 
Q 33.9375 0 27.875 0 
Q 17.828125 0 11.671875 7.65625 
Q 5.515625 15.328125 5.515625 27.984375 
Q 5.515625 40.671875 11.671875 48.328125 
Q 17.828125 56 27.875 56 
Q 33.9375 56 38.28125 53.609375 
Q 42.625 51.21875 45.40625 46.390625 
L 45.40625 54.6875 
L 54.390625 54.6875 
z
" id="DejaVuSans-103"/>
     </defs>
     <g transform="translate(65.942188 38.476563)scale(0.1 -0.1)">
      <use xlink:href="#DejaVuSans-116"/>
      <use x="39.208984" xlink:href="#DejaVuSans-97"/>
      <use x="100.488281" xlink:href="#DejaVuSans-114"/>
      <use x="141.585938" xlink:href="#DejaVuSans-103"/>
      <use x="205.0625" xlink:href="#DejaVuSans-101"/>
      <use x="266.585938" xlink:href="#DejaVuSans-116"/>
      <use x="305.794922" xlink:href="#DejaVuSans-49"/>
     </g>
    </g>
    <g id="line2d_25">
     <path d="M 37.942188 49.654688 
L 57.942188 49.654688 
" style="fill:none;stroke:#2ca02c;stroke-linecap:square;stroke-width:1.5;"/>
    </g>
    <g id="line2d_26"/>
    <g id="text_19">
     <!-- target2 -->
     <g transform="translate(65.942188 53.154688)scale(0.1 -0.1)">
      <use xlink:href="#DejaVuSans-116"/>
      <use x="39.208984" xlink:href="#DejaVuSans-97"/>
      <use x="100.488281" xlink:href="#DejaVuSans-114"/>
      <use x="141.585938" xlink:href="#DejaVuSans-103"/>
      <use x="205.0625" xlink:href="#DejaVuSans-101"/>
      <use x="266.585938" xlink:href="#DejaVuSans-116"/>
      <use x="305.794922" xlink:href="#DejaVuSans-50"/>
     </g>
    </g>
    <g id="line2d_27"/>
    <g id="line2d_28">
     <g>
      <use style="fill:#d62728;stroke:#d62728;" x="47.942188" xlink:href="#mb7abb08f79" y="64.332813"/>
     </g>
    </g>
    <g id="text_20">
     <!-- full network prediction -->
     <defs>
      <path d="M 37.109375 75.984375 
L 37.109375 68.5 
L 28.515625 68.5 
Q 23.6875 68.5 21.796875 66.546875 
Q 19.921875 64.59375 19.921875 59.515625 
L 19.921875 54.6875 
L 34.71875 54.6875 
L 34.71875 47.703125 
L 19.921875 47.703125 
L 19.921875 0 
L 10.890625 0 
L 10.890625 47.703125 
L 2.296875 47.703125 
L 2.296875 54.6875 
L 10.890625 54.6875 
L 10.890625 58.5 
Q 10.890625 67.625 15.140625 71.796875 
Q 19.390625 75.984375 28.609375 75.984375 
z
" id="DejaVuSans-102"/>
      <path d="M 8.5 21.578125 
L 8.5 54.6875 
L 17.484375 54.6875 
L 17.484375 21.921875 
Q 17.484375 14.15625 20.5 10.265625 
Q 23.53125 6.390625 29.59375 6.390625 
Q 36.859375 6.390625 41.078125 11.03125 
Q 45.3125 15.671875 45.3125 23.6875 
L 45.3125 54.6875 
L 54.296875 54.6875 
L 54.296875 0 
L 45.3125 0 
L 45.3125 8.40625 
Q 42.046875 3.421875 37.71875 1 
Q 33.40625 -1.421875 27.6875 -1.421875 
Q 18.265625 -1.421875 13.375 4.4375 
Q 8.5 10.296875 8.5 21.578125 
z
M 31.109375 56 
z
" id="DejaVuSans-117"/>
      <path d="M 9.421875 75.984375 
L 18.40625 75.984375 
L 18.40625 0 
L 9.421875 0 
z
" id="DejaVuSans-108"/>
     </defs>
     <g transform="translate(65.942188 67.832813)scale(0.1 -0.1)">
      <use xlink:href="#DejaVuSans-102"/>
      <use x="35.205078" xlink:href="#DejaVuSans-117"/>
      <use x="98.583984" xlink:href="#DejaVuSans-108"/>
      <use x="126.367188" xlink:href="#DejaVuSans-108"/>
      <use x="154.150391" xlink:href="#DejaVuSans-32"/>
      <use x="185.9375" xlink:href="#DejaVuSans-110"/>
      <use x="249.316406" xlink:href="#DejaVuSans-101"/>
      <use x="310.839844" xlink:href="#DejaVuSans-116"/>
      <use x="350.048828" xlink:href="#DejaVuSans-119"/>
      <use x="431.835938" xlink:href="#DejaVuSans-111"/>
      <use x="493.017578" xlink:href="#DejaVuSans-114"/>
      <use x="534.130859" xlink:href="#DejaVuSans-107"/>
      <use x="592.041016" xlink:href="#DejaVuSans-32"/>
      <use x="623.828125" xlink:href="#DejaVuSans-112"/>
      <use x="687.304688" xlink:href="#DejaVuSans-114"/>
      <use x="728.386719" xlink:href="#DejaVuSans-101"/>
      <use x="789.910156" xlink:href="#DejaVuSans-100"/>
      <use x="853.386719" xlink:href="#DejaVuSans-105"/>
      <use x="881.169922" xlink:href="#DejaVuSans-99"/>
      <use x="936.150391" xlink:href="#DejaVuSans-116"/>
      <use x="975.359375" xlink:href="#DejaVuSans-105"/>
      <use x="1003.142578" xlink:href="#DejaVuSans-111"/>
      <use x="1064.324219" xlink:href="#DejaVuSans-110"/>
     </g>
    </g>
    <g id="patch_8">
     <path d="M 37.942188 82.510938 
L 57.942188 82.510938 
L 57.942188 75.510938 
L 37.942188 75.510938 
z
" style="fill:#0000ff;opacity:0.3;stroke:#0000ff;stroke-linejoin:miter;"/>
    </g>
    <g id="text_21">
     <!-- ts network prediction -->
     <g transform="translate(65.942188 82.510938)scale(0.1 -0.1)">
      <use xlink:href="#DejaVuSans-116"/>
      <use x="39.208984" xlink:href="#DejaVuSans-115"/>
      <use x="91.308594" xlink:href="#DejaVuSans-32"/>
      <use x="123.095703" xlink:href="#DejaVuSans-110"/>
      <use x="186.474609" xlink:href="#DejaVuSans-101"/>
      <use x="247.998047" xlink:href="#DejaVuSans-116"/>
      <use x="287.207031" xlink:href="#DejaVuSans-119"/>
      <use x="368.994141" xlink:href="#DejaVuSans-111"/>
      <use x="430.175781" xlink:href="#DejaVuSans-114"/>
      <use x="471.289062" xlink:href="#DejaVuSans-107"/>
      <use x="529.199219" xlink:href="#DejaVuSans-32"/>
      <use x="560.986328" xlink:href="#DejaVuSans-112"/>
      <use x="624.462891" xlink:href="#DejaVuSans-114"/>
      <use x="665.544922" xlink:href="#DejaVuSans-101"/>
      <use x="727.068359" xlink:href="#DejaVuSans-100"/>
      <use x="790.544922" xlink:href="#DejaVuSans-105"/>
      <use x="818.328125" xlink:href="#DejaVuSans-99"/>
      <use x="873.308594" xlink:href="#DejaVuSans-116"/>
      <use x="912.517578" xlink:href="#DejaVuSans-105"/>
      <use x="940.300781" xlink:href="#DejaVuSans-111"/>
      <use x="1001.482422" xlink:href="#DejaVuSans-110"/>
     </g>
    </g>
    <g id="patch_9">
     <path d="M 37.942188 97.189063 
L 57.942188 97.189063 
L 57.942188 90.189063 
L 37.942188 90.189063 
z
" style="fill:#0000ff;opacity:0.3;stroke:#0000ff;stroke-linejoin:miter;"/>
    </g>
    <g id="text_22">
     <!-- ts network prediction -->
     <g transform="translate(65.942188 97.189063)scale(0.1 -0.1)">
      <use xlink:href="#DejaVuSans-116"/>
      <use x="39.208984" xlink:href="#DejaVuSans-115"/>
      <use x="91.308594" xlink:href="#DejaVuSans-32"/>
      <use x="123.095703" xlink:href="#DejaVuSans-110"/>
      <use x="186.474609" xlink:href="#DejaVuSans-101"/>
      <use x="247.998047" xlink:href="#DejaVuSans-116"/>
      <use x="287.207031" xlink:href="#DejaVuSans-119"/>
      <use x="368.994141" xlink:href="#DejaVuSans-111"/>
      <use x="430.175781" xlink:href="#DejaVuSans-114"/>
      <use x="471.289062" xlink:href="#DejaVuSans-107"/>
      <use x="529.199219" xlink:href="#DejaVuSans-32"/>
      <use x="560.986328" xlink:href="#DejaVuSans-112"/>
      <use x="624.462891" xlink:href="#DejaVuSans-114"/>
      <use x="665.544922" xlink:href="#DejaVuSans-101"/>
      <use x="727.068359" xlink:href="#DejaVuSans-100"/>
      <use x="790.544922" xlink:href="#DejaVuSans-105"/>
      <use x="818.328125" xlink:href="#DejaVuSans-99"/>
      <use x="873.308594" xlink:href="#DejaVuSans-116"/>
      <use x="912.517578" xlink:href="#DejaVuSans-105"/>
      <use x="940.300781" xlink:href="#DejaVuSans-111"/>
      <use x="1001.482422" xlink:href="#DejaVuSans-110"/>
     </g>
    </g>
   </g>
  </g>
 </g>
 <defs>
  <clipPath id="p3997d691f0">
   <rect height="489.24" width="892.8" x="28.942188" y="7.2"/>
  </clipPath>
 </defs>
</svg>
