<?xml version="1.0" encoding="utf-8" standalone="no"?>
<!DOCTYPE svg PUBLIC "-//W3C//DTD SVG 1.1//EN"
  "http://www.w3.org/Graphics/SVG/1.1/DTD/svg11.dtd">
<!-- Created with matplotlib (https://matplotlib.org/) -->
<svg height="520.318125pt" version="1.1" viewBox="0 0 938.482812 520.318125" width="938.482812pt" xmlns="http://www.w3.org/2000/svg" xmlns:xlink="http://www.w3.org/1999/xlink">
 <defs>
  <style type="text/css">
*{stroke-linecap:butt;stroke-linejoin:round;}
  </style>
 </defs>
 <g id="figure_1">
  <g id="patch_1">
   <path d="M 0 520.318125 
L 938.482812 520.318125 
L 938.482812 0 
L 0 0 
z
" style="fill:none;"/>
  </g>
  <g id="axes_1">
   <g id="patch_2">
    <path d="M 38.482813 496.44 
L 931.282812 496.44 
L 931.282812 7.2 
L 38.482813 7.2 
z
" style="fill:#ffffff;"/>
   </g>
   <g id="matplotlib.axis_1">
    <g id="xtick_1">
     <g id="line2d_1">
      <defs>
       <path d="M 0 0 
L 0 3.5 
" id="mf0d154be50" style="stroke:#000000;stroke-width:0.8;"/>
      </defs>
      <g>
       <use style="stroke:#000000;stroke-width:0.8;" x="79.064631" xlink:href="#mf0d154be50" y="496.44"/>
      </g>
     </g>
     <g id="text_1">
      <!-- 0 -->
      <defs>
       <path d="M 31.78125 66.40625 
Q 24.171875 66.40625 20.328125 58.90625 
Q 16.5 51.421875 16.5 36.375 
Q 16.5 21.390625 20.328125 13.890625 
Q 24.171875 6.390625 31.78125 6.390625 
Q 39.453125 6.390625 43.28125 13.890625 
Q 47.125 21.390625 47.125 36.375 
Q 47.125 51.421875 43.28125 58.90625 
Q 39.453125 66.40625 31.78125 66.40625 
z
M 31.78125 74.21875 
Q 44.046875 74.21875 50.515625 64.515625 
Q 56.984375 54.828125 56.984375 36.375 
Q 56.984375 17.96875 50.515625 8.265625 
Q 44.046875 -1.421875 31.78125 -1.421875 
Q 19.53125 -1.421875 13.0625 8.265625 
Q 6.59375 17.96875 6.59375 36.375 
Q 6.59375 54.828125 13.0625 64.515625 
Q 19.53125 74.21875 31.78125 74.21875 
z
" id="DejaVuSans-48"/>
      </defs>
      <g transform="translate(75.883381 511.038437)scale(0.1 -0.1)">
       <use xlink:href="#DejaVuSans-48"/>
      </g>
     </g>
    </g>
    <g id="xtick_2">
     <g id="line2d_2">
      <g>
       <use style="stroke:#000000;stroke-width:0.8;" x="243.031573" xlink:href="#mf0d154be50" y="496.44"/>
      </g>
     </g>
     <g id="text_2">
      <!-- 20 -->
      <defs>
       <path d="M 19.1875 8.296875 
L 53.609375 8.296875 
L 53.609375 0 
L 7.328125 0 
L 7.328125 8.296875 
Q 12.9375 14.109375 22.625 23.890625 
Q 32.328125 33.6875 34.8125 36.53125 
Q 39.546875 41.84375 41.421875 45.53125 
Q 43.3125 49.21875 43.3125 52.78125 
Q 43.3125 58.59375 39.234375 62.25 
Q 35.15625 65.921875 28.609375 65.921875 
Q 23.96875 65.921875 18.8125 64.3125 
Q 13.671875 62.703125 7.8125 59.421875 
L 7.8125 69.390625 
Q 13.765625 71.78125 18.9375 73 
Q 24.125 74.21875 28.421875 74.21875 
Q 39.75 74.21875 46.484375 68.546875 
Q 53.21875 62.890625 53.21875 53.421875 
Q 53.21875 48.921875 51.53125 44.890625 
Q 49.859375 40.875 45.40625 35.40625 
Q 44.1875 33.984375 37.640625 27.21875 
Q 31.109375 20.453125 19.1875 8.296875 
z
" id="DejaVuSans-50"/>
      </defs>
      <g transform="translate(236.669073 511.038437)scale(0.1 -0.1)">
       <use xlink:href="#DejaVuSans-50"/>
       <use x="63.623047" xlink:href="#DejaVuSans-48"/>
      </g>
     </g>
    </g>
    <g id="xtick_3">
     <g id="line2d_3">
      <g>
       <use style="stroke:#000000;stroke-width:0.8;" x="406.998515" xlink:href="#mf0d154be50" y="496.44"/>
      </g>
     </g>
     <g id="text_3">
      <!-- 40 -->
      <defs>
       <path d="M 37.796875 64.3125 
L 12.890625 25.390625 
L 37.796875 25.390625 
z
M 35.203125 72.90625 
L 47.609375 72.90625 
L 47.609375 25.390625 
L 58.015625 25.390625 
L 58.015625 17.1875 
L 47.609375 17.1875 
L 47.609375 0 
L 37.796875 0 
L 37.796875 17.1875 
L 4.890625 17.1875 
L 4.890625 26.703125 
z
" id="DejaVuSans-52"/>
      </defs>
      <g transform="translate(400.636015 511.038437)scale(0.1 -0.1)">
       <use xlink:href="#DejaVuSans-52"/>
       <use x="63.623047" xlink:href="#DejaVuSans-48"/>
      </g>
     </g>
    </g>
    <g id="xtick_4">
     <g id="line2d_4">
      <g>
       <use style="stroke:#000000;stroke-width:0.8;" x="570.965457" xlink:href="#mf0d154be50" y="496.44"/>
      </g>
     </g>
     <g id="text_4">
      <!-- 60 -->
      <defs>
       <path d="M 33.015625 40.375 
Q 26.375 40.375 22.484375 35.828125 
Q 18.609375 31.296875 18.609375 23.390625 
Q 18.609375 15.53125 22.484375 10.953125 
Q 26.375 6.390625 33.015625 6.390625 
Q 39.65625 6.390625 43.53125 10.953125 
Q 47.40625 15.53125 47.40625 23.390625 
Q 47.40625 31.296875 43.53125 35.828125 
Q 39.65625 40.375 33.015625 40.375 
z
M 52.59375 71.296875 
L 52.59375 62.3125 
Q 48.875 64.0625 45.09375 64.984375 
Q 41.3125 65.921875 37.59375 65.921875 
Q 27.828125 65.921875 22.671875 59.328125 
Q 17.53125 52.734375 16.796875 39.40625 
Q 19.671875 43.65625 24.015625 45.921875 
Q 28.375 48.1875 33.59375 48.1875 
Q 44.578125 48.1875 50.953125 41.515625 
Q 57.328125 34.859375 57.328125 23.390625 
Q 57.328125 12.15625 50.6875 5.359375 
Q 44.046875 -1.421875 33.015625 -1.421875 
Q 20.359375 -1.421875 13.671875 8.265625 
Q 6.984375 17.96875 6.984375 36.375 
Q 6.984375 53.65625 15.1875 63.9375 
Q 23.390625 74.21875 37.203125 74.21875 
Q 40.921875 74.21875 44.703125 73.484375 
Q 48.484375 72.75 52.59375 71.296875 
z
" id="DejaVuSans-54"/>
      </defs>
      <g transform="translate(564.602957 511.038437)scale(0.1 -0.1)">
       <use xlink:href="#DejaVuSans-54"/>
       <use x="63.623047" xlink:href="#DejaVuSans-48"/>
      </g>
     </g>
    </g>
    <g id="xtick_5">
     <g id="line2d_5">
      <g>
       <use style="stroke:#000000;stroke-width:0.8;" x="734.932399" xlink:href="#mf0d154be50" y="496.44"/>
      </g>
     </g>
     <g id="text_5">
      <!-- 80 -->
      <defs>
       <path d="M 31.78125 34.625 
Q 24.75 34.625 20.71875 30.859375 
Q 16.703125 27.09375 16.703125 20.515625 
Q 16.703125 13.921875 20.71875 10.15625 
Q 24.75 6.390625 31.78125 6.390625 
Q 38.8125 6.390625 42.859375 10.171875 
Q 46.921875 13.96875 46.921875 20.515625 
Q 46.921875 27.09375 42.890625 30.859375 
Q 38.875 34.625 31.78125 34.625 
z
M 21.921875 38.8125 
Q 15.578125 40.375 12.03125 44.71875 
Q 8.5 49.078125 8.5 55.328125 
Q 8.5 64.0625 14.71875 69.140625 
Q 20.953125 74.21875 31.78125 74.21875 
Q 42.671875 74.21875 48.875 69.140625 
Q 55.078125 64.0625 55.078125 55.328125 
Q 55.078125 49.078125 51.53125 44.71875 
Q 48 40.375 41.703125 38.8125 
Q 48.828125 37.15625 52.796875 32.3125 
Q 56.78125 27.484375 56.78125 20.515625 
Q 56.78125 9.90625 50.3125 4.234375 
Q 43.84375 -1.421875 31.78125 -1.421875 
Q 19.734375 -1.421875 13.25 4.234375 
Q 6.78125 9.90625 6.78125 20.515625 
Q 6.78125 27.484375 10.78125 32.3125 
Q 14.796875 37.15625 21.921875 38.8125 
z
M 18.3125 54.390625 
Q 18.3125 48.734375 21.84375 45.5625 
Q 25.390625 42.390625 31.78125 42.390625 
Q 38.140625 42.390625 41.71875 45.5625 
Q 45.3125 48.734375 45.3125 54.390625 
Q 45.3125 60.0625 41.71875 63.234375 
Q 38.140625 66.40625 31.78125 66.40625 
Q 25.390625 66.40625 21.84375 63.234375 
Q 18.3125 60.0625 18.3125 54.390625 
z
" id="DejaVuSans-56"/>
      </defs>
      <g transform="translate(728.569899 511.038437)scale(0.1 -0.1)">
       <use xlink:href="#DejaVuSans-56"/>
       <use x="63.623047" xlink:href="#DejaVuSans-48"/>
      </g>
     </g>
    </g>
    <g id="xtick_6">
     <g id="line2d_6">
      <g>
       <use style="stroke:#000000;stroke-width:0.8;" x="898.899341" xlink:href="#mf0d154be50" y="496.44"/>
      </g>
     </g>
     <g id="text_6">
      <!-- 100 -->
      <defs>
       <path d="M 12.40625 8.296875 
L 28.515625 8.296875 
L 28.515625 63.921875 
L 10.984375 60.40625 
L 10.984375 69.390625 
L 28.421875 72.90625 
L 38.28125 72.90625 
L 38.28125 8.296875 
L 54.390625 8.296875 
L 54.390625 0 
L 12.40625 0 
z
" id="DejaVuSans-49"/>
      </defs>
      <g transform="translate(889.355591 511.038437)scale(0.1 -0.1)">
       <use xlink:href="#DejaVuSans-49"/>
       <use x="63.623047" xlink:href="#DejaVuSans-48"/>
       <use x="127.246094" xlink:href="#DejaVuSans-48"/>
      </g>
     </g>
    </g>
   </g>
   <g id="matplotlib.axis_2">
    <g id="ytick_1">
     <g id="line2d_7">
      <defs>
       <path d="M 0 0 
L -3.5 0 
" id="mc674f04775" style="stroke:#000000;stroke-width:0.8;"/>
      </defs>
      <g>
       <use style="stroke:#000000;stroke-width:0.8;" x="38.482813" xlink:href="#mc674f04775" y="444.343642"/>
      </g>
     </g>
     <g id="text_7">
      <!-- −0.4 -->
      <defs>
       <path d="M 10.59375 35.5 
L 73.1875 35.5 
L 73.1875 27.203125 
L 10.59375 27.203125 
z
" id="DejaVuSans-8722"/>
       <path d="M 10.6875 12.40625 
L 21 12.40625 
L 21 0 
L 10.6875 0 
z
" id="DejaVuSans-46"/>
      </defs>
      <g transform="translate(7.2 448.14286)scale(0.1 -0.1)">
       <use xlink:href="#DejaVuSans-8722"/>
       <use x="83.789062" xlink:href="#DejaVuSans-48"/>
       <use x="147.412109" xlink:href="#DejaVuSans-46"/>
       <use x="179.199219" xlink:href="#DejaVuSans-52"/>
      </g>
     </g>
    </g>
    <g id="ytick_2">
     <g id="line2d_8">
      <g>
       <use style="stroke:#000000;stroke-width:0.8;" x="38.482813" xlink:href="#mc674f04775" y="348.081821"/>
      </g>
     </g>
     <g id="text_8">
      <!-- −0.2 -->
      <g transform="translate(7.2 351.88104)scale(0.1 -0.1)">
       <use xlink:href="#DejaVuSans-8722"/>
       <use x="83.789062" xlink:href="#DejaVuSans-48"/>
       <use x="147.412109" xlink:href="#DejaVuSans-46"/>
       <use x="179.199219" xlink:href="#DejaVuSans-50"/>
      </g>
     </g>
    </g>
    <g id="ytick_3">
     <g id="line2d_9">
      <g>
       <use style="stroke:#000000;stroke-width:0.8;" x="38.482813" xlink:href="#mc674f04775" y="251.82"/>
      </g>
     </g>
     <g id="text_9">
      <!-- 0.0 -->
      <g transform="translate(15.579688 255.619219)scale(0.1 -0.1)">
       <use xlink:href="#DejaVuSans-48"/>
       <use x="63.623047" xlink:href="#DejaVuSans-46"/>
       <use x="95.410156" xlink:href="#DejaVuSans-48"/>
      </g>
     </g>
    </g>
    <g id="ytick_4">
     <g id="line2d_10">
      <g>
       <use style="stroke:#000000;stroke-width:0.8;" x="38.482813" xlink:href="#mc674f04775" y="155.558179"/>
      </g>
     </g>
     <g id="text_10">
      <!-- 0.2 -->
      <g transform="translate(15.579688 159.357398)scale(0.1 -0.1)">
       <use xlink:href="#DejaVuSans-48"/>
       <use x="63.623047" xlink:href="#DejaVuSans-46"/>
       <use x="95.410156" xlink:href="#DejaVuSans-50"/>
      </g>
     </g>
    </g>
    <g id="ytick_5">
     <g id="line2d_11">
      <g>
       <use style="stroke:#000000;stroke-width:0.8;" x="38.482813" xlink:href="#mc674f04775" y="59.296358"/>
      </g>
     </g>
     <g id="text_11">
      <!-- 0.4 -->
      <g transform="translate(15.579688 63.095577)scale(0.1 -0.1)">
       <use xlink:href="#DejaVuSans-48"/>
       <use x="63.623047" xlink:href="#DejaVuSans-46"/>
       <use x="95.410156" xlink:href="#DejaVuSans-52"/>
      </g>
     </g>
    </g>
   </g>
   <g id="line2d_12">
    <defs>
     <path d="M -3 3 
L 3 -3 
M -3 -3 
L 3 3 
" id="m558e4db3fa" style="stroke:#1f77b4;"/>
    </defs>
    <g clip-path="url(#p779f76667e)">
     <use style="fill:#1f77b4;stroke:#1f77b4;" x="79.064631" xlink:href="#m558e4db3fa" y="474.201818"/>
     <use style="fill:#1f77b4;stroke:#1f77b4;" x="87.262978" xlink:href="#m558e4db3fa" y="425.100025"/>
     <use style="fill:#1f77b4;stroke:#1f77b4;" x="95.461325" xlink:href="#m558e4db3fa" y="474.190174"/>
     <use style="fill:#1f77b4;stroke:#1f77b4;" x="103.659672" xlink:href="#m558e4db3fa" y="474.183482"/>
     <use style="fill:#1f77b4;stroke:#1f77b4;" x="111.858019" xlink:href="#m558e4db3fa" y="474.176114"/>
     <use style="fill:#1f77b4;stroke:#1f77b4;" x="120.056366" xlink:href="#m558e4db3fa" y="465.534094"/>
     <use style="fill:#1f77b4;stroke:#1f77b4;" x="128.254713" xlink:href="#m558e4db3fa" y="455.05807"/>
     <use style="fill:#1f77b4;stroke:#1f77b4;" x="136.45306" xlink:href="#m558e4db3fa" y="474.149035"/>
     <use style="fill:#1f77b4;stroke:#1f77b4;" x="144.651408" xlink:href="#m558e4db3fa" y="474.13797"/>
     <use style="fill:#1f77b4;stroke:#1f77b4;" x="152.849755" xlink:href="#m558e4db3fa" y="474.125644"/>
     <use style="fill:#1f77b4;stroke:#1f77b4;" x="161.048102" xlink:href="#m558e4db3fa" y="425.025197"/>
     <use style="fill:#1f77b4;stroke:#1f77b4;" x="169.246449" xlink:href="#m558e4db3fa" y="474.096459"/>
     <use style="fill:#1f77b4;stroke:#1f77b4;" x="177.444796" xlink:href="#m558e4db3fa" y="474.079133"/>
     <use style="fill:#1f77b4;stroke:#1f77b4;" x="185.643143" xlink:href="#m558e4db3fa" y="474.059601"/>
     <use style="fill:#1f77b4;stroke:#1f77b4;" x="193.84149" xlink:href="#m558e4db3fa" y="474.037505"/>
     <use style="fill:#1f77b4;stroke:#1f77b4;" x="202.039837" xlink:href="#m558e4db3fa" y="474.012415"/>
     <use style="fill:#1f77b4;stroke:#1f77b4;" x="210.238184" xlink:href="#m558e4db3fa" y="468.707977"/>
     <use style="fill:#1f77b4;stroke:#1f77b4;" x="218.436532" xlink:href="#m558e4db3fa" y="463.060858"/>
     <use style="fill:#1f77b4;stroke:#1f77b4;" x="226.634879" xlink:href="#m558e4db3fa" y="473.913415"/>
     <use style="fill:#1f77b4;stroke:#1f77b4;" x="234.833226" xlink:href="#m558e4db3fa" y="462.934808"/>
     <use style="fill:#1f77b4;stroke:#1f77b4;" x="243.031573" xlink:href="#m558e4db3fa" y="341.025678"/>
     <use style="fill:#1f77b4;stroke:#1f77b4;" x="251.22992" xlink:href="#m558e4db3fa" y="473.760408"/>
     <use style="fill:#1f77b4;stroke:#1f77b4;" x="259.428267" xlink:href="#m558e4db3fa" y="473.691158"/>
     <use style="fill:#1f77b4;stroke:#1f77b4;" x="267.626614" xlink:href="#m558e4db3fa" y="473.609364"/>
     <use style="fill:#1f77b4;stroke:#1f77b4;" x="275.824961" xlink:href="#m558e4db3fa" y="473.512142"/>
     <use style="fill:#1f77b4;stroke:#1f77b4;" x="284.023308" xlink:href="#m558e4db3fa" y="470.270971"/>
     <use style="fill:#1f77b4;stroke:#1f77b4;" x="292.221655" xlink:href="#m558e4db3fa" y="473.255647"/>
     <use style="fill:#1f77b4;stroke:#1f77b4;" x="300.420003" xlink:href="#m558e4db3fa" y="473.085525"/>
     <use style="fill:#1f77b4;stroke:#1f77b4;" x="308.61835" xlink:href="#m558e4db3fa" y="470.096021"/>
     <use style="fill:#1f77b4;stroke:#1f77b4;" x="316.816697" xlink:href="#m558e4db3fa" y="341.399375"/>
     <use style="fill:#1f77b4;stroke:#1f77b4;" x="325.015044" xlink:href="#m558e4db3fa" y="472.302268"/>
     <use style="fill:#1f77b4;stroke:#1f77b4;" x="333.213391" xlink:href="#m558e4db3fa" y="471.90283"/>
     <use style="fill:#1f77b4;stroke:#1f77b4;" x="341.411738" xlink:href="#m558e4db3fa" y="471.39796"/>
     <use style="fill:#1f77b4;stroke:#1f77b4;" x="349.610085" xlink:href="#m558e4db3fa" y="470.754304"/>
     <use style="fill:#1f77b4;stroke:#1f77b4;" x="357.808432" xlink:href="#m558e4db3fa" y="466.755277"/>
     <use style="fill:#1f77b4;stroke:#1f77b4;" x="366.006779" xlink:href="#m558e4db3fa" y="456.652892"/>
     <use style="fill:#1f77b4;stroke:#1f77b4;" x="374.205127" xlink:href="#m558e4db3fa" y="467.449445"/>
     <use style="fill:#1f77b4;stroke:#1f77b4;" x="382.403474" xlink:href="#m558e4db3fa" y="453.085486"/>
     <use style="fill:#1f77b4;stroke:#1f77b4;" x="390.601821" xlink:href="#m558e4db3fa" y="450.487101"/>
     <use style="fill:#1f77b4;stroke:#1f77b4;" x="398.800168" xlink:href="#m558e4db3fa" y="459.865285"/>
     <use style="fill:#1f77b4;stroke:#1f77b4;" x="406.998515" xlink:href="#m558e4db3fa" y="455.465832"/>
     <use style="fill:#1f77b4;stroke:#1f77b4;" x="415.196862" xlink:href="#m558e4db3fa" y="449.546362"/>
     <use style="fill:#1f77b4;stroke:#1f77b4;" x="423.395209" xlink:href="#m558e4db3fa" y="441.580496"/>
     <use style="fill:#1f77b4;stroke:#1f77b4;" x="431.593556" xlink:href="#m558e4db3fa" y="430.897939"/>
     <use style="fill:#1f77b4;stroke:#1f77b4;" x="439.791903" xlink:href="#m558e4db3fa" y="416.692234"/>
     <use style="fill:#1f77b4;stroke:#1f77b4;" x="447.990251" xlink:href="#m558e4db3fa" y="391.785112"/>
     <use style="fill:#1f77b4;stroke:#1f77b4;" x="456.188598" xlink:href="#m558e4db3fa" y="368.650446"/>
     <use style="fill:#1f77b4;stroke:#1f77b4;" x="464.386945" xlink:href="#m558e4db3fa" y="344.881525"/>
     <use style="fill:#1f77b4;stroke:#1f77b4;" x="472.585292" xlink:href="#m558e4db3fa" y="305.830985"/>
     <use style="fill:#1f77b4;stroke:#1f77b4;" x="480.783639" xlink:href="#m558e4db3fa" y="271.762346"/>
     <use style="fill:#1f77b4;stroke:#1f77b4;" x="488.981986" xlink:href="#m558e4db3fa" y="231.877654"/>
     <use style="fill:#1f77b4;stroke:#1f77b4;" x="497.180333" xlink:href="#m558e4db3fa" y="193.405619"/>
     <use style="fill:#1f77b4;stroke:#1f77b4;" x="505.37868" xlink:href="#m558e4db3fa" y="158.758475"/>
     <use style="fill:#1f77b4;stroke:#1f77b4;" x="513.577027" xlink:href="#m558e4db3fa" y="129.356372"/>
     <use style="fill:#1f77b4;stroke:#1f77b4;" x="521.775374" xlink:href="#m558e4db3fa" y="105.555817"/>
     <use style="fill:#1f77b4;stroke:#1f77b4;" x="529.973722" xlink:href="#m558e4db3fa" y="93.511471"/>
     <use style="fill:#1f77b4;stroke:#1f77b4;" x="538.172069" xlink:href="#m558e4db3fa" y="72.742061"/>
     <use style="fill:#1f77b4;stroke:#1f77b4;" x="546.370416" xlink:href="#m558e4db3fa" y="62.059504"/>
     <use style="fill:#1f77b4;stroke:#1f77b4;" x="554.568763" xlink:href="#m558e4db3fa" y="54.093638"/>
     <use style="fill:#1f77b4;stroke:#1f77b4;" x="562.76711" xlink:href="#m558e4db3fa" y="48.174168"/>
     <use style="fill:#1f77b4;stroke:#1f77b4;" x="570.965457" xlink:href="#m558e4db3fa" y="43.774715"/>
     <use style="fill:#1f77b4;stroke:#1f77b4;" x="579.163804" xlink:href="#m558e4db3fa" y="40.495804"/>
     <use style="fill:#1f77b4;stroke:#1f77b4;" x="587.362151" xlink:href="#m558e4db3fa" y="38.040463"/>
     <use style="fill:#1f77b4;stroke:#1f77b4;" x="595.560498" xlink:href="#m558e4db3fa" y="36.190555"/>
     <use style="fill:#1f77b4;stroke:#1f77b4;" x="603.758846" xlink:href="#m558e4db3fa" y="162.321157"/>
     <use style="fill:#1f77b4;stroke:#1f77b4;" x="611.957193" xlink:href="#m558e4db3fa" y="33.713395"/>
     <use style="fill:#1f77b4;stroke:#1f77b4;" x="620.15554" xlink:href="#m558e4db3fa" y="32.885696"/>
     <use style="fill:#1f77b4;stroke:#1f77b4;" x="628.353887" xlink:href="#m558e4db3fa" y="32.24204"/>
     <use style="fill:#1f77b4;stroke:#1f77b4;" x="636.552234" xlink:href="#m558e4db3fa" y="31.73717"/>
     <use style="fill:#1f77b4;stroke:#1f77b4;" x="644.750581" xlink:href="#m558e4db3fa" y="31.337732"/>
     <use style="fill:#1f77b4;stroke:#1f77b4;" x="652.948928" xlink:href="#m558e4db3fa" y="31.019001"/>
     <use style="fill:#1f77b4;stroke:#1f77b4;" x="661.147275" xlink:href="#m558e4db3fa" y="30.762532"/>
     <use style="fill:#1f77b4;stroke:#1f77b4;" x="669.345622" xlink:href="#m558e4db3fa" y="30.554475"/>
     <use style="fill:#1f77b4;stroke:#1f77b4;" x="677.54397" xlink:href="#m558e4db3fa" y="30.384353"/>
     <use style="fill:#1f77b4;stroke:#1f77b4;" x="685.742317" xlink:href="#m558e4db3fa" y="33.369029"/>
     <use style="fill:#1f77b4;stroke:#1f77b4;" x="693.940664" xlink:href="#m558e4db3fa" y="30.127858"/>
     <use style="fill:#1f77b4;stroke:#1f77b4;" x="702.139011" xlink:href="#m558e4db3fa" y="30.030636"/>
     <use style="fill:#1f77b4;stroke:#1f77b4;" x="710.337358" xlink:href="#m558e4db3fa" y="29.948842"/>
     <use style="fill:#1f77b4;stroke:#1f77b4;" x="718.535705" xlink:href="#m558e4db3fa" y="29.879592"/>
     <use style="fill:#1f77b4;stroke:#1f77b4;" x="726.734052" xlink:href="#m558e4db3fa" y="29.820611"/>
     <use style="fill:#1f77b4;stroke:#1f77b4;" x="734.932399" xlink:href="#m558e4db3fa" y="40.705192"/>
     <use style="fill:#1f77b4;stroke:#1f77b4;" x="743.130746" xlink:href="#m558e4db3fa" y="29.726585"/>
     <use style="fill:#1f77b4;stroke:#1f77b4;" x="751.329093" xlink:href="#m558e4db3fa" y="29.688931"/>
     <use style="fill:#1f77b4;stroke:#1f77b4;" x="759.527441" xlink:href="#m558e4db3fa" y="29.656187"/>
     <use style="fill:#1f77b4;stroke:#1f77b4;" x="767.725788" xlink:href="#m558e4db3fa" y="46.05384"/>
     <use style="fill:#1f77b4;stroke:#1f77b4;" x="775.924135" xlink:href="#m558e4db3fa" y="29.602495"/>
     <use style="fill:#1f77b4;stroke:#1f77b4;" x="784.122482" xlink:href="#m558e4db3fa" y="29.580399"/>
     <use style="fill:#1f77b4;stroke:#1f77b4;" x="792.320829" xlink:href="#m558e4db3fa" y="29.560867"/>
     <use style="fill:#1f77b4;stroke:#1f77b4;" x="800.519176" xlink:href="#m558e4db3fa" y="29.543541"/>
     <use style="fill:#1f77b4;stroke:#1f77b4;" x="808.717523" xlink:href="#m558e4db3fa" y="29.528121"/>
     <use style="fill:#1f77b4;stroke:#1f77b4;" x="816.91587" xlink:href="#m558e4db3fa" y="29.514356"/>
     <use style="fill:#1f77b4;stroke:#1f77b4;" x="825.114217" xlink:href="#m558e4db3fa" y="29.50203"/>
     <use style="fill:#1f77b4;stroke:#1f77b4;" x="833.312565" xlink:href="#m558e4db3fa" y="29.490965"/>
     <use style="fill:#1f77b4;stroke:#1f77b4;" x="841.510912" xlink:href="#m558e4db3fa" y="29.481004"/>
     <use style="fill:#1f77b4;stroke:#1f77b4;" x="849.709259" xlink:href="#m558e4db3fa" y="29.472016"/>
     <use style="fill:#1f77b4;stroke:#1f77b4;" x="857.907606" xlink:href="#m558e4db3fa" y="29.463886"/>
     <use style="fill:#1f77b4;stroke:#1f77b4;" x="866.105953" xlink:href="#m558e4db3fa" y="162.885934"/>
     <use style="fill:#1f77b4;stroke:#1f77b4;" x="874.3043" xlink:href="#m558e4db3fa" y="29.449826"/>
     <use style="fill:#1f77b4;stroke:#1f77b4;" x="882.502647" xlink:href="#m558e4db3fa" y="78.539975"/>
     <use style="fill:#1f77b4;stroke:#1f77b4;" x="890.700994" xlink:href="#m558e4db3fa" y="78.535045"/>
    </g>
   </g>
   <g id="line2d_13">
    <path clip-path="url(#p779f76667e)" d="M 79.064631 474.201818 
L 87.262978 474.196265 
L 95.461325 474.190174 
L 103.659672 474.183482 
L 111.858019 474.176114 
L 120.056366 474.167984 
L 128.254713 474.158996 
L 136.45306 474.149035 
L 144.651408 474.13797 
L 152.849755 474.125644 
L 161.048102 474.111879 
L 169.246449 474.096459 
L 177.444796 474.079133 
L 185.643143 474.059601 
L 193.84149 474.037505 
L 202.039837 474.012415 
L 210.238184 473.983813 
L 218.436532 473.951069 
L 226.634879 473.913415 
L 234.833226 473.86991 
L 243.031573 473.819389 
L 251.22992 473.760408 
L 259.428267 473.691158 
L 267.626614 473.609364 
L 275.824961 473.512142 
L 284.023308 473.395813 
L 292.221655 473.255647 
L 300.420003 473.085525 
L 308.61835 472.877468 
L 316.816697 472.620999 
L 325.015044 472.302268 
L 333.213391 471.90283 
L 341.411738 471.39796 
L 349.610085 470.754304 
L 357.808432 469.926605 
L 366.006779 468.853148 
L 374.205127 467.449445 
L 382.403474 465.599537 
L 390.601821 463.144196 
L 398.800168 459.865285 
L 406.998515 455.465832 
L 415.196862 449.546362 
L 423.395209 441.580496 
L 431.593556 430.897939 
L 439.791903 416.692234 
L 447.990251 398.084183 
L 456.188598 374.283628 
L 464.386945 344.881525 
L 472.585292 310.234381 
L 480.783639 271.762346 
L 488.981986 231.877654 
L 497.180333 193.405619 
L 505.37868 158.758475 
L 513.577027 129.356372 
L 521.775374 105.555817 
L 529.973722 86.947766 
L 538.172069 72.742061 
L 546.370416 62.059504 
L 554.568763 54.093638 
L 562.76711 48.174168 
L 570.965457 43.774715 
L 579.163804 40.495804 
L 587.362151 38.040463 
L 595.560498 36.190555 
L 603.758846 34.786852 
L 611.957193 33.713395 
L 620.15554 32.885696 
L 628.353887 32.24204 
L 636.552234 31.73717 
L 644.750581 31.337732 
L 652.948928 31.019001 
L 661.147275 30.762532 
L 669.345622 30.554475 
L 677.54397 30.384353 
L 685.742317 30.244187 
L 693.940664 30.127858 
L 702.139011 30.030636 
L 710.337358 29.948842 
L 718.535705 29.879592 
L 726.734052 29.820611 
L 734.932399 29.77009 
L 743.130746 29.726585 
L 751.329093 29.688931 
L 759.527441 29.656187 
L 767.725788 29.627585 
L 775.924135 29.602495 
L 784.122482 29.580399 
L 792.320829 29.560867 
L 800.519176 29.543541 
L 808.717523 29.528121 
L 816.91587 29.514356 
L 825.114217 29.50203 
L 833.312565 29.490965 
L 841.510912 29.481004 
L 849.709259 29.472016 
L 857.907606 29.463886 
L 866.105953 29.456518 
L 874.3043 29.449826 
L 882.502647 29.443735 
L 890.700994 29.438182 
" style="fill:none;stroke:#ff7f0e;stroke-linecap:square;stroke-width:1.5;"/>
   </g>
   <g id="patch_3">
    <path d="M 38.482813 496.44 
L 38.482813 7.2 
" style="fill:none;stroke:#000000;stroke-linecap:square;stroke-linejoin:miter;stroke-width:0.8;"/>
   </g>
   <g id="patch_4">
    <path d="M 931.282812 496.44 
L 931.282812 7.2 
" style="fill:none;stroke:#000000;stroke-linecap:square;stroke-linejoin:miter;stroke-width:0.8;"/>
   </g>
   <g id="patch_5">
    <path d="M 38.482813 496.44 
L 931.282812 496.44 
" style="fill:none;stroke:#000000;stroke-linecap:square;stroke-linejoin:miter;stroke-width:0.8;"/>
   </g>
   <g id="patch_6">
    <path d="M 38.482813 7.2 
L 931.282812 7.2 
" style="fill:none;stroke:#000000;stroke-linecap:square;stroke-linejoin:miter;stroke-width:0.8;"/>
   </g>
  </g>
 </g>
 <defs>
  <clipPath id="p779f76667e">
   <rect height="489.24" width="892.8" x="38.482813" y="7.2"/>
  </clipPath>
 </defs>
</svg>
